ISO-10303-21;
HEADER;
/* Generated by software containing ST-Developer
 * from STEP Tools, Inc. (www.steptools.com) 
 */
/* OPTION: using custom renumber hook */

FILE_DESCRIPTION(
/* description */ ('STEP AP242 Edition 2',
'CAx-IF Rec.Pracs.---Representation and Presentation of Product Manufa
cturing Information (PMI)---4.0---2014-10-13',
'CAx-IF Rec.Pracs.---3D Tessellated Geometry---0.4---2014-09-14','2;1',
'CAx-IF Rec.Pracs.---User Defined Attributes---1.5---2016-08-15'),
/* implementation_level */ '2;1');

FILE_NAME(
/* name */ 'a2aba01d-b4d4-424d-aa68-0c015d5081bf',
/* time_stamp */ '2026-09-25T11:33:37Z',
/* author */ (''),
/* organization */ (''),
/* preprocessor_version */ 'ST-DEVELOPER v20',
/* originating_system */ 'ONSHAPE BY PTC INC, 1.221',
/* authorisation */ '  ');

FILE_SCHEMA (('AP242_MANAGED_MODEL_BASED_3D_ENGINEERING_MIM_LF { 1 0 10303 442 3 1 4 }'));
ENDSEC;

DATA;
#10=SHAPE_REPRESENTATION_RELATIONSHIP('','',#146,#11);
#11=ADVANCED_BREP_SHAPE_REPRESENTATION('',(#144),#255);
#12=CYLINDRICAL_SURFACE('',#162,0.00215000000000091);
#13=CYLINDRICAL_SURFACE('',#165,0.00215);
#14=CYLINDRICAL_SURFACE('',#168,0.00215);
#15=CONICAL_SURFACE('',#152,0.0373,0.137916790157218);
#16=CONICAL_SURFACE('',#154,0.0390807775084921,0.137916790157218);
#17=TOROIDAL_SURFACE('',#150,0.0243,0.013);
#18=TOROIDAL_SURFACE('',#161,0.0243,0.013);
#19=ORIENTED_EDGE('',*,*,#41,.T.);
#20=ORIENTED_EDGE('',*,*,#41,.F.);
#21=ORIENTED_EDGE('',*,*,#42,.F.);
#22=ORIENTED_EDGE('',*,*,#43,.F.);
#23=ORIENTED_EDGE('',*,*,#42,.T.);
#24=ORIENTED_EDGE('',*,*,#44,.F.);
#25=ORIENTED_EDGE('',*,*,#43,.T.);
#26=ORIENTED_EDGE('',*,*,#45,.F.);
#27=ORIENTED_EDGE('',*,*,#46,.F.);
#28=ORIENTED_EDGE('',*,*,#47,.F.);
#29=ORIENTED_EDGE('',*,*,#48,.T.);
#30=ORIENTED_EDGE('',*,*,#44,.T.);
#31=ORIENTED_EDGE('',*,*,#48,.F.);
#32=ORIENTED_EDGE('',*,*,#49,.F.);
#33=ORIENTED_EDGE('',*,*,#47,.T.);
#34=ORIENTED_EDGE('',*,*,#49,.T.);
#35=ORIENTED_EDGE('',*,*,#50,.F.);
#36=ORIENTED_EDGE('',*,*,#46,.T.);
#37=ORIENTED_EDGE('',*,*,#50,.T.);
#38=ORIENTED_EDGE('',*,*,#51,.F.);
#39=ORIENTED_EDGE('',*,*,#45,.T.);
#40=ORIENTED_EDGE('',*,*,#51,.T.);
#41=EDGE_CURVE('',#52,#52,#63,.F.);
#42=EDGE_CURVE('',#53,#53,#64,.T.);
#43=EDGE_CURVE('',#54,#54,#65,.T.);
#44=EDGE_CURVE('',#55,#55,#66,.T.);
#45=EDGE_CURVE('',#56,#56,#67,.T.);
#46=EDGE_CURVE('',#57,#57,#68,.T.);
#47=EDGE_CURVE('',#58,#58,#69,.T.);
#48=EDGE_CURVE('',#59,#59,#70,.T.);
#49=EDGE_CURVE('',#60,#60,#71,.T.);
#50=EDGE_CURVE('',#61,#61,#72,.T.);
#51=EDGE_CURVE('',#62,#62,#73,.T.);
#52=VERTEX_POINT('',#222);
#53=VERTEX_POINT('',#225);
#54=VERTEX_POINT('',#228);
#55=VERTEX_POINT('',#231);
#56=VERTEX_POINT('',#234);
#57=VERTEX_POINT('',#236);
#58=VERTEX_POINT('',#238);
#59=VERTEX_POINT('',#240);
#60=VERTEX_POINT('',#244);
#61=VERTEX_POINT('',#248);
#62=VERTEX_POINT('',#252);
#63=CIRCLE('',#149,0.0243);
#64=CIRCLE('',#151,0.0373);
#65=CIRCLE('',#153,0.0390807775084921);
#66=CIRCLE('',#155,0.0373);
#67=CIRCLE('',#157,0.00215);
#68=CIRCLE('',#158,0.00215);
#69=CIRCLE('',#159,0.00215000000000091);
#70=CIRCLE('',#160,0.0243);
#71=CIRCLE('',#163,0.00215000000000091);
#72=CIRCLE('',#166,0.00215);
#73=CIRCLE('',#169,0.00215);
#74=EDGE_LOOP('',(#19));
#75=EDGE_LOOP('',(#20));
#76=EDGE_LOOP('',(#21));
#77=EDGE_LOOP('',(#22));
#78=EDGE_LOOP('',(#23));
#79=EDGE_LOOP('',(#24));
#80=EDGE_LOOP('',(#25));
#81=EDGE_LOOP('',(#26));
#82=EDGE_LOOP('',(#27));
#83=EDGE_LOOP('',(#28));
#84=EDGE_LOOP('',(#29));
#85=EDGE_LOOP('',(#30));
#86=EDGE_LOOP('',(#31));
#87=EDGE_LOOP('',(#32));
#88=EDGE_LOOP('',(#33));
#89=EDGE_LOOP('',(#34));
#90=EDGE_LOOP('',(#35));
#91=EDGE_LOOP('',(#36));
#92=EDGE_LOOP('',(#37));
#93=EDGE_LOOP('',(#38));
#94=EDGE_LOOP('',(#39));
#95=EDGE_LOOP('',(#40));
#96=FACE_BOUND('',#74,.T.);
#97=FACE_BOUND('',#75,.T.);
#98=FACE_BOUND('',#76,.T.);
#99=FACE_BOUND('',#77,.T.);
#100=FACE_BOUND('',#78,.T.);
#101=FACE_BOUND('',#79,.T.);
#102=FACE_BOUND('',#80,.T.);
#103=FACE_BOUND('',#81,.T.);
#104=FACE_BOUND('',#82,.T.);
#105=FACE_BOUND('',#83,.T.);
#106=FACE_BOUND('',#84,.T.);
#107=FACE_BOUND('',#85,.T.);
#108=FACE_BOUND('',#86,.T.);
#109=FACE_BOUND('',#87,.T.);
#110=FACE_BOUND('',#88,.T.);
#111=FACE_BOUND('',#89,.T.);
#112=FACE_BOUND('',#90,.T.);
#113=FACE_BOUND('',#91,.T.);
#114=FACE_BOUND('',#92,.T.);
#115=FACE_BOUND('',#93,.T.);
#116=FACE_BOUND('',#94,.T.);
#117=FACE_BOUND('',#95,.T.);
#118=PLANE('',#148);
#119=PLANE('',#156);
#120=PLANE('',#164);
#121=PLANE('',#167);
#122=PLANE('',#170);
#123=ADVANCED_FACE('',(#96),#118,.F.);
#124=ADVANCED_FACE('',(#97,#98),#17,.T.);
#125=ADVANCED_FACE('',(#99,#100),#15,.T.);
#126=ADVANCED_FACE('',(#101,#102),#16,.T.);
#127=ADVANCED_FACE('',(#103,#104,#105,#106),#119,.T.);
#128=ADVANCED_FACE('',(#107,#108),#18,.T.);
#129=ADVANCED_FACE('',(#109,#110),#12,.F.);
#130=ADVANCED_FACE('',(#111),#120,.T.);
#131=ADVANCED_FACE('',(#112,#113),#13,.F.);
#132=ADVANCED_FACE('',(#114),#121,.T.);
#133=ADVANCED_FACE('',(#115,#116),#14,.F.);
#134=ADVANCED_FACE('',(#117),#122,.T.);
#135=CLOSED_SHELL('',(#123,#124,#125,#126,#127,#128,#129,#130,#131,#132,
#133,#134));
#136=STYLED_ITEM('',(#137),#144);
#137=PRESENTATION_STYLE_ASSIGNMENT((#138));
#138=SURFACE_STYLE_USAGE(.BOTH.,#139);
#139=SURFACE_SIDE_STYLE('',(#140));
#140=SURFACE_STYLE_FILL_AREA(#141);
#141=FILL_AREA_STYLE('',(#142));
#142=FILL_AREA_STYLE_COLOUR('',#143);
#143=COLOUR_RGB('',0.792156862745098,0.819607843137255,0.933333333333333);
#144=MANIFOLD_SOLID_BREP('Part 1',#135);
#145=SHAPE_DEFINITION_REPRESENTATION(#260,#146);
#146=SHAPE_REPRESENTATION('Part 1',(#147),#255);
#147=AXIS2_PLACEMENT_3D('',#219,#171,#172);
#148=AXIS2_PLACEMENT_3D('',#220,#173,#174);
#149=AXIS2_PLACEMENT_3D('',#221,#175,#176);
#150=AXIS2_PLACEMENT_3D('',#223,#177,#178);
#151=AXIS2_PLACEMENT_3D('',#224,#179,#180);
#152=AXIS2_PLACEMENT_3D('',#226,#181,#182);
#153=AXIS2_PLACEMENT_3D('',#227,#183,#184);
#154=AXIS2_PLACEMENT_3D('',#229,#185,#186);
#155=AXIS2_PLACEMENT_3D('',#230,#187,#188);
#156=AXIS2_PLACEMENT_3D('',#232,#189,#190);
#157=AXIS2_PLACEMENT_3D('',#233,#191,#192);
#158=AXIS2_PLACEMENT_3D('',#235,#193,#194);
#159=AXIS2_PLACEMENT_3D('',#237,#195,#196);
#160=AXIS2_PLACEMENT_3D('',#239,#197,#198);
#161=AXIS2_PLACEMENT_3D('',#241,#199,#200);
#162=AXIS2_PLACEMENT_3D('',#242,#201,#202);
#163=AXIS2_PLACEMENT_3D('',#243,#203,#204);
#164=AXIS2_PLACEMENT_3D('',#245,#205,#206);
#165=AXIS2_PLACEMENT_3D('',#246,#207,#208);
#166=AXIS2_PLACEMENT_3D('',#247,#209,#210);
#167=AXIS2_PLACEMENT_3D('',#249,#211,#212);
#168=AXIS2_PLACEMENT_3D('',#250,#213,#214);
#169=AXIS2_PLACEMENT_3D('',#251,#215,#216);
#170=AXIS2_PLACEMENT_3D('',#253,#217,#218);
#171=DIRECTION('',(0.,0.,1.));
#172=DIRECTION('',(1.,0.,0.));
#173=DIRECTION('',(0.,0.,1.));
#174=DIRECTION('',(1.,0.,0.));
#175=DIRECTION('',(0.,0.,1.));
#176=DIRECTION('',(1.,0.,0.));
#177=DIRECTION('',(0.,0.,1.));
#178=DIRECTION('',(1.,0.,0.));
#179=DIRECTION('',(0.,0.,1.));
#180=DIRECTION('',(1.,0.,0.));
#181=DIRECTION('',(0.,0.,1.));
#182=DIRECTION('',(1.,0.,0.));
#183=DIRECTION('',(0.,0.,1.));
#184=DIRECTION('',(1.,0.,0.));
#185=DIRECTION('',(0.,0.,-1.));
#186=DIRECTION('',(1.,0.,0.));
#187=DIRECTION('',(0.,0.,1.));
#188=DIRECTION('',(1.,0.,0.));
#189=DIRECTION('',(0.,0.,1.));
#190=DIRECTION('',(1.,0.,0.));
#191=DIRECTION('',(0.,0.,1.));
#192=DIRECTION('',(1.,0.,0.));
#193=DIRECTION('',(0.,0.,1.));
#194=DIRECTION('',(1.,0.,0.));
#195=DIRECTION('',(0.,0.,1.));
#196=DIRECTION('',(1.,0.,0.));
#197=DIRECTION('',(0.,0.,1.));
#198=DIRECTION('',(1.,0.,0.));
#199=DIRECTION('',(0.,0.,1.));
#200=DIRECTION('',(1.,0.,0.));
#201=DIRECTION('',(0.,0.,1.));
#202=DIRECTION('',(1.,0.,0.));
#203=DIRECTION('',(0.,0.,1.));
#204=DIRECTION('',(1.,0.,0.));
#205=DIRECTION('',(0.,0.,1.));
#206=DIRECTION('',(1.,0.,0.));
#207=DIRECTION('',(0.,0.,1.));
#208=DIRECTION('',(1.,0.,0.));
#209=DIRECTION('',(0.,0.,1.));
#210=DIRECTION('',(1.,0.,0.));
#211=DIRECTION('',(0.,0.,1.));
#212=DIRECTION('',(1.,0.,0.));
#213=DIRECTION('',(0.,0.,1.));
#214=DIRECTION('',(1.,0.,0.));
#215=DIRECTION('',(0.,0.,1.));
#216=DIRECTION('',(1.,0.,0.));
#217=DIRECTION('',(0.,0.,1.));
#218=DIRECTION('',(1.,0.,0.));
#219=CARTESIAN_POINT('',(0.,0.,0.));
#220=CARTESIAN_POINT('',(0.,0.,0.));
#221=CARTESIAN_POINT('',(0.,0.,0.));
#222=CARTESIAN_POINT('',(0.0243,0.,0.));
#223=CARTESIAN_POINT('',(0.,0.,0.013));
#224=CARTESIAN_POINT('',(0.,0.,0.013));
#225=CARTESIAN_POINT('',(0.0373,0.,0.013));
#226=CARTESIAN_POINT('',(0.,0.,0.013));
#227=CARTESIAN_POINT('',(0.,0.,0.02583));
#228=CARTESIAN_POINT('',(0.0390807775084921,0.,0.02583));
#229=CARTESIAN_POINT('',(0.,0.,0.02583));
#230=CARTESIAN_POINT('',(0.,0.,0.03866));
#231=CARTESIAN_POINT('',(0.0373,0.,0.03866));
#232=CARTESIAN_POINT('',(0.,0.,0.05166));
#233=CARTESIAN_POINT('',(2.5784162937698E-18,0.016,0.05166));
#234=CARTESIAN_POINT('',(0.00215,0.016,0.05166));
#235=CARTESIAN_POINT('',(0.013856406460551,-0.008,0.05166));
#236=CARTESIAN_POINT('',(0.016006406460551,-0.008,0.05166));
#237=CARTESIAN_POINT('',(-0.0138564064605503,-0.00800000000000039,0.05166));
#238=CARTESIAN_POINT('',(-0.0117064064605494,-0.00800000000000039,0.05166));
#239=CARTESIAN_POINT('',(0.,0.,0.05166));
#240=CARTESIAN_POINT('',(0.0243,0.,0.05166));
#241=CARTESIAN_POINT('',(0.,0.,0.03866));
#242=CARTESIAN_POINT('',(-0.0138564064605503,-0.00800000000000039,0.04666));
#243=CARTESIAN_POINT('',(-0.0138564064605503,-0.00800000000000039,0.04666));
#244=CARTESIAN_POINT('',(-0.0117064064605494,-0.00800000000000039,0.04666));
#245=CARTESIAN_POINT('',(-0.0138564064605503,-0.00800000000000039,0.04666));
#246=CARTESIAN_POINT('',(0.013856406460551,-0.008,0.04666));
#247=CARTESIAN_POINT('',(0.013856406460551,-0.008,0.04666));
#248=CARTESIAN_POINT('',(0.016006406460551,-0.008,0.04666));
#249=CARTESIAN_POINT('',(0.013856406460551,-0.008,0.04666));
#250=CARTESIAN_POINT('',(2.5784162937698E-18,0.016,0.04666));
#251=CARTESIAN_POINT('',(2.5784162937698E-18,0.016,0.04666));
#252=CARTESIAN_POINT('',(0.00215,0.016,0.04666));
#253=CARTESIAN_POINT('',(2.5784162937698E-18,0.016,0.04666));
#254=MECHANICAL_DESIGN_GEOMETRIC_PRESENTATION_REPRESENTATION('',(#136),
#255);
#255=(
GEOMETRIC_REPRESENTATION_CONTEXT(3)
GLOBAL_UNCERTAINTY_ASSIGNED_CONTEXT((#256))
GLOBAL_UNIT_ASSIGNED_CONTEXT((#259,#258,#257))
REPRESENTATION_CONTEXT('Part 1','TOP_LEVEL_ASSEMBLY_PART')
);
#256=UNCERTAINTY_MEASURE_WITH_UNIT(LENGTH_MEASURE(1.E-8),#259,
'DISTANCE_ACCURACY_VALUE','Maximum Tolerance applied to model');
#257=(
NAMED_UNIT(*)
SI_UNIT($,.STERADIAN.)
SOLID_ANGLE_UNIT()
);
#258=(
NAMED_UNIT(*)
PLANE_ANGLE_UNIT()
SI_UNIT($,.RADIAN.)
);
#259=(
LENGTH_UNIT()
NAMED_UNIT(*)
SI_UNIT($,.METRE.)
);
#260=PRODUCT_DEFINITION_SHAPE('','',#261);
#261=PRODUCT_DEFINITION('','',#263,#262);
#262=PRODUCT_DEFINITION_CONTEXT('',#269,'design');
#263=PRODUCT_DEFINITION_FORMATION_WITH_SPECIFIED_SOURCE('','',#265,
 .NOT_KNOWN.);
#264=PRODUCT_RELATED_PRODUCT_CATEGORY('','',(#265));
#265=PRODUCT('Part 1','Part 1','Part 1',(#267));
#266=PRODUCT_CATEGORY('','');
#267=PRODUCT_CONTEXT('',#269,'mechanical');
#268=APPLICATION_PROTOCOL_DEFINITION('international standard',
'ap242_managed_model_based_3d_engineering',2020,#269);
#269=APPLICATION_CONTEXT('managed model based 3d engineering');
ENDSEC;
END-ISO-10303-21;
