ISO-10303-21;
HEADER;
/* Generated by software containing ST-Developer
 * from STEP Tools, Inc. (www.steptools.com) 
 */
/* OPTION: using custom renumber hook */

FILE_DESCRIPTION(
/* description */ ('STEP AP242 Edition 2',
'CAx-IF Rec.Pracs.---Representation and Presentation of Product Manufa
cturing Information (PMI)---4.0---2014-10-13',
'CAx-IF Rec.Pracs.---3D Tessellated Geometry---0.4---2014-09-14','2;1',
'CAx-IF Rec.Pracs.---User Defined Attributes---1.5---2016-08-15'),
/* implementation_level */ '2;1');

FILE_NAME(
/* name */ '5d105135-fca5-4249-beb0-2a4dad0b8575',
/* time_stamp */ '2026-09-25T11:34:30Z',
/* author */ (''),
/* organization */ (''),
/* preprocessor_version */ 'ST-DEVELOPER v20',
/* originating_system */ 'ONSHAPE BY PTC INC, 1.221',
/* authorisation */ '  ');

FILE_SCHEMA (('AP242_MANAGED_MODEL_BASED_3D_ENGINEERING_MIM_LF { 1 0 10303 442 3 1 4 }'));
ENDSEC;

DATA;
#10=SHAPE_REPRESENTATION_RELATIONSHIP('','',#219,#11);
#11=ADVANCED_BREP_SHAPE_REPRESENTATION('',(#217),#383);
#12=CONICAL_SURFACE('',#228,0.0343185813197259,0.137916790157218);
#13=CONICAL_SURFACE('',#230,0.0361229544772003,0.137916790157218);
#14=CONICAL_SURFACE('',#249,0.0373,0.137916790157218);
#15=CONICAL_SURFACE('',#251,0.0391043731574745,0.137916790157218);
#16=TOROIDAL_SURFACE('',#226,0.0243,0.00999);
#17=TOROIDAL_SURFACE('',#237,0.0243,0.00999);
#18=TOROIDAL_SURFACE('',#247,0.0243,0.013);
#19=TOROIDAL_SURFACE('',#253,0.0243,0.013);
#20=PLANE('',#224);
#21=PLANE('',#232);
#22=PLANE('',#238);
#23=PLANE('',#245);
#24=PLANE('',#255);
#25=ORIENTED_EDGE('',*,*,#61,.F.);
#26=ORIENTED_EDGE('',*,*,#62,.F.);
#27=ORIENTED_EDGE('',*,*,#63,.F.);
#28=ORIENTED_EDGE('',*,*,#63,.T.);
#29=ORIENTED_EDGE('',*,*,#64,.T.);
#30=ORIENTED_EDGE('',*,*,#65,.T.);
#31=ORIENTED_EDGE('',*,*,#64,.F.);
#32=ORIENTED_EDGE('',*,*,#66,.T.);
#33=ORIENTED_EDGE('',*,*,#65,.F.);
#34=ORIENTED_EDGE('',*,*,#67,.T.);
#35=ORIENTED_EDGE('',*,*,#68,.T.);
#36=ORIENTED_EDGE('',*,*,#69,.T.);
#37=ORIENTED_EDGE('',*,*,#61,.T.);
#38=ORIENTED_EDGE('',*,*,#70,.F.);
#39=ORIENTED_EDGE('',*,*,#66,.F.);
#40=ORIENTED_EDGE('',*,*,#70,.T.);
#41=ORIENTED_EDGE('',*,*,#62,.T.);
#42=ORIENTED_EDGE('',*,*,#71,.T.);
#43=ORIENTED_EDGE('',*,*,#69,.F.);
#44=ORIENTED_EDGE('',*,*,#72,.T.);
#45=ORIENTED_EDGE('',*,*,#68,.F.);
#46=ORIENTED_EDGE('',*,*,#73,.T.);
#47=ORIENTED_EDGE('',*,*,#67,.F.);
#48=ORIENTED_EDGE('',*,*,#74,.T.);
#49=ORIENTED_EDGE('',*,*,#74,.F.);
#50=ORIENTED_EDGE('',*,*,#75,.F.);
#51=ORIENTED_EDGE('',*,*,#76,.F.);
#52=ORIENTED_EDGE('',*,*,#75,.T.);
#53=ORIENTED_EDGE('',*,*,#77,.F.);
#54=ORIENTED_EDGE('',*,*,#76,.T.);
#55=ORIENTED_EDGE('',*,*,#77,.T.);
#56=ORIENTED_EDGE('',*,*,#78,.F.);
#57=ORIENTED_EDGE('',*,*,#73,.F.);
#58=ORIENTED_EDGE('',*,*,#72,.F.);
#59=ORIENTED_EDGE('',*,*,#71,.F.);
#60=ORIENTED_EDGE('',*,*,#78,.T.);
#61=EDGE_CURVE('',#79,#79,#97,.T.);
#62=EDGE_CURVE('',#80,#80,#98,.F.);
#63=EDGE_CURVE('',#81,#81,#99,.F.);
#64=EDGE_CURVE('',#82,#82,#100,.F.);
#65=EDGE_CURVE('',#83,#83,#101,.T.);
#66=EDGE_CURVE('',#84,#84,#102,.T.);
#67=EDGE_CURVE('',#85,#85,#103,.T.);
#68=EDGE_CURVE('',#86,#86,#104,.T.);
#69=EDGE_CURVE('',#87,#87,#105,.T.);
#70=EDGE_CURVE('',#88,#88,#106,.T.);
#71=EDGE_CURVE('',#89,#89,#107,.T.);
#72=EDGE_CURVE('',#90,#90,#108,.T.);
#73=EDGE_CURVE('',#91,#91,#109,.T.);
#74=EDGE_CURVE('',#92,#92,#110,.F.);
#75=EDGE_CURVE('',#93,#93,#111,.T.);
#76=EDGE_CURVE('',#94,#94,#112,.T.);
#77=EDGE_CURVE('',#95,#95,#113,.T.);
#78=EDGE_CURVE('',#96,#96,#114,.T.);
#79=VERTEX_POINT('',#331);
#80=VERTEX_POINT('',#333);
#81=VERTEX_POINT('',#336);
#82=VERTEX_POINT('',#339);
#83=VERTEX_POINT('',#342);
#84=VERTEX_POINT('',#345);
#85=VERTEX_POINT('',#348);
#86=VERTEX_POINT('',#350);
#87=VERTEX_POINT('',#352);
#88=VERTEX_POINT('',#354);
#89=VERTEX_POINT('',#359);
#90=VERTEX_POINT('',#362);
#91=VERTEX_POINT('',#365);
#92=VERTEX_POINT('',#368);
#93=VERTEX_POINT('',#371);
#94=VERTEX_POINT('',#374);
#95=VERTEX_POINT('',#377);
#96=VERTEX_POINT('',#380);
#97=CIRCLE('',#222,0.01);
#98=CIRCLE('',#223,0.01);
#99=CIRCLE('',#225,0.0243);
#100=CIRCLE('',#227,0.0342881106535878);
#101=CIRCLE('',#229,0.0360655178434108);
#102=CIRCLE('',#231,0.0342881106535878);
#103=CIRCLE('',#233,0.0023);
#104=CIRCLE('',#234,0.00230000000000088);
#105=CIRCLE('',#235,0.00230000000000128);
#106=CIRCLE('',#236,0.0243);
#107=CIRCLE('',#240,0.00230000000000128);
#108=CIRCLE('',#242,0.00230000000000088);
#109=CIRCLE('',#244,0.0023);
#110=CIRCLE('',#246,0.0243);
#111=CIRCLE('',#248,0.0373);
#112=CIRCLE('',#250,0.0391043731574745);
#113=CIRCLE('',#252,0.0373);
#114=CIRCLE('',#254,0.0243);
#115=EDGE_LOOP('',(#25));
#116=EDGE_LOOP('',(#26));
#117=EDGE_LOOP('',(#27));
#118=EDGE_LOOP('',(#28));
#119=EDGE_LOOP('',(#29));
#120=EDGE_LOOP('',(#30));
#121=EDGE_LOOP('',(#31));
#122=EDGE_LOOP('',(#32));
#123=EDGE_LOOP('',(#33));
#124=EDGE_LOOP('',(#34));
#125=EDGE_LOOP('',(#35));
#126=EDGE_LOOP('',(#36));
#127=EDGE_LOOP('',(#37));
#128=EDGE_LOOP('',(#38));
#129=EDGE_LOOP('',(#39));
#130=EDGE_LOOP('',(#40));
#131=EDGE_LOOP('',(#41));
#132=EDGE_LOOP('',(#42));
#133=EDGE_LOOP('',(#43));
#134=EDGE_LOOP('',(#44));
#135=EDGE_LOOP('',(#45));
#136=EDGE_LOOP('',(#46));
#137=EDGE_LOOP('',(#47));
#138=EDGE_LOOP('',(#48));
#139=EDGE_LOOP('',(#49));
#140=EDGE_LOOP('',(#50));
#141=EDGE_LOOP('',(#51));
#142=EDGE_LOOP('',(#52));
#143=EDGE_LOOP('',(#53));
#144=EDGE_LOOP('',(#54));
#145=EDGE_LOOP('',(#55));
#146=EDGE_LOOP('',(#56));
#147=EDGE_LOOP('',(#57));
#148=EDGE_LOOP('',(#58));
#149=EDGE_LOOP('',(#59));
#150=EDGE_LOOP('',(#60));
#151=FACE_BOUND('',#115,.T.);
#152=FACE_BOUND('',#116,.T.);
#153=FACE_BOUND('',#117,.T.);
#154=FACE_BOUND('',#118,.T.);
#155=FACE_BOUND('',#119,.T.);
#156=FACE_BOUND('',#120,.T.);
#157=FACE_BOUND('',#121,.T.);
#158=FACE_BOUND('',#122,.T.);
#159=FACE_BOUND('',#123,.T.);
#160=FACE_BOUND('',#124,.T.);
#161=FACE_BOUND('',#125,.T.);
#162=FACE_BOUND('',#126,.T.);
#163=FACE_BOUND('',#127,.T.);
#164=FACE_BOUND('',#128,.T.);
#165=FACE_BOUND('',#129,.T.);
#166=FACE_BOUND('',#130,.T.);
#167=FACE_BOUND('',#131,.T.);
#168=FACE_BOUND('',#132,.T.);
#169=FACE_BOUND('',#133,.T.);
#170=FACE_BOUND('',#134,.T.);
#171=FACE_BOUND('',#135,.T.);
#172=FACE_BOUND('',#136,.T.);
#173=FACE_BOUND('',#137,.T.);
#174=FACE_BOUND('',#138,.T.);
#175=FACE_BOUND('',#139,.T.);
#176=FACE_BOUND('',#140,.T.);
#177=FACE_BOUND('',#141,.T.);
#178=FACE_BOUND('',#142,.T.);
#179=FACE_BOUND('',#143,.T.);
#180=FACE_BOUND('',#144,.T.);
#181=FACE_BOUND('',#145,.T.);
#182=FACE_BOUND('',#146,.T.);
#183=FACE_BOUND('',#147,.T.);
#184=FACE_BOUND('',#148,.T.);
#185=FACE_BOUND('',#149,.T.);
#186=FACE_BOUND('',#150,.T.);
#187=CYLINDRICAL_SURFACE('',#221,0.01);
#188=CYLINDRICAL_SURFACE('',#239,0.00230000000000128);
#189=CYLINDRICAL_SURFACE('',#241,0.00230000000000088);
#190=CYLINDRICAL_SURFACE('',#243,0.0023);
#191=ADVANCED_FACE('',(#151,#152),#187,.F.);
#192=ADVANCED_FACE('',(#153),#20,.T.);
#193=ADVANCED_FACE('',(#154,#155),#16,.F.);
#194=ADVANCED_FACE('',(#156,#157),#12,.F.);
#195=ADVANCED_FACE('',(#158,#159),#13,.F.);
#196=ADVANCED_FACE('',(#160,#161,#162,#163,#164),#21,.F.);
#197=ADVANCED_FACE('',(#165,#166),#17,.F.);
#198=ADVANCED_FACE('',(#167),#22,.F.);
#199=ADVANCED_FACE('',(#168,#169),#188,.F.);
#200=ADVANCED_FACE('',(#170,#171),#189,.F.);
#201=ADVANCED_FACE('',(#172,#173),#190,.F.);
#202=ADVANCED_FACE('',(#174),#23,.F.);
#203=ADVANCED_FACE('',(#175,#176),#18,.T.);
#204=ADVANCED_FACE('',(#177,#178),#14,.T.);
#205=ADVANCED_FACE('',(#179,#180),#15,.T.);
#206=ADVANCED_FACE('',(#181,#182),#19,.T.);
#207=ADVANCED_FACE('',(#183,#184,#185,#186),#24,.T.);
#208=CLOSED_SHELL('',(#191,#192,#193,#194,#195,#196,#197,#198,#199,#200,
#201,#202,#203,#204,#205,#206,#207));
#209=STYLED_ITEM('',(#210),#217);
#210=PRESENTATION_STYLE_ASSIGNMENT((#211));
#211=SURFACE_STYLE_USAGE(.BOTH.,#212);
#212=SURFACE_SIDE_STYLE('',(#213));
#213=SURFACE_STYLE_FILL_AREA(#214);
#214=FILL_AREA_STYLE('',(#215));
#215=FILL_AREA_STYLE_COLOUR('',#216);
#216=COLOUR_RGB('',0.792156862745098,0.819607843137255,0.933333333333333);
#217=MANIFOLD_SOLID_BREP('Part 1',#208);
#218=SHAPE_DEFINITION_REPRESENTATION(#388,#219);
#219=SHAPE_REPRESENTATION('Part 1',(#220),#383);
#220=AXIS2_PLACEMENT_3D('',#328,#256,#257);
#221=AXIS2_PLACEMENT_3D('',#329,#258,#259);
#222=AXIS2_PLACEMENT_3D('',#330,#260,#261);
#223=AXIS2_PLACEMENT_3D('',#332,#262,#263);
#224=AXIS2_PLACEMENT_3D('',#334,#264,#265);
#225=AXIS2_PLACEMENT_3D('',#335,#266,#267);
#226=AXIS2_PLACEMENT_3D('',#337,#268,#269);
#227=AXIS2_PLACEMENT_3D('',#338,#270,#271);
#228=AXIS2_PLACEMENT_3D('',#340,#272,#273);
#229=AXIS2_PLACEMENT_3D('',#341,#274,#275);
#230=AXIS2_PLACEMENT_3D('',#343,#276,#277);
#231=AXIS2_PLACEMENT_3D('',#344,#278,#279);
#232=AXIS2_PLACEMENT_3D('',#346,#280,#281);
#233=AXIS2_PLACEMENT_3D('',#347,#282,#283);
#234=AXIS2_PLACEMENT_3D('',#349,#284,#285);
#235=AXIS2_PLACEMENT_3D('',#351,#286,#287);
#236=AXIS2_PLACEMENT_3D('',#353,#288,#289);
#237=AXIS2_PLACEMENT_3D('',#355,#290,#291);
#238=AXIS2_PLACEMENT_3D('',#356,#292,#293);
#239=AXIS2_PLACEMENT_3D('',#357,#294,#295);
#240=AXIS2_PLACEMENT_3D('',#358,#296,#297);
#241=AXIS2_PLACEMENT_3D('',#360,#298,#299);
#242=AXIS2_PLACEMENT_3D('',#361,#300,#301);
#243=AXIS2_PLACEMENT_3D('',#363,#302,#303);
#244=AXIS2_PLACEMENT_3D('',#364,#304,#305);
#245=AXIS2_PLACEMENT_3D('',#366,#306,#307);
#246=AXIS2_PLACEMENT_3D('',#367,#308,#309);
#247=AXIS2_PLACEMENT_3D('',#369,#310,#311);
#248=AXIS2_PLACEMENT_3D('',#370,#312,#313);
#249=AXIS2_PLACEMENT_3D('',#372,#314,#315);
#250=AXIS2_PLACEMENT_3D('',#373,#316,#317);
#251=AXIS2_PLACEMENT_3D('',#375,#318,#319);
#252=AXIS2_PLACEMENT_3D('',#376,#320,#321);
#253=AXIS2_PLACEMENT_3D('',#378,#322,#323);
#254=AXIS2_PLACEMENT_3D('',#379,#324,#325);
#255=AXIS2_PLACEMENT_3D('',#381,#326,#327);
#256=DIRECTION('',(0.,0.,1.));
#257=DIRECTION('',(1.,0.,0.));
#258=DIRECTION('',(0.,0.,1.));
#259=DIRECTION('',(1.,0.,0.));
#260=DIRECTION('',(0.,0.,1.));
#261=DIRECTION('',(1.,0.,0.));
#262=DIRECTION('',(0.,0.,1.));
#263=DIRECTION('',(1.,0.,0.));
#264=DIRECTION('',(0.,0.,1.));
#265=DIRECTION('',(1.,0.,0.));
#266=DIRECTION('',(0.,0.,1.));
#267=DIRECTION('',(1.,0.,0.));
#268=DIRECTION('',(0.,0.,1.));
#269=DIRECTION('',(1.,0.,0.));
#270=DIRECTION('',(0.,0.,-1.));
#271=DIRECTION('',(-1.,0.,0.));
#272=DIRECTION('',(0.,0.,1.));
#273=DIRECTION('',(1.,0.,0.));
#274=DIRECTION('',(0.,0.,1.));
#275=DIRECTION('',(1.,0.,0.));
#276=DIRECTION('',(0.,0.,-1.));
#277=DIRECTION('',(1.,0.,0.));
#278=DIRECTION('',(0.,0.,1.));
#279=DIRECTION('',(1.,0.,0.));
#280=DIRECTION('',(0.,0.,1.));
#281=DIRECTION('',(1.,0.,0.));
#282=DIRECTION('',(0.,0.,1.));
#283=DIRECTION('',(1.,0.,0.));
#284=DIRECTION('',(0.,0.,1.));
#285=DIRECTION('',(1.,0.,0.));
#286=DIRECTION('',(0.,0.,1.));
#287=DIRECTION('',(1.,0.,0.));
#288=DIRECTION('',(0.,0.,1.));
#289=DIRECTION('',(1.,0.,0.));
#290=DIRECTION('',(0.,0.,1.));
#291=DIRECTION('',(1.,0.,0.));
#292=DIRECTION('',(0.,0.,1.));
#293=DIRECTION('',(1.,0.,0.));
#294=DIRECTION('',(0.,0.,1.));
#295=DIRECTION('',(1.,0.,0.));
#296=DIRECTION('',(0.,0.,1.));
#297=DIRECTION('',(1.,0.,0.));
#298=DIRECTION('',(0.,0.,1.));
#299=DIRECTION('',(1.,0.,0.));
#300=DIRECTION('',(0.,0.,1.));
#301=DIRECTION('',(1.,0.,0.));
#302=DIRECTION('',(0.,0.,1.));
#303=DIRECTION('',(1.,0.,0.));
#304=DIRECTION('',(0.,0.,1.));
#305=DIRECTION('',(1.,0.,0.));
#306=DIRECTION('',(0.,0.,1.));
#307=DIRECTION('',(1.,0.,0.));
#308=DIRECTION('',(0.,0.,1.));
#309=DIRECTION('',(1.,0.,0.));
#310=DIRECTION('',(0.,0.,1.));
#311=DIRECTION('',(1.,0.,0.));
#312=DIRECTION('',(0.,0.,1.));
#313=DIRECTION('',(1.,0.,0.));
#314=DIRECTION('',(0.,0.,1.));
#315=DIRECTION('',(1.,0.,0.));
#316=DIRECTION('',(0.,0.,1.));
#317=DIRECTION('',(1.,0.,0.));
#318=DIRECTION('',(0.,0.,-1.));
#319=DIRECTION('',(1.,0.,0.));
#320=DIRECTION('',(0.,0.,1.));
#321=DIRECTION('',(1.,0.,0.));
#322=DIRECTION('',(0.,0.,1.));
#323=DIRECTION('',(1.,0.,0.));
#324=DIRECTION('',(0.,0.,1.));
#325=DIRECTION('',(1.,0.,0.));
#326=DIRECTION('',(0.,0.,1.));
#327=DIRECTION('',(1.,0.,0.));
#328=CARTESIAN_POINT('',(0.,0.,0.));
#329=CARTESIAN_POINT('',(0.,0.,0.039));
#330=CARTESIAN_POINT('',(0.,0.,0.04899));
#331=CARTESIAN_POINT('',(0.01,0.,0.04899));
#332=CARTESIAN_POINT('',(0.,0.,0.049));
#333=CARTESIAN_POINT('',(0.01,0.,0.049));
#334=CARTESIAN_POINT('',(0.,0.,0.00301));
#335=CARTESIAN_POINT('',(0.,0.,0.00301));
#336=CARTESIAN_POINT('',(0.0243,0.,0.00301));
#337=CARTESIAN_POINT('',(0.,0.,0.013));
#338=CARTESIAN_POINT('',(0.,0.,0.0131942821960184));
#339=CARTESIAN_POINT('',(-0.0342881106535878,0.,0.0131942821960184));
#340=CARTESIAN_POINT('',(0.,0.,0.01341381475676));
#341=CARTESIAN_POINT('',(0.,0.,0.026));
#342=CARTESIAN_POINT('',(0.0360655178434108,0.,0.026));
#343=CARTESIAN_POINT('',(0.,0.,0.02558618524324));
#344=CARTESIAN_POINT('',(0.,0.,0.0388057178039816));
#345=CARTESIAN_POINT('',(0.0342881106535878,0.,0.0388057178039816));
#346=CARTESIAN_POINT('',(0.,0.,0.04899));
#347=CARTESIAN_POINT('',(3.02756251041627E-18,0.016,0.04899));
#348=CARTESIAN_POINT('',(0.0023,0.016,0.04899));
#349=CARTESIAN_POINT('',(0.013856406460552,-0.00799999999999941,0.04899));
#350=CARTESIAN_POINT('',(0.0161564064605529,-0.00799999999999941,0.04899));
#351=CARTESIAN_POINT('',(-0.01385640646055,-0.00800000000000059,0.04899));
#352=CARTESIAN_POINT('',(-0.0115564064605487,-0.00800000000000059,0.04899));
#353=CARTESIAN_POINT('',(0.,0.,0.04899));
#354=CARTESIAN_POINT('',(0.0243,0.,0.04899));
#355=CARTESIAN_POINT('',(0.,0.,0.039));
#356=CARTESIAN_POINT('',(0.,0.,0.049));
#357=CARTESIAN_POINT('',(-0.01385640646055,-0.00800000000000059,0.047));
#358=CARTESIAN_POINT('',(-0.01385640646055,-0.00800000000000059,0.052));
#359=CARTESIAN_POINT('',(-0.0115564064605487,-0.00800000000000059,0.052));
#360=CARTESIAN_POINT('',(0.013856406460552,-0.00799999999999941,0.047));
#361=CARTESIAN_POINT('',(0.013856406460552,-0.00799999999999941,0.052));
#362=CARTESIAN_POINT('',(0.0161564064605529,-0.00799999999999941,0.052));
#363=CARTESIAN_POINT('',(3.02756251041627E-18,0.016,0.047));
#364=CARTESIAN_POINT('',(3.02756251041627E-18,0.016,0.052));
#365=CARTESIAN_POINT('',(0.0023,0.016,0.052));
#366=CARTESIAN_POINT('',(0.,0.,0.));
#367=CARTESIAN_POINT('',(0.,0.,0.));
#368=CARTESIAN_POINT('',(0.0243,0.,0.));
#369=CARTESIAN_POINT('',(0.,0.,0.013));
#370=CARTESIAN_POINT('',(0.,0.,0.013));
#371=CARTESIAN_POINT('',(0.0373,0.,0.013));
#372=CARTESIAN_POINT('',(0.,0.,0.013));
#373=CARTESIAN_POINT('',(0.,0.,0.026));
#374=CARTESIAN_POINT('',(0.0391043731574745,0.,0.026));
#375=CARTESIAN_POINT('',(0.,0.,0.026));
#376=CARTESIAN_POINT('',(0.,0.,0.039));
#377=CARTESIAN_POINT('',(0.0373,0.,0.039));
#378=CARTESIAN_POINT('',(0.,0.,0.039));
#379=CARTESIAN_POINT('',(0.,0.,0.052));
#380=CARTESIAN_POINT('',(0.0243,0.,0.052));
#381=CARTESIAN_POINT('',(0.,0.,0.052));
#382=MECHANICAL_DESIGN_GEOMETRIC_PRESENTATION_REPRESENTATION('',(#209),
#383);
#383=(
GEOMETRIC_REPRESENTATION_CONTEXT(3)
GLOBAL_UNCERTAINTY_ASSIGNED_CONTEXT((#384))
GLOBAL_UNIT_ASSIGNED_CONTEXT((#387,#386,#385))
REPRESENTATION_CONTEXT('Part 1','TOP_LEVEL_ASSEMBLY_PART')
);
#384=UNCERTAINTY_MEASURE_WITH_UNIT(LENGTH_MEASURE(1.E-8),#387,
'DISTANCE_ACCURACY_VALUE','Maximum Tolerance applied to model');
#385=(
NAMED_UNIT(*)
SI_UNIT($,.STERADIAN.)
SOLID_ANGLE_UNIT()
);
#386=(
NAMED_UNIT(*)
PLANE_ANGLE_UNIT()
SI_UNIT($,.RADIAN.)
);
#387=(
LENGTH_UNIT()
NAMED_UNIT(*)
SI_UNIT($,.METRE.)
);
#388=PRODUCT_DEFINITION_SHAPE('','',#389);
#389=PRODUCT_DEFINITION('','',#391,#390);
#390=PRODUCT_DEFINITION_CONTEXT('',#397,'design');
#391=PRODUCT_DEFINITION_FORMATION_WITH_SPECIFIED_SOURCE('','',#393,
 .NOT_KNOWN.);
#392=PRODUCT_RELATED_PRODUCT_CATEGORY('','',(#393));
#393=PRODUCT('Part 1','Part 1','Part 1',(#395));
#394=PRODUCT_CATEGORY('','');
#395=PRODUCT_CONTEXT('',#397,'mechanical');
#396=APPLICATION_PROTOCOL_DEFINITION('international standard',
'ap242_managed_model_based_3d_engineering',2020,#397);
#397=APPLICATION_CONTEXT('managed model based 3d engineering');
ENDSEC;
END-ISO-10303-21;
