ISO-10303-21;
HEADER;
FILE_DESCRIPTION (( 'STEP AP203' ),
    '1' );
FILE_NAME ('Деталь Шайба Крепсс.STEP',
    '2026-08-28T09:14:49',
    ( '' ),
    ( '' ),
    'SwSTEP 2.0',
    'SolidWorks 2024',
    '' );
FILE_SCHEMA (( 'CONFIG_CONTROL_DESIGN' ));
ENDSEC;

DATA;
#1 = ORIENTED_EDGE ( 'NONE', *, *, #599, .T. ) ;
#2 = EDGE_CURVE ( 'NONE', #1223, #634, #477, .T. ) ;
#3 = DIRECTION ( 'NONE',  ( 0.8660254037844398178, 0.4999999999999978351, 0.000000000000000000 ) ) ;
#4 = LINE ( 'NONE', #839, #1131 ) ;
#5 = CARTESIAN_POINT ( 'NONE',  ( 0.000000000000000000, 0.000000000000000000, 6.999999999999999112 ) ) ;
#6 = DIRECTION ( 'NONE',  ( 1.000000000000000000, 0.000000000000000000, -0.000000000000000000 ) ) ;
#7 = ADVANCED_FACE ( 'NONE', ( #459 ), #1108, .T. ) ;
#8 = PLANE ( 'NONE',  #423 ) ;
#9 = AXIS2_PLACEMENT_3D ( 'NONE', #948, #737, #1347 ) ;
#10 = FACE_OUTER_BOUND ( 'NONE', #1118, .T. ) ;
#11 = FACE_OUTER_BOUND ( 'NONE', #832, .T. ) ;
#12 = EDGE_CURVE ( 'NONE', #145, #976, #1261, .T. ) ;
#13 = LINE ( 'NONE', #830, #368 ) ;
#14 = APPROVAL_PERSON_ORGANIZATION ( #618, #1051, #295 ) ;
#15 = DIRECTION ( 'NONE',  ( 1.000000000000000000, 0.000000000000000000, -0.000000000000000000 ) ) ;
#16 = DIRECTION ( 'NONE',  ( 1.000000000000000000, 0.000000000000000000, 0.000000000000000000 ) ) ;
#17 = CARTESIAN_POINT ( 'NONE',  ( 13.89831226876605008, -9.238313885582289942, 7.000000000000000000 ) ) ;
#18 = FACE_OUTER_BOUND ( 'NONE', #47, .T. ) ;
#19 = ORIENTED_EDGE ( 'NONE', *, *, #32, .T. ) ;
#20 = ADVANCED_FACE ( 'NONE', ( #1201 ), #485, .T. ) ;
#21 = DIRECTION ( 'NONE',  ( -0.000000000000000000, -0.000000000000000000, -1.000000000000000000 ) ) ;
#22 = EDGE_CURVE ( 'NONE', #30, #97, #361, .T. ) ;
#23 = AXIS2_PLACEMENT_3D ( 'NONE', #775, #883, #546 ) ;
#24 = CARTESIAN_POINT ( 'NONE',  ( 0.000000000000000000, 0.000000000000000000, 4.000000000000000000 ) ) ;
#25 = DIRECTION ( 'NONE',  ( 1.000000000000000000, 0.000000000000000000, -0.000000000000000000 ) ) ;
#26 = ORIENTED_EDGE ( 'NONE', *, *, #1172, .T. ) ;
#27 = AXIS2_PLACEMENT_3D ( 'NONE', #189, #352, #702 ) ;
#28 = VECTOR ( 'NONE', #990, 1000.000000000000000 ) ;
#29 = CARTESIAN_POINT ( 'NONE',  ( -15.30674155176769879, -7.623231799400319808, 4.000000000000000000 ) ) ;
#30 = VERTEX_POINT ( 'NONE', #157 ) ;
#31 = DIRECTION ( 'NONE',  ( 1.000000000000000000, 0.000000000000000000, 0.000000000000000000 ) ) ;
#32 = EDGE_CURVE ( 'NONE', #682, #672, #266, .T. ) ;
#33 = DIRECTION ( 'NONE',  ( 0.000000000000000000, 0.000000000000000000, 1.000000000000000000 ) ) ;
#34 = ORIENTED_EDGE ( 'NONE', *, *, #1334, .F. ) ;
#35 = DIRECTION ( 'NONE',  ( -0.000000000000000000, -0.000000000000000000, -1.000000000000000000 ) ) ;
#36 = EDGE_LOOP ( 'NONE', ( #985, #503 ) ) ;
#37 = LINE ( 'NONE', #961, #400 ) ;
#38 = AXIS2_PLACEMENT_3D ( 'NONE', #464, #700, #1006 ) ;
#39 = VERTEX_POINT ( 'NONE', #1177 ) ;
#40 = DIRECTION ( 'NONE',  ( 0.8660254037844364872, -0.5000000000000038858, 0.000000000000000000 ) ) ;
#41 = AXIS2_PLACEMENT_3D ( 'NONE', #45, #244, #655 ) ;
#42 = CARTESIAN_POINT ( 'NONE',  ( -22.02987696341623547, 11.70450291189972170, 4.000000000000000000 ) ) ;
#43 = FACE_OUTER_BOUND ( 'NONE', #401, .T. ) ;
#44 = ORIENTED_EDGE ( 'NONE', *, *, #205, .T. ) ;
#45 = CARTESIAN_POINT ( 'NONE',  ( 24.49999999999999645, 0.000000000000000000, 3.000000000000000000 ) ) ;
#46 = CARTESIAN_POINT ( 'NONE',  ( 0.000000000000000000, 0.000000000000000000, 7.000000000000000000 ) ) ;
#47 = EDGE_LOOP ( 'NONE', ( #353, #253, #1310, #891, #777, #989, #550, #377, #893, #1197, #26, #162, #1328, #656, #808, #1317 ) ) ;
#48 = DIRECTION ( 'NONE',  ( -0.000000000000000000, -0.000000000000000000, -1.000000000000000000 ) ) ;
#49 = AXIS2_PLACEMENT_3D ( 'NONE', #873, #340, #16 ) ;
#50 = DIRECTION ( 'NONE',  ( 1.000000000000000000, 0.000000000000000000, 0.000000000000000000 ) ) ;
#51 = ORIENTED_EDGE ( 'NONE', *, *, #1304, .T. ) ;
#52 = VERTEX_POINT ( 'NONE', #1003 ) ;
#53 = VECTOR ( 'NONE', #370, 1000.000000000000000 ) ;
#54 = EDGE_CURVE ( 'NONE', #192, #108, #239, .T. ) ;
#55 = CARTESIAN_POINT ( 'NONE',  ( 0.000000000000000000, 0.000000000000000000, 7.100000000000000533 ) ) ;
#56 = AXIS2_PLACEMENT_3D ( 'NONE', #96, #1331, #1122 ) ;
#57 = ORIENTED_EDGE ( 'NONE', *, *, #12, .F. ) ;
#58 = DIRECTION ( 'NONE',  ( -0.000000000000000000, 0.000000000000000000, 1.000000000000000000 ) ) ;
#59 = AXIS2_PLACEMENT_3D ( 'NONE', #121, #534, #232 ) ;
#60 = DIRECTION ( 'NONE',  ( -0.000000000000000000, -0.000000000000000000, -1.000000000000000000 ) ) ;
#61 = VERTEX_POINT ( 'NONE', #694 ) ;
#62 = VECTOR ( 'NONE', #115, 1000.000000000000000 ) ;
#63 = ORIENTED_EDGE ( 'NONE', *, *, #742, .T. ) ;
#64 = FACE_OUTER_BOUND ( 'NONE', #679, .T. ) ;
#65 = ORIENTED_EDGE ( 'NONE', *, *, #512, .T. ) ;
#66 = EDGE_CURVE ( 'NONE', #890, #1117, #820, .T. ) ;
#67 = LINE ( 'NONE', #481, #555 ) ;
#68 = CARTESIAN_POINT ( 'NONE',  ( -27.49999999999999645, 0.000000000000000000, 3.000000000000000000 ) ) ;
#69 = DIRECTION ( 'NONE',  ( -1.000000000000000000, -2.358318100220232193E-16, 0.000000000000000000 ) ) ;
#70 = EDGE_LOOP ( 'NONE', ( #993, #489, #1227, #338 ) ) ;
#71 = ORIENTED_EDGE ( 'NONE', *, *, #802, .F. ) ;
#72 = ORIENTED_EDGE ( 'NONE', *, *, #386, .T. ) ;
#73 = CARTESIAN_POINT ( 'NONE',  ( 27.49999999999999645, 3.367778697655220913E-15, 7.100000000000000533 ) ) ;
#74 = VERTEX_POINT ( 'NONE', #574 ) ;
#75 = EDGE_CURVE ( 'NONE', #74, #149, #785, .T. ) ;
#76 = DIRECTION ( 'NONE',  ( -0.000000000000000000, -0.000000000000000000, -1.000000000000000000 ) ) ;
#77 = ADVANCED_FACE ( 'NONE', ( #1193 ), #967, .T. ) ;
#78 = DIRECTION ( 'NONE',  ( 1.000000000000000000, 0.000000000000000000, 0.000000000000000000 ) ) ;
#79 = CYLINDRICAL_SURFACE ( 'NONE', #225, 14.00000000000000000 ) ;
#80 = ORIENTED_EDGE ( 'NONE', *, *, #639, .F. ) ;
#81 = AXIS2_PLACEMENT_3D ( 'NONE', #272, #282, #910 ) ;
#82 = ORIENTED_EDGE ( 'NONE', *, *, #264, .T. ) ;
#83 = CARTESIAN_POINT ( 'NONE',  ( 0.000000000000000000, 0.000000000000000000, 3.000000000000000000 ) ) ;
#84 = DIRECTION ( 'NONE',  ( 0.000000000000000000, 0.000000000000000000, 1.000000000000000000 ) ) ;
#85 = CARTESIAN_POINT ( 'NONE',  ( 24.49999999999999645, 0.000000000000000000, 0.000000000000000000 ) ) ;
#86 = EDGE_CURVE ( 'NONE', #589, #1266, #1226, .T. ) ;
#87 = ORIENTED_EDGE ( 'NONE', *, *, #834, .F. ) ;
#88 = PERSON_AND_ORGANIZATION_ROLE ( 'creator' ) ;
#89 = VERTEX_POINT ( 'NONE', #85 ) ;
#90 = CARTESIAN_POINT ( 'NONE',  ( 14.94977064743179440, 7.417134551689224864, 7.000000000000000000 ) ) ;
#91 = ORIENTED_EDGE ( 'NONE', *, *, #255, .T. ) ;
#92 = EDGE_CURVE ( 'NONE', #141, #1109, #200, .T. ) ;
#93 = ORIENTED_EDGE ( 'NONE', *, *, #710, .F. ) ;
#94 = SECURITY_CLASSIFICATION ( '', '', #497 ) ;
#95 = APPLICATION_PROTOCOL_DEFINITION ( 'international standard', 'config_control_design', 1994, #1323 ) ;
#96 = CARTESIAN_POINT ( 'NONE',  ( 0.000000000000000000, 0.000000000000000000, 4.000000000000000000 ) ) ;
#97 = VERTEX_POINT ( 'NONE', #619 ) ;
#98 = DIRECTION ( 'NONE',  ( 0.000000000000000000, 0.000000000000000000, 1.000000000000000000 ) ) ;
#99 = EDGE_CURVE ( 'NONE', #257, #1233, #1017, .T. ) ;
#100 = AXIS2_PLACEMENT_3D ( 'NONE', #1211, #705, #1116 ) ;
#101 = VECTOR ( 'NONE', #1079, 1000.000000000000000 ) ;
#102 = ORIENTED_EDGE ( 'NONE', *, *, #731, .F. ) ;
#103 = APPROVAL_STATUS ( 'not_yet_approved' ) ;
#104 = CARTESIAN_POINT ( 'NONE',  ( 0.000000000000000000, 0.000000000000000000, 4.000000000000000000 ) ) ;
#105 = EDGE_CURVE ( 'NONE', #1325, #343, #798, .T. ) ;
#106 = AXIS2_PLACEMENT_3D ( 'NONE', #422, #131, #750 ) ;
#107 = VECTOR ( 'NONE', #577, 1000.000000000000000 ) ;
#108 = VERTEX_POINT ( 'NONE', #610 ) ;
#109 = PLANE ( 'NONE',  #872 ) ;
#110 = DIRECTION ( 'NONE',  ( -0.8660254037844083985, -0.5000000000000525135, 0.000000000000000000 ) ) ;
#111 = DIRECTION ( 'NONE',  ( 0.000000000000000000, 0.000000000000000000, 1.000000000000000000 ) ) ;
#112 = AXIS2_PLACEMENT_3D ( 'NONE', #740, #440, #210 ) ;
#113 = EDGE_CURVE ( 'NONE', #576, #1064, #807, .T. ) ;
#114 = ORIENTED_EDGE ( 'NONE', *, *, #1172, .F. ) ;
#115 = DIRECTION ( 'NONE',  ( -0.000000000000000000, -0.000000000000000000, -1.000000000000000000 ) ) ;
#116 = CIRCLE ( 'NONE', #164, 7.875000000000000000 ) ;
#117 = CYLINDRICAL_SURFACE ( 'NONE', #351, 7.875000000000000000 ) ;
#118 = AXIS2_PLACEMENT_3D ( 'NONE', #565, #1099, #583 ) ;
#119 = DIRECTION ( 'NONE',  ( -0.4999999999999978351, 0.8660254037844399289, 0.000000000000000000 ) ) ;
#120 = EDGE_CURVE ( 'NONE', #1332, #153, #1105, .T. ) ;
#121 = CARTESIAN_POINT ( 'NONE',  ( 0.000000000000000000, 0.000000000000000000, 4.000000000000000000 ) ) ;
#122 = LINE ( 'NONE', #938, #1283 ) ;
#123 = DIRECTION ( 'NONE',  ( -0.000000000000000000, 0.000000000000000000, 1.000000000000000000 ) ) ;
#124 = PLANE ( 'NONE',  #1271 ) ;
#125 = EDGE_CURVE ( 'NONE', #52, #145, #613, .T. ) ;
#126 = PLANE ( 'NONE',  #715 ) ;
#127 = ORIENTED_EDGE ( 'NONE', *, *, #1224, .T. ) ;
#128 = LOCAL_TIME ( 16, 14, 49.00000000000000000, #1235 ) ;
#129 = DIRECTION ( 'NONE',  ( 0.000000000000000000, 0.000000000000000000, 1.000000000000000000 ) ) ;
#130 = CARTESIAN_POINT ( 'NONE',  ( 14.25528317310191184, -9.444411133293463934, 6.999999999999999112 ) ) ;
#131 = DIRECTION ( 'NONE',  ( 1.224646799147353207E-16, 1.000000000000000000, -0.000000000000000000 ) ) ;
#132 = ORIENTED_EDGE ( 'NONE', *, *, #1322, .F. ) ;
#133 = FACE_OUTER_BOUND ( 'NONE', #1189, .T. ) ;
#134 = EDGE_LOOP ( 'NONE', ( #1031, #507, #72, #51, #901, #558 ) ) ;
#135 = EDGE_CURVE ( 'NONE', #180, #682, #850, .T. ) ;
#136 = DIRECTION ( 'NONE',  ( 0.000000000000000000, -0.000000000000000000, -1.000000000000000000 ) ) ;
#137 = VECTOR ( 'NONE', #806, 1000.000000000000000 ) ;
#138 = CARTESIAN_POINT ( 'NONE',  ( 0.000000000000000000, 0.000000000000000000, 4.000000000000000000 ) ) ;
#139 = DIRECTION ( 'NONE',  ( 0.000000000000000000, 0.000000000000000000, 1.000000000000000000 ) ) ;
#140 = DIRECTION ( 'NONE',  ( -0.000000000000000000, -0.000000000000000000, -1.000000000000000000 ) ) ;
#141 = VERTEX_POINT ( 'NONE', #509 ) ;
#142 = VECTOR ( 'NONE', #939, 1000.000000000000000 ) ;
#143 = CYLINDRICAL_SURFACE ( 'NONE', #293, 24.50000000000000000 ) ;
#144 = CARTESIAN_POINT ( 'NONE',  ( -14.00000000000000000, 1.714505518806294244E-15, 4.000000000000000000 ) ) ;
#145 = VERTEX_POINT ( 'NONE', #1011 ) ;
#146 = CARTESIAN_POINT ( 'NONE',  ( -7.875000000000000000, 0.000000000000000000, 4.000000000000000000 ) ) ;
#147 = CARTESIAN_POINT ( 'NONE',  ( -21.64324740621832888, 11.48128223297483608, 4.000000000000000000 ) ) ;
#148 = ORIENTED_EDGE ( 'NONE', *, *, #828, .F. ) ;
#149 = VERTEX_POINT ( 'NONE', #720 ) ;
#150 = LINE ( 'NONE', #568, #1229 ) ;
#151 = AXIS2_PLACEMENT_3D ( 'NONE', #759, #339, #836 ) ;
#152 = DIRECTION ( 'NONE',  ( 1.000000000000000000, 0.000000000000000000, 0.000000000000000000 ) ) ;
#153 = VERTEX_POINT ( 'NONE', #283 ) ;
#154 = CARTESIAN_POINT ( 'NONE',  ( 20.76470578488417118, 13.00296095768949911, 0.9000000000000002442 ) ) ;
#155 = APPROVAL_PERSON_ORGANIZATION ( #1344, #178, #622 ) ;
#156 = FACE_OUTER_BOUND ( 'NONE', #920, .T. ) ;
#157 = CARTESIAN_POINT ( 'NONE',  ( 14.00000000000000000, 0.000000000000000000, 4.000000000000000000 ) ) ;
#158 = EDGE_CURVE ( 'NONE', #180, #524, #1219, .T. ) ;
#159 = EDGE_LOOP ( 'NONE', ( #1203, #310, #1123, #773, #709, #496, #1007, #1146, #1138, #275, #167, #606, #739, #1346, #1333, #1324 ) ) ;
#160 = CYLINDRICAL_SURFACE ( 'NONE', #466, 27.49999999999999645 ) ;
#161 = DIRECTION ( 'NONE',  ( 1.000000000000000000, 0.000000000000000000, 0.000000000000000000 ) ) ;
#162 = ORIENTED_EDGE ( 'NONE', *, *, #1213, .F. ) ;
#163 = DIRECTION ( 'NONE',  ( 1.000000000000000000, 0.000000000000000000, 0.000000000000000000 ) ) ;
#164 = AXIS2_PLACEMENT_3D ( 'NONE', #24, #458, #1062 ) ;
#165 = FACE_OUTER_BOUND ( 'NONE', #1110, .T. ) ;
#166 = DIRECTION ( 'NONE',  ( 0.000000000000000000, 0.000000000000000000, 1.000000000000000000 ) ) ;
#167 = ORIENTED_EDGE ( 'NONE', *, *, #995, .F. ) ;
#168 = ADVANCED_FACE ( 'NONE', ( #305 ), #79, .F. ) ;
#169 = VERTEX_POINT ( 'NONE', #726 ) ;
#170 = PLANE ( 'NONE',  #38 ) ;
#171 = VECTOR ( 'NONE', #399, 1000.000000000000000 ) ;
#172 = VERTEX_POINT ( 'NONE', #1132 ) ;
#173 = DIRECTION ( 'NONE',  ( 1.000000000000000000, 0.000000000000000000, 0.000000000000000000 ) ) ;
#174 = LINE ( 'NONE', #1001, #1342 ) ;
#175 = PLANE ( 'NONE',  #316 ) ;
#176 = CARTESIAN_POINT ( 'NONE',  ( 0.000000000000000000, 0.000000000000000000, 4.000000000000000000 ) ) ;
#177 = ORIENTED_EDGE ( 'NONE', *, *, #374, .T. ) ;
#178 = APPROVAL ( #203, 'UNSPECIFIED' ) ;
#179 = PLANE ( 'NONE',  #915 ) ;
#180 = VERTEX_POINT ( 'NONE', #1026 ) ;
#181 = EDGE_CURVE ( 'NONE', #1279, #196, #821, .T. ) ;
#182 = CARTESIAN_POINT ( 'NONE',  ( 0.000000000000000000, 0.000000000000000000, 0.9000000000000002442 ) ) ;
#183 = FACE_BOUND ( 'NONE', #804, .T. ) ;
#184 = FACE_OUTER_BOUND ( 'NONE', #900, .T. ) ;
#185 = LOCAL_TIME ( 16, 14, 49.00000000000000000, #1222 ) ;
#186 = ORIENTED_EDGE ( 'NONE', *, *, #334, .T. ) ;
#187 = ORIENTED_EDGE ( 'NONE', *, *, #587, .T. ) ;
#188 = ADVANCED_FACE ( 'NONE', ( #184 ), #713, .F. ) ;
#189 = CARTESIAN_POINT ( 'NONE',  ( 0.000000000000000000, 0.000000000000000000, 7.100000000000000533 ) ) ;
#190 = DIRECTION ( 'NONE',  ( 1.000000000000000000, 0.000000000000000000, 0.000000000000000000 ) ) ;
#191 = DIRECTION ( 'NONE',  ( -0.5000000000000101030, -0.8660254037844329345, 0.000000000000000000 ) ) ;
#192 = VERTEX_POINT ( 'NONE', #796 ) ;
#193 = DATE_AND_TIME ( #1029, #236 ) ;
#194 = EDGE_LOOP ( 'NONE', ( #978, #486, #662, #1299 ) ) ;
#195 = CARTESIAN_POINT ( 'NONE',  ( 0.000000000000000000, 0.000000000000000000, 0.9000000000000002442 ) ) ;
#196 = VERTEX_POINT ( 'NONE', #1113 ) ;
#197 = ORIENTED_EDGE ( 'NONE', *, *, #75, .T. ) ;
#198 = CIRCLE ( 'NONE', #9, 14.00000000000000000 ) ;
#199 = DATE_AND_TIME ( #1327, #541 ) ;
#200 = LINE ( 'NONE', #905, #468 ) ;
#201 = ORIENTED_EDGE ( 'NONE', *, *, #1322, .T. ) ;
#202 = EDGE_CURVE ( 'NONE', #301, #204, #1032, .T. ) ;
#203 = APPROVAL_STATUS ( 'not_yet_approved' ) ;
#204 = VERTEX_POINT ( 'NONE', #68 ) ;
#205 = EDGE_CURVE ( 'NONE', #1005, #39, #437, .T. ) ;
#206 = AXIS2_PLACEMENT_3D ( 'NONE', #231, #369, #1192 ) ;
#207 = CARTESIAN_POINT ( 'NONE',  ( -1.051458378665225624, -17.06764293269386101, 6.999999999999999112 ) ) ;
#208 = CIRCLE ( 'NONE', #738, 24.50000000000000000 ) ;
#209 = ORIENTED_EDGE ( 'NONE', *, *, #1258, .T. ) ;
#210 = DIRECTION ( 'NONE',  ( 1.000000000000000000, 0.000000000000000000, 0.000000000000000000 ) ) ;
#211 = EDGE_CURVE ( 'NONE', #300, #39, #711, .T. ) ;
#212 = DIRECTION ( 'NONE',  ( 0.000000000000000000, 0.000000000000000000, 1.000000000000000000 ) ) ;
#213 = ADVANCED_FACE ( 'NONE', ( #271, #500 ), #909, .T. ) ;
#214 = VECTOR ( 'NONE', #1267, 1000.000000000000000 ) ;
#215 = VERTEX_POINT ( 'NONE', #692 ) ;
#216 = CARTESIAN_POINT ( 'NONE',  ( 0.000000000000000000, 0.000000000000000000, 6.999999999999999112 ) ) ;
#217 = CIRCLE ( 'NONE', #633, 24.50000000000000000 ) ;
#218 = DIRECTION ( 'NONE',  ( -1.000000000000000000, 0.000000000000000000, 0.000000000000000000 ) ) ;
#219 = EDGE_CURVE ( 'NONE', #465, #1064, #865, .T. ) ;
#220 = DIRECTION ( 'NONE',  ( 0.000000000000000000, 0.000000000000000000, 1.000000000000000000 ) ) ;
#221 = CARTESIAN_POINT ( 'NONE',  ( 0.000000000000000000, 0.000000000000000000, 0.000000000000000000 ) ) ;
#222 = AXIS2_PLACEMENT_3D ( 'NONE', #1066, #1265, #673 ) ;
#223 = DIRECTION ( 'NONE',  ( 1.000000000000000000, 0.000000000000000000, -0.000000000000000000 ) ) ;
#224 = CARTESIAN_POINT ( 'NONE',  ( 20.67234446037523199, -13.14930319490708399, 6.999999999999999112 ) ) ;
#225 = AXIS2_PLACEMENT_3D ( 'NONE', #195, #292, #1232 ) ;
#226 = DIRECTION ( 'NONE',  ( 0.000000000000000000, 0.000000000000000000, 1.000000000000000000 ) ) ;
#227 = CIRCLE ( 'NONE', #644, 17.10000000000000142 ) ;
#228 = CARTESIAN_POINT ( 'NONE',  ( 0.8785416213347764236, -24.48424319066412735, 6.999999999999999112 ) ) ;
#229 = AXIS2_PLACEMENT_3D ( 'NONE', #216, #342, #1046 ) ;
#230 = PLANE ( 'NONE',  #632 ) ;
#231 = CARTESIAN_POINT ( 'NONE',  ( 0.000000000000000000, 0.000000000000000000, 4.000000000000000000 ) ) ;
#232 = DIRECTION ( 'NONE',  ( 1.000000000000000000, 0.000000000000000000, 0.000000000000000000 ) ) ;
#233 = EDGE_CURVE ( 'NONE', #153, #204, #174, .T. ) ;
#234 = CYLINDRICAL_SURFACE ( 'NONE', #222, 7.875000000000000000 ) ;
#235 = ORIENTED_EDGE ( 'NONE', *, *, #233, .F. ) ;
#236 = LOCAL_TIME ( 16, 14, 49.00000000000000000, #931 ) ;
#237 = DIRECTION ( 'NONE',  ( 1.000000000000000000, 0.000000000000000000, 0.000000000000000000 ) ) ;
#238 = DIRECTION ( 'NONE',  ( 1.000000000000000000, 0.000000000000000000, 0.000000000000000000 ) ) ;
#239 = LINE ( 'NONE', #249, #1103 ) ;
#240 = PRODUCT_DEFINITION_SHAPE ( 'NONE', 'NONE',  #1292 ) ;
#241 = DIRECTION ( 'NONE',  ( 0.8660254037844328234, -0.5000000000000099920, 0.000000000000000000 ) ) ;
#242 = ORIENTED_EDGE ( 'NONE', *, *, #763, .F. ) ;
#243 = ADVANCED_FACE ( 'NONE', ( #661 ), #382, .F. ) ;
#244 = DIRECTION ( 'NONE',  ( 0.000000000000000000, -1.000000000000000000, 0.000000000000000000 ) ) ;
#245 = EDGE_LOOP ( 'NONE', ( #899, #515, #849, #499 ) ) ;
#246 = LINE ( 'NONE', #1044, #974 ) ;
#247 = AXIS2_PLACEMENT_3D ( 'NONE', #1225, #1002, #484 ) ;
#248 = LINE ( 'NONE', #42, #1049 ) ;
#249 = CARTESIAN_POINT ( 'NONE',  ( -20.76470578488396868, -13.00296095768982063, 0.9000000000000002442 ) ) ;
#250 = VERTEX_POINT ( 'NONE', #490 ) ;
#251 = DIRECTION ( 'NONE',  ( -0.8660254037844083985, -0.5000000000000522915, 0.000000000000000000 ) ) ;
#252 = PLANE ( 'NONE',  #861 ) ;
#253 = ORIENTED_EDGE ( 'NONE', *, *, #135, .T. ) ;
#254 = DIRECTION ( 'NONE',  ( 0.000000000000000000, 1.000000000000000000, 0.000000000000000000 ) ) ;
#255 = EDGE_CURVE ( 'NONE', #250, #257, #752, .T. ) ;
#256 = CARTESIAN_POINT ( 'NONE',  ( -13.89831226876598080, 9.238313885582384088, 7.000000000000000000 ) ) ;
#257 = VERTEX_POINT ( 'NONE', #607 ) ;
#258 = ORIENTED_EDGE ( 'NONE', *, *, #1144, .T. ) ;
#259 = DIRECTION ( 'NONE',  ( 0.000000000000000000, 0.000000000000000000, 1.000000000000000000 ) ) ;
#260 = DIRECTION ( 'NONE',  ( 1.000000000000000000, 0.000000000000000000, 0.000000000000000000 ) ) ;
#261 = VERTEX_POINT ( 'NONE', #1319 ) ;
#262 = LINE ( 'NONE', #375, #28 ) ;
#263 = LOCAL_TIME ( 16, 14, 49.00000000000000000, #1024 ) ;
#264 = EDGE_CURVE ( 'NONE', #89, #215, #1236, .T. ) ;
#265 = FACE_OUTER_BOUND ( 'NONE', #245, .T. ) ;
#266 = LINE ( 'NONE', #776, #302 ) ;
#267 = ORIENTED_EDGE ( 'NONE', *, *, #205, .F. ) ;
#268 =( LENGTH_UNIT ( ) NAMED_UNIT ( * ) SI_UNIT ( .MILLI., .METRE. ) );
#269 = ORIENTED_EDGE ( 'NONE', *, *, #1077, .T. ) ;
#270 = FACE_BOUND ( 'NONE', #1027, .T. ) ;
#271 = FACE_BOUND ( 'NONE', #817, .T. ) ;
#272 = CARTESIAN_POINT ( 'NONE',  ( 0.000000000000000000, 0.000000000000000000, 6.999999999999999112 ) ) ;
#273 = DIRECTION ( 'NONE',  ( -0.8660254037844083985, -0.5000000000000522915, 0.000000000000000000 ) ) ;
#274 = AXIS2_PLACEMENT_3D ( 'NONE', #383, #1210, #897 ) ;
#275 = ORIENTED_EDGE ( 'NONE', *, *, #304, .F. ) ;
#276 = ORIENTED_EDGE ( 'NONE', *, *, #802, .T. ) ;
#277 = EDGE_CURVE ( 'NONE', #455, #1129, #805, .T. ) ;
#278 = AXIS2_PLACEMENT_3D ( 'NONE', #603, #191, #241 ) ;
#279 = CIRCLE ( 'NONE', #1033, 24.50000000000000000 ) ;
#280 = ORIENTED_EDGE ( 'NONE', *, *, #1268, .T. ) ;
#281 = CARTESIAN_POINT ( 'NONE',  ( 0.000000000000000000, 0.000000000000000000, 6.999999999999999112 ) ) ;
#282 = DIRECTION ( 'NONE',  ( -0.000000000000000000, -0.000000000000000000, -1.000000000000000000 ) ) ;
#283 = CARTESIAN_POINT ( 'NONE',  ( -27.49999999999999645, 0.000000000000000000, 7.100000000000000533 ) ) ;
#284 = ORIENTED_EDGE ( 'NONE', *, *, #1008, .T. ) ;
#285 = VECTOR ( 'NONE', #1251, 999.9999999999998863 ) ;
#286 = EDGE_CURVE ( 'NONE', #61, #576, #1160, .T. ) ;
#287 = MECHANICAL_CONTEXT ( 'NONE', #487, 'mechanical' ) ;
#288 = ORIENTED_EDGE ( 'NONE', *, *, #825, .T. ) ;
#289 = AXIS2_PLACEMENT_3D ( 'NONE', #840, #123, #421 ) ;
#290 = DIRECTION ( 'NONE',  ( 0.000000000000000000, 0.000000000000000000, 1.000000000000000000 ) ) ;
#291 = DIRECTION ( 'NONE',  ( 1.000000000000000000, 0.000000000000000000, -0.000000000000000000 ) ) ;
#292 = DIRECTION ( 'NONE',  ( 0.000000000000000000, 0.000000000000000000, 1.000000000000000000 ) ) ;
#293 = AXIS2_PLACEMENT_3D ( 'NONE', #1173, #1274, #1284 ) ;
#294 = ORIENTED_EDGE ( 'NONE', *, *, #1043, .T. ) ;
#295 = APPROVAL_ROLE ( '' ) ;
#296 = EDGE_LOOP ( 'NONE', ( #695, #380 ) ) ;
#297 = VECTOR ( 'NONE', #652, 1000.000000000000000 ) ;
#298 = DIRECTION ( 'NONE',  ( 0.000000000000000000, -1.000000000000000000, 0.000000000000000000 ) ) ;
#299 = VECTOR ( 'NONE', #33, 1000.000000000000000 ) ;
#300 = VERTEX_POINT ( 'NONE', #968 ) ;
#301 = VERTEX_POINT ( 'NONE', #452 ) ;
#302 = VECTOR ( 'NONE', #273, 1000.000000000000227 ) ;
#303 = APPROVAL_STATUS ( 'not_yet_approved' ) ;
#304 = EDGE_CURVE ( 'NONE', #875, #169, #307, .T. ) ;
#305 = FACE_OUTER_BOUND ( 'NONE', #453, .T. ) ;
#306 = ORIENTED_EDGE ( 'NONE', *, *, #1162, .F. ) ;
#307 = CIRCLE ( 'NONE', #647, 24.50000000000000000 ) ;
#308 = CALENDAR_DATE ( 2026, 28, 8 ) ;
#309 = EDGE_CURVE ( 'NONE', #1306, #770, #1056, .T. ) ;
#310 = ORIENTED_EDGE ( 'NONE', *, *, #386, .F. ) ;
#311 = PERSON_AND_ORGANIZATION ( #952, #347 ) ;
#312 = CARTESIAN_POINT ( 'NONE',  ( 0.000000000000000000, 0.000000000000000000, 3.000000000000000000 ) ) ;
#313 = EDGE_CURVE ( 'NONE', #394, #261, #1272, .T. ) ;
#314 = ORIENTED_EDGE ( 'NONE', *, *, #542, .F. ) ;
#315 = EDGE_CURVE ( 'NONE', #1306, #1239, #946, .T. ) ;
#316 = AXIS2_PLACEMENT_3D ( 'NONE', #602, #797, #291 ) ;
#317 = CARTESIAN_POINT ( 'NONE',  ( 0.000000000000000000, 0.000000000000000000, 0.9000000000000002442 ) ) ;
#318 = AXIS2_PLACEMENT_3D ( 'NONE', #5, #136, #237 ) ;
#319 = ORIENTED_EDGE ( 'NONE', *, *, #1231, .T. ) ;
#320 = DIRECTION ( 'NONE',  ( 1.000000000000000000, 0.000000000000000000, 0.000000000000000000 ) ) ;
#321 = ADVANCED_FACE ( 'NONE', ( #329 ), #1053, .F. ) ;
#322 = CARTESIAN_POINT ( 'NONE',  ( 14.25528317310191184, -9.444411133293463934, 4.000000000000000000 ) ) ;
#323 = DIRECTION ( 'NONE',  ( -0.000000000000000000, -0.000000000000000000, -1.000000000000000000 ) ) ;
#324 = AXIS2_PLACEMENT_3D ( 'NONE', #425, #803, #689 ) ;
#325 = DIRECTION ( 'NONE',  ( 0.000000000000000000, 0.000000000000000000, 1.000000000000000000 ) ) ;
#326 = AXIS2_PLACEMENT_3D ( 'NONE', #1130, #98, #516 ) ;
#327 = FACE_OUTER_BOUND ( 'NONE', #1286, .T. ) ;
#328 = CARTESIAN_POINT ( 'NONE',  ( 7.875000000000000000, 9.644093543285406722E-16, 4.000000000000000000 ) ) ;
#329 = FACE_OUTER_BOUND ( 'NONE', #1021, .T. ) ;
#330 = VECTOR ( 'NONE', #1289, 1000.000000000000000 ) ;
#331 = DIRECTION ( 'NONE',  ( -0.000000000000000000, -0.000000000000000000, -1.000000000000000000 ) ) ;
#332 = AXIS2_PLACEMENT_3D ( 'NONE', #874, #166, #1315 ) ;
#333 = LINE ( 'NONE', #446, #743 ) ;
#334 = EDGE_CURVE ( 'NONE', #215, #204, #704, .T. ) ;
#335 = DIRECTION ( 'NONE',  ( 0.8660254037844363761, -0.5000000000000041078, 0.000000000000000000 ) ) ;
#336 = CARTESIAN_POINT ( 'NONE',  ( 0.000000000000000000, 0.000000000000000000, 4.000000000000000000 ) ) ;
#337 = CARTESIAN_POINT ( 'NONE',  ( 0.8785416213347746472, -17.07741680171747944, 4.000000000000000000 ) ) ;
#338 = ORIENTED_EDGE ( 'NONE', *, *, #315, .F. ) ;
#339 = DIRECTION ( 'NONE',  ( 0.000000000000000000, 0.000000000000000000, 1.000000000000000000 ) ) ;
#340 = DIRECTION ( 'NONE',  ( 0.000000000000000000, 0.000000000000000000, 1.000000000000000000 ) ) ;
#341 = ADVANCED_FACE ( 'NONE', ( #540 ), #124, .T. ) ;
#342 = DIRECTION ( 'NONE',  ( -0.000000000000000000, 0.000000000000000000, -1.000000000000000000 ) ) ;
#343 = VERTEX_POINT ( 'NONE', #635 ) ;
#344 = EDGE_CURVE ( 'NONE', #461, #794, #942, .T. ) ;
#345 = FACE_OUTER_BOUND ( 'NONE', #1195, .T. ) ;
#346 = ORIENTED_EDGE ( 'NONE', *, *, #105, .T. ) ;
#347 = ORGANIZATION ( 'UNSPECIFIED', 'UNSPECIFIED', '' ) ;
#348 = CYLINDRICAL_SURFACE ( 'NONE', #1078, 14.00000000000000000 ) ;
#349 = DIRECTION ( 'NONE',  ( 0.8660254037844328234, -0.5000000000000099920, 0.000000000000000000 ) ) ;
#350 = ORIENTED_EDGE ( 'NONE', *, *, #334, .F. ) ;
#351 = AXIS2_PLACEMENT_3D ( 'NONE', #1243, #636, #218 ) ;
#352 = DIRECTION ( 'NONE',  ( -0.000000000000000000, 0.000000000000000000, 1.000000000000000000 ) ) ;
#353 = ORIENTED_EDGE ( 'NONE', *, *, #158, .F. ) ;
#354 = ADVANCED_FACE ( 'NONE', ( #11 ), #846, .T. ) ;
#355 = EDGE_CURVE ( 'NONE', #250, #378, #837, .T. ) ;
#356 = LINE ( 'NONE', #559, #1042 ) ;
#357 = ORIENTED_EDGE ( 'NONE', *, *, #999, .F. ) ;
#358 = VECTOR ( 'NONE', #251, 1000.000000000000227 ) ;
#359 = LINE ( 'NONE', #973, #963 ) ;
#360 = DIRECTION ( 'NONE',  ( -0.8660254037844398178, -0.4999999999999978351, 0.000000000000000000 ) ) ;
#361 = LINE ( 'NONE', #594, #53 ) ;
#362 = ORIENTED_EDGE ( 'NONE', *, *, #995, .T. ) ;
#363 = FACE_OUTER_BOUND ( 'NONE', #1178, .T. ) ;
#364 = DIRECTION ( 'NONE',  ( -0.000000000000000000, 0.000000000000000000, 1.000000000000000000 ) ) ;
#365 = EDGE_LOOP ( 'NONE', ( #714, #148, #880, #1281 ) ) ;
#366 = EDGE_CURVE ( 'NONE', #1112, #180, #227, .T. ) ;
#367 = CARTESIAN_POINT ( 'NONE',  ( 17.10000000000000142, 0.000000000000000000, 7.100000000000000533 ) ) ;
#368 = VECTOR ( 'NONE', #416, 1000.000000000000000 ) ;
#369 = DIRECTION ( 'NONE',  ( 0.000000000000000000, 0.000000000000000000, 1.000000000000000000 ) ) ;
#370 = DIRECTION ( 'NONE',  ( 0.000000000000000000, 0.000000000000000000, 1.000000000000000000 ) ) ;
#371 = ORIENTED_EDGE ( 'NONE', *, *, #22, .F. ) ;
#372 = CARTESIAN_POINT ( 'NONE',  ( 0.000000000000000000, 0.000000000000000000, 4.000000000000000000 ) ) ;
#373 = EDGE_LOOP ( 'NONE', ( #350, #907, #921, #870 ) ) ;
#374 = EDGE_CURVE ( 'NONE', #215, #89, #1037, .T. ) ;
#375 = CARTESIAN_POINT ( 'NONE',  ( -21.64324740621832888, 11.48128223297483252, 0.9000000000000002442 ) ) ;
#376 = DIRECTION ( 'NONE',  ( 0.5000000000000101030, 0.8660254037844329345, -0.000000000000000000 ) ) ;
#377 = ORIENTED_EDGE ( 'NONE', *, *, #286, .F. ) ;
#378 = VERTEX_POINT ( 'NONE', #761 ) ;
#379 = DIRECTION ( 'NONE',  ( 1.000000000000000000, 0.000000000000000000, 0.000000000000000000 ) ) ;
#380 = ORIENTED_EDGE ( 'NONE', *, *, #428, .T. ) ;
#381 = CARTESIAN_POINT ( 'NONE',  ( -0.8785416213343139047, 17.07741680171750431, 6.999999999999999112 ) ) ;
#382 = CYLINDRICAL_SURFACE ( 'NONE', #585, 24.50000000000000000 ) ;
#383 = CARTESIAN_POINT ( 'NONE',  ( 0.000000000000000000, 0.000000000000000000, 0.9000000000000002442 ) ) ;
#384 = CARTESIAN_POINT ( 'NONE',  ( 0.000000000000000000, 0.000000000000000000, 7.000000000000000000 ) ) ;
#385 = AXIS2_PLACEMENT_3D ( 'NONE', #992, #60, #476 ) ;
#386 = EDGE_CURVE ( 'NONE', #793, #141, #1234, .T. ) ;
#387 = ORIENTED_EDGE ( 'NONE', *, *, #313, .T. ) ;
#388 = DIRECTION ( 'NONE',  ( -0.8660254037844398178, -0.4999999999999978351, 0.000000000000000000 ) ) ;
#389 = TOROIDAL_SURFACE ( 'NONE', #628, 24.49999999999999645, 3.000000000000000000 ) ;
#390 = ORIENTED_EDGE ( 'NONE', *, *, #887, .T. ) ;
#391 = DIRECTION ( 'NONE',  ( 1.000000000000000000, 0.000000000000000000, 0.000000000000000000 ) ) ;
#392 = DIRECTION ( 'NONE',  ( -0.8660254037844328234, 0.5000000000000099920, 0.000000000000000000 ) ) ;
#393 = CARTESIAN_POINT ( 'NONE',  ( 0.000000000000000000, 0.000000000000000000, 7.100000000000000533 ) ) ;
#394 = VERTEX_POINT ( 'NONE', #426 ) ;
#395 = APPROVAL_DATE_TIME ( #812, #447 ) ;
#396 = ORIENTED_EDGE ( 'NONE', *, *, #999, .T. ) ;
#397 = CIRCLE ( 'NONE', #151, 7.875000000000000000 ) ;
#398 = CARTESIAN_POINT ( 'NONE',  ( 7.875000000000000000, 9.644093543285406722E-16, 0.000000000000000000 ) ) ;
#399 = DIRECTION ( 'NONE',  ( 0.000000000000000000, 0.000000000000000000, 1.000000000000000000 ) ) ;
#400 = VECTOR ( 'NONE', #1179, 1000.000000000000000 ) ;
#401 = EDGE_LOOP ( 'NONE', ( #688, #412, #1291, #417 ) ) ;
#402 = ORIENTED_EDGE ( 'NONE', *, *, #277, .T. ) ;
#403 = APPROVAL_DATE_TIME ( #708, #1051 ) ;
#404 = EDGE_CURVE ( 'NONE', #548, #61, #951, .T. ) ;
#405 = DIRECTION ( 'NONE',  ( 0.000000000000000000, 0.000000000000000000, 1.000000000000000000 ) ) ;
#406 = VECTOR ( 'NONE', #360, 1000.000000000000114 ) ;
#407 = ORIENTED_EDGE ( 'NONE', *, *, #374, .F. ) ;
#408 = VECTOR ( 'NONE', #1290, 999.9999999999998863 ) ;
#409 = PERSON_AND_ORGANIZATION_ROLE ( 'creator' ) ;
#410 = VECTOR ( 'NONE', #601, 1000.000000000000000 ) ;
#411 = EDGE_CURVE ( 'NONE', #612, #465, #547, .T. ) ;
#412 = ORIENTED_EDGE ( 'NONE', *, *, #608, .T. ) ;
#413 = AXIS2_PLACEMENT_3D ( 'NONE', #1014, #1170, #391 ) ;
#414 = EDGE_CURVE ( 'NONE', #1102, #1072, #460, .T. ) ;
#415 = ORIENTED_EDGE ( 'NONE', *, *, #505, .T. ) ;
#416 = DIRECTION ( 'NONE',  ( -0.000000000000000000, -0.000000000000000000, -1.000000000000000000 ) ) ;
#417 = ORIENTED_EDGE ( 'NONE', *, *, #1058, .F. ) ;
#418 = ADVANCED_FACE ( 'NONE', ( #1039 ), #109, .F. ) ;
#419 = CARTESIAN_POINT ( 'NONE',  ( 0.000000000000000000, 0.000000000000000000, 7.100000000000000533 ) ) ;
#420 = CARTESIAN_POINT ( 'NONE',  ( 20.67234446037522844, -13.14930319490708222, 4.000000000000000000 ) ) ;
#421 = DIRECTION ( 'NONE',  ( 1.000000000000000000, 0.000000000000000000, 0.000000000000000000 ) ) ;
#422 = CARTESIAN_POINT ( 'NONE',  ( -24.49999999999999645, 3.000384657911015074E-15, 3.000000000000000000 ) ) ;
#423 = AXIS2_PLACEMENT_3D ( 'NONE', #424, #1153, #223 ) ;
#424 = CARTESIAN_POINT ( 'NONE',  ( 0.000000000000000000, 0.000000000000000000, 4.000000000000000000 ) ) ;
#425 = CARTESIAN_POINT ( 'NONE',  ( 0.000000000000000000, 0.000000000000000000, 6.999999999999999112 ) ) ;
#426 = CARTESIAN_POINT ( 'NONE',  ( 14.35020597063542347, 9.299547763216201801, 6.999999999999999112 ) ) ;
#427 = DIRECTION ( 'NONE',  ( -1.000000000000000000, 0.000000000000000000, 0.000000000000000000 ) ) ;
#428 = EDGE_CURVE ( 'NONE', #524, #1045, #527, .T. ) ;
#429 = LINE ( 'NONE', #1159, #142 ) ;
#430 = CARTESIAN_POINT ( 'NONE',  ( 20.76470578488417829, 13.00296095768950444, 4.000000000000000000 ) ) ;
#431 = DIRECTION ( 'NONE',  ( 0.5000000000000039968, 0.8660254037844363761, -0.000000000000000000 ) ) ;
#432 = CARTESIAN_POINT ( 'NONE',  ( -1.051458378665225624, -16.65544843727146329, 7.000000000000000000 ) ) ;
#433 = ORIENTED_EDGE ( 'NONE', *, *, #181, .F. ) ;
#434 = AXIS2_PLACEMENT_3D ( 'NONE', #1217, #84, #190 ) ;
#435 = ADVANCED_FACE ( 'NONE', ( #43 ), #117, .F. ) ;
#436 = CARTESIAN_POINT ( 'NONE',  ( 21.64324740621841059, -11.48128223297468331, 6.999999999999999112 ) ) ;
#437 = CIRCLE ( 'NONE', #1207, 17.10000000000000142 ) ;
#438 = CARTESIAN_POINT ( 'NONE',  ( 0.8785416213347765346, -24.93068454851387727, 7.000000000000000000 ) ) ;
#439 = VECTOR ( 'NONE', #457, 1000.000000000000000 ) ;
#440 = DIRECTION ( 'NONE',  ( 0.000000000000000000, 0.000000000000000000, 1.000000000000000000 ) ) ;
#441 = EDGE_LOOP ( 'NONE', ( #1308, #1338, #91, #1125, #567, #930 ) ) ;
#442 = PRODUCT ( '\X2\0414043504420430043b044c\X0\ \X2\04280430043904310430\X0\ \X2\041a04400435043f04410441\X0\', '\X2\0414043504420430043b044c\X0\ \X2\04280430043904310430\X0\ \X2\041a04400435043f04410441\X0\', '', ( #287 ) ) ;
#443 = CARTESIAN_POINT ( 'NONE',  ( -21.15133534208170119, -13.22618163661462987, 4.000000000000000000 ) ) ;
#444 = ORIENTED_EDGE ( 'NONE', *, *, #2, .T. ) ;
#445 = UNCERTAINTY_MEASURE_WITH_UNIT (LENGTH_MEASURE( 1.000000000000000082E-05 ), #268, 'distance_accuracy_value', 'NONE');
#446 = CARTESIAN_POINT ( 'NONE',  ( 14.25528317310190829, -9.444411133293460381, 0.9000000000000002442 ) ) ;
#447 = APPROVAL ( #303, 'UNSPECIFIED' ) ;
#448 = LINE ( 'NONE', #669, #1154 ) ;
#449 = DIRECTION ( 'NONE',  ( 0.000000000000000000, 0.000000000000000000, 1.000000000000000000 ) ) ;
#450 = ADVANCED_FACE ( 'NONE', ( #1252 ), #953, .F. ) ;
#451 = CIRCLE ( 'NONE', #289, 14.00000000000000000 ) ;
#452 = CARTESIAN_POINT ( 'NONE',  ( 27.49999999999999645, 3.367778697655220913E-15, 3.000000000000000000 ) ) ;
#453 = EDGE_LOOP ( 'NONE', ( #994, #357, #1228, #209 ) ) ;
#454 = PLANE ( 'NONE',  #456 ) ;
#455 = VERTEX_POINT ( 'NONE', #420 ) ;
#456 = AXIS2_PLACEMENT_3D ( 'NONE', #432, #970, #848 ) ;
#457 = DIRECTION ( 'NONE',  ( 0.000000000000000000, 0.000000000000000000, 1.000000000000000000 ) ) ;
#458 = DIRECTION ( 'NONE',  ( 0.000000000000000000, 0.000000000000000000, 1.000000000000000000 ) ) ;
#459 = FACE_OUTER_BOUND ( 'NONE', #471, .T. ) ;
#460 = CIRCLE ( 'NONE', #112, 7.875000000000000000 ) ;
#461 = VERTEX_POINT ( 'NONE', #1054 ) ;
#462 = EDGE_CURVE ( 'NONE', #634, #378, #122, .T. ) ;
#463 = DIRECTION ( 'NONE',  ( -0.000000000000000000, -0.000000000000000000, -1.000000000000000000 ) ) ;
#464 = CARTESIAN_POINT ( 'NONE',  ( 0.000000000000000000, 0.000000000000000000, 4.000000000000000000 ) ) ;
#465 = VERTEX_POINT ( 'NONE', #1158 ) ;
#466 = AXIS2_PLACEMENT_3D ( 'NONE', #549, #757, #1164 ) ;
#467 = DIRECTION ( 'NONE',  ( 1.000000000000000000, 0.000000000000000000, 0.000000000000000000 ) ) ;
#468 = VECTOR ( 'NONE', #405, 1000.000000000000000 ) ;
#469 = CARTESIAN_POINT ( 'NONE',  ( 21.72380283904100295, 11.32812386101397095, 4.000000000000000000 ) ) ;
#470 = ORIENTED_EDGE ( 'NONE', *, *, #608, .F. ) ;
#471 = EDGE_LOOP ( 'NONE', ( #649, #1012, #925, #653 ) ) ;
#472 = CARTESIAN_POINT ( 'NONE',  ( 0.000000000000000000, 0.000000000000000000, 7.100000000000000533 ) ) ;
#473 = ORIENTED_EDGE ( 'NONE', *, *, #587, .F. ) ;
#474 = AXIS2_PLACEMENT_3D ( 'NONE', #221, #641, #1247 ) ;
#475 = VECTOR ( 'NONE', #756, 1000.000000000000000 ) ;
#476 = DIRECTION ( 'NONE',  ( -1.000000000000000000, 0.000000000000000000, 0.000000000000000000 ) ) ;
#477 = LINE ( 'NONE', #884, #408 ) ;
#478 = ORIENTED_EDGE ( 'NONE', *, *, #12, .T. ) ;
#479 = FACE_OUTER_BOUND ( 'NONE', #735, .T. ) ;
#480 = ORIENTED_EDGE ( 'NONE', *, *, #1133, .F. ) ;
#481 = CARTESIAN_POINT ( 'NONE',  ( -22.02987696341623547, 11.70450291189972170, 7.000000000000000000 ) ) ;
#482 = ADVANCED_FACE ( 'NONE', ( #1059 ), #126, .F. ) ;
#483 = DIRECTION ( 'NONE',  ( 1.000000000000000000, 0.000000000000000000, 0.000000000000000000 ) ) ;
#484 = DIRECTION ( 'NONE',  ( 1.000000000000000000, 0.000000000000000000, -0.000000000000000000 ) ) ;
#485 = PLANE ( 'NONE',  #332 ) ;
#486 = ORIENTED_EDGE ( 'NONE', *, *, #1238, .T. ) ;
#487 = APPLICATION_CONTEXT ( 'configuration controlled 3d designs of mechanical parts and assemblies' ) ;
#488 =( NAMED_UNIT ( * ) SI_UNIT ( $, .STERADIAN. ) SOLID_ANGLE_UNIT ( ) );
#489 = ORIENTED_EDGE ( 'NONE', *, *, #54, .T. ) ;
#490 = CARTESIAN_POINT ( 'NONE',  ( 21.64324740621841059, -11.48128223297468331, 4.000000000000000000 ) ) ;
#491 = ADVANCED_FACE ( 'NONE', ( #18 ), #835, .T. ) ;
#492 = CARTESIAN_POINT ( 'NONE',  ( 20.76470578488417829, 13.00296095768950444, 6.999999999999999112 ) ) ;
#493 = CARTESIAN_POINT ( 'NONE',  ( -1.051458378665225624, -16.65544843727146329, 7.000000000000000000 ) ) ;
#494 = AXIS2_PLACEMENT_3D ( 'NONE', #703, #376, #392 ) ;
#495 = ORIENTED_EDGE ( 'NONE', *, *, #1058, .T. ) ;
#496 = ORIENTED_EDGE ( 'NONE', *, *, #896, .F. ) ;
#497 = SECURITY_CLASSIFICATION_LEVEL ( 'unclassified' ) ;
#498 = AXIS2_PLACEMENT_3D ( 'NONE', #552, #1050, #15 ) ;
#499 = ORIENTED_EDGE ( 'NONE', *, *, #620, .F. ) ;
#500 = FACE_OUTER_BOUND ( 'NONE', #296, .T. ) ;
#501 = FACE_OUTER_BOUND ( 'NONE', #780, .T. ) ;
#502 = DIRECTION ( 'NONE',  ( 0.000000000000000000, 0.000000000000000000, 1.000000000000000000 ) ) ;
#503 = ORIENTED_EDGE ( 'NONE', *, *, #120, .T. ) ;
#504 = ORIENTED_EDGE ( 'NONE', *, *, #54, .F. ) ;
#505 = EDGE_CURVE ( 'NONE', #794, #1266, #4, .T. ) ;
#506 = SHAPE_DEFINITION_REPRESENTATION ( #240, #598 ) ;
#507 = ORIENTED_EDGE ( 'NONE', *, *, #790, .F. ) ;
#508 = VECTOR ( 'NONE', #388, 1000.000000000000114 ) ;
#509 = CARTESIAN_POINT ( 'NONE',  ( -24.50000000000000000, 3.000384657911015074E-15, 4.000000000000000000 ) ) ;
#510 = VERTEX_POINT ( 'NONE', #1041 ) ;
#511 = VERTEX_POINT ( 'NONE', #322 ) ;
#512 = EDGE_CURVE ( 'NONE', #1325, #30, #198, .T. ) ;
#513 = CALENDAR_DATE ( 2026, 28, 8 ) ;
#514 = CARTESIAN_POINT ( 'NONE',  ( 24.50000000000000000, 0.000000000000000000, 0.9000000000000002442 ) ) ;
#515 = ORIENTED_EDGE ( 'NONE', *, *, #535, .T. ) ;
#516 = DIRECTION ( 'NONE',  ( 1.000000000000000000, 0.000000000000000000, 0.000000000000000000 ) ) ;
#517 = VECTOR ( 'NONE', #1321, 1000.000000000000000 ) ;
#518 = VECTOR ( 'NONE', #502, 1000.000000000000000 ) ;
#519 = ADVANCED_FACE ( 'NONE', ( #327 ), #526, .T. ) ;
#520 = ORIENTED_EDGE ( 'NONE', *, *, #113, .F. ) ;
#521 = DIRECTION ( 'NONE',  ( 0.000000000000000000, 0.000000000000000000, 1.000000000000000000 ) ) ;
#522 = CIRCLE ( 'NONE', #707, 17.10000000000000142 ) ;
#523 = EDGE_CURVE ( 'NONE', #204, #301, #614, .T. ) ;
#524 = VERTEX_POINT ( 'NONE', #631 ) ;
#525 = CARTESIAN_POINT ( 'NONE',  ( 21.15133534208209198, 13.22618163661438473, 7.000000000000000000 ) ) ;
#526 = PLANE ( 'NONE',  #1300 ) ;
#527 = CIRCLE ( 'NONE', #1047, 17.10000000000000142 ) ;
#528 = VECTOR ( 'NONE', #854, 1000.000000000000000 ) ;
#529 = ORIENTED_EDGE ( 'NONE', *, *, #313, .F. ) ;
#530 = CARTESIAN_POINT ( 'NONE',  ( -14.35020597063546610, -9.299547763216123641, 0.9000000000000002442 ) ) ;
#531 = AXIS2_PLACEMENT_3D ( 'NONE', #898, #449, #1070 ) ;
#532 = DIRECTION ( 'NONE',  ( 0.000000000000000000, 0.000000000000000000, 1.000000000000000000 ) ) ;
#533 = FACE_OUTER_BOUND ( 'NONE', #914, .T. ) ;
#534 = DIRECTION ( 'NONE',  ( 0.000000000000000000, 0.000000000000000000, 1.000000000000000000 ) ) ;
#535 = EDGE_CURVE ( 'NONE', #548, #917, #13, .T. ) ;
#536 = CIRCLE ( 'NONE', #727, 24.50000000000000000 ) ;
#537 = DIRECTION ( 'NONE',  ( 1.000000000000000000, 0.000000000000000000, 0.000000000000000000 ) ) ;
#538 = CARTESIAN_POINT ( 'NONE',  ( 17.10000000000000142, 0.000000000000000000, 0.9000000000000002442 ) ) ;
#539 = DIRECTION ( 'NONE',  ( -0.8660254037844328234, 0.5000000000000099920, 0.000000000000000000 ) ) ;
#540 = FACE_OUTER_BOUND ( 'NONE', #723, .T. ) ;
#541 = LOCAL_TIME ( 16, 14, 49.00000000000000000, #1341 ) ;
#542 = EDGE_CURVE ( 'NONE', #1223, #1129, #536, .T. ) ;
#543 = DIRECTION ( 'NONE',  ( 1.000000000000000000, 0.000000000000000000, 0.000000000000000000 ) ) ;
#544 = ORIENTED_EDGE ( 'NONE', *, *, #125, .F. ) ;
#545 = CARTESIAN_POINT ( 'NONE',  ( -0.8785416213343139047, 17.07741680171750076, 0.9000000000000002442 ) ) ;
#546 = DIRECTION ( 'NONE',  ( 1.000000000000000000, 0.000000000000000000, 0.000000000000000000 ) ) ;
#547 = LINE ( 'NONE', #1063, #1120 ) ;
#548 = VERTEX_POINT ( 'NONE', #228 ) ;
#549 = CARTESIAN_POINT ( 'NONE',  ( 0.000000000000000000, 0.000000000000000000, 4.000000000000000000 ) ) ;
#550 = ORIENTED_EDGE ( 'NONE', *, *, #1065, .T. ) ;
#551 = AXIS2_PLACEMENT_3D ( 'NONE', #1305, #1016, #1114 ) ;
#552 = CARTESIAN_POINT ( 'NONE',  ( 0.000000000000000000, 0.000000000000000000, 4.000000000000000000 ) ) ;
#553 = ADVANCED_FACE ( 'NONE', ( #843 ), #8, .T. ) ;
#554 = LINE ( 'NONE', #1176, #924 ) ;
#555 = VECTOR ( 'NONE', #774, 1000.000000000000227 ) ;
#556 = EDGE_LOOP ( 'NONE', ( #786, #127, #981, #604 ) ) ;
#557 = DIRECTION ( 'NONE',  ( 1.000000000000000000, 0.000000000000000000, 0.000000000000000000 ) ) ;
#558 = ORIENTED_EDGE ( 'NONE', *, *, #135, .F. ) ;
#559 = CARTESIAN_POINT ( 'NONE',  ( 7.875000000000000000, 9.644093543285406722E-16, 4.000000000000000000 ) ) ;
#560 = DIRECTION ( 'NONE',  ( 1.000000000000000000, 0.000000000000000000, 0.000000000000000000 ) ) ;
#561 = EDGE_LOOP ( 'NONE', ( #470, #1316, #495, #1134 ) ) ;
#562 = CARTESIAN_POINT ( 'NONE',  ( 0.000000000000000000, 0.000000000000000000, 3.000000000000000000 ) ) ;
#563 = EDGE_CURVE ( 'NONE', #917, #611, #648, .T. ) ;
#564 = CARTESIAN_POINT ( 'NONE',  ( -14.25528317310184256, 9.444411133293563410, 0.9000000000000002442 ) ) ;
#565 = CARTESIAN_POINT ( 'NONE',  ( 0.000000000000000000, 0.000000000000000000, 7.000000000000000000 ) ) ;
#566 = CIRCLE ( 'NONE', #1330, 24.50000000000000000 ) ;
#567 = ORIENTED_EDGE ( 'NONE', *, *, #344, .F. ) ;
#568 = CARTESIAN_POINT ( 'NONE',  ( 27.49999999999999645, 3.367778697655220913E-15, 4.000000000000000000 ) ) ;
#569 = DIRECTION ( 'NONE',  ( 0.000000000000000000, 0.000000000000000000, 1.000000000000000000 ) ) ;
#570 = ORIENTED_EDGE ( 'NONE', *, *, #92, .T. ) ;
#571 = VECTOR ( 'NONE', #1140, 1000.000000000000000 ) ;
#572 = FACE_OUTER_BOUND ( 'NONE', #36, .T. ) ;
#573 = DIRECTION ( 'NONE',  ( 0.000000000000000000, 0.000000000000000000, 1.000000000000000000 ) ) ;
#574 = CARTESIAN_POINT ( 'NONE',  ( -20.67234446037513962, 13.14930319490722610, 4.000000000000000000 ) ) ;
#575 = CC_DESIGN_PERSON_AND_ORGANIZATION_ASSIGNMENT ( #605, #409, ( #1254 ) ) ;
#576 = VERTEX_POINT ( 'NONE', #207 ) ;
#577 = DIRECTION ( 'NONE',  ( 0.000000000000000000, -1.000000000000000000, 0.000000000000000000 ) ) ;
#578 = ORIENTED_EDGE ( 'NONE', *, *, #563, .F. ) ;
#579 = VECTOR ( 'NONE', #335, 1000.000000000000000 ) ;
#580 = DIRECTION ( 'NONE',  ( 1.000000000000000000, 0.000000000000000000, 0.000000000000000000 ) ) ;
#581 = AXIS2_PLACEMENT_3D ( 'NONE', #384, #685, #1169 ) ;
#582 = LINE ( 'NONE', #693, #137 ) ;
#583 = DIRECTION ( 'NONE',  ( 1.000000000000000000, 0.000000000000000000, -0.000000000000000000 ) ) ;
#584 = ORIENTED_EDGE ( 'NONE', *, *, #725, .F. ) ;
#585 = AXIS2_PLACEMENT_3D ( 'NONE', #182, #1280, #483 ) ;
#586 = ORIENTED_EDGE ( 'NONE', *, *, #928, .F. ) ;
#587 = EDGE_CURVE ( 'NONE', #192, #172, #1150, .T. ) ;
#588 = DIRECTION ( 'NONE',  ( 1.000000000000000000, 0.000000000000000000, -0.000000000000000000 ) ) ;
#589 = VERTEX_POINT ( 'NONE', #1035 ) ;
#590 = DIRECTION ( 'NONE',  ( -0.000000000000000000, -0.000000000000000000, -1.000000000000000000 ) ) ;
#591 = AXIS2_PLACEMENT_3D ( 'NONE', #1071, #140, #557 ) ;
#592 = CARTESIAN_POINT ( 'NONE',  ( 20.67234446037522844, -13.14930319490707866, 0.9000000000000002442 ) ) ;
#593 = DIRECTION ( 'NONE',  ( 2.358318100220232193E-16, -1.000000000000000000, 0.000000000000000000 ) ) ;
#594 = CARTESIAN_POINT ( 'NONE',  ( 14.00000000000000000, 0.000000000000000000, 0.9000000000000002442 ) ) ;
#595 = ORIENTED_EDGE ( 'NONE', *, *, #896, .T. ) ;
#596 = ORIENTED_EDGE ( 'NONE', *, *, #120, .F. ) ;
#597 = ORIENTED_EDGE ( 'NONE', *, *, #86, .T. ) ;
#598 = ADVANCED_BREP_SHAPE_REPRESENTATION ( '\X2\0414043504420430043b044c\X0\ \X2\04280430043904310430\X0\ \X2\041a04400435043f04410441\X0\', ( #638, #326 ), #1136 ) ;
#599 = EDGE_CURVE ( 'NONE', #917, #455, #217, .T. ) ;
#600 = CC_DESIGN_APPROVAL ( #1051, ( #1254 ) ) ;
#601 = DIRECTION ( 'NONE',  ( 0.000000000000000000, 0.000000000000000000, 1.000000000000000000 ) ) ;
#602 = CARTESIAN_POINT ( 'NONE',  ( 0.000000000000000000, 0.000000000000000000, 0.000000000000000000 ) ) ;
#603 = CARTESIAN_POINT ( 'NONE',  ( -13.89831226876598080, 9.238313885582384088, 7.000000000000000000 ) ) ;
#604 = ORIENTED_EDGE ( 'NONE', *, *, #1202, .F. ) ;
#605 = PERSON_AND_ORGANIZATION ( #952, #347 ) ;
#606 = ORIENTED_EDGE ( 'NONE', *, *, #928, .T. ) ;
#607 = CARTESIAN_POINT ( 'NONE',  ( 24.50000000000000000, 0.000000000000000000, 4.000000000000000000 ) ) ;
#608 = EDGE_CURVE ( 'NONE', #1102, #890, #356, .T. ) ;
#609 = CARTESIAN_POINT ( 'NONE',  ( 0.8785416213347764236, -24.48424319066412735, 4.000000000000000000 ) ) ;
#610 = CARTESIAN_POINT ( 'NONE',  ( -20.76470578488397933, -13.00296095768982774, 4.000000000000000000 ) ) ;
#611 = VERTEX_POINT ( 'NONE', #337 ) ;
#612 = VERTEX_POINT ( 'NONE', #680 ) ;
#613 = LINE ( 'NONE', #1020, #1263 ) ;
#614 = CIRCLE ( 'NONE', #781, 27.49999999999999645 ) ;
#615 = ADVANCED_FACE ( 'NONE', ( #345 ), #454, .F. ) ;
#616 = ORIENTED_EDGE ( 'NONE', *, *, #1238, .F. ) ;
#617 = ORIENTED_EDGE ( 'NONE', *, *, #825, .F. ) ;
#618 = PERSON_AND_ORGANIZATION ( #952, #347 ) ;
#619 = CARTESIAN_POINT ( 'NONE',  ( 14.00000000000000000, 0.000000000000000000, 7.100000000000000533 ) ) ;
#620 = EDGE_CURVE ( 'NONE', #61, #611, #37, .T. ) ;
#621 = ORIENTED_EDGE ( 'NONE', *, *, #202, .F. ) ;
#622 = APPROVAL_ROLE ( '' ) ;
#623 = ORIENTED_EDGE ( 'NONE', *, *, #366, .T. ) ;
#624 = PERSON_AND_ORGANIZATION ( #952, #347 ) ;
#625 = ADVANCED_FACE ( 'NONE', ( #1293 ), #143, .F. ) ;
#626 = VECTOR ( 'NONE', #1312, 1000.000000000000000 ) ;
#627 = DIRECTION ( 'NONE',  ( -0.000000000000000000, 0.000000000000000000, -1.000000000000000000 ) ) ;
#628 = AXIS2_PLACEMENT_3D ( 'NONE', #1151, #949, #753 ) ;
#629 = EDGE_LOOP ( 'NONE', ( #584, #856 ) ) ;
#630 = DIRECTION ( 'NONE',  ( 0.8660254037844398178, 0.4999999999999978351, 0.000000000000000000 ) ) ;
#631 = CARTESIAN_POINT ( 'NONE',  ( -17.10000000000000142, 2.094146026541973637E-15, 7.100000000000000533 ) ) ;
#632 = AXIS2_PLACEMENT_3D ( 'NONE', #860, #119, #637 ) ;
#633 = AXIS2_PLACEMENT_3D ( 'NONE', #104, #521, #979 ) ;
#634 = VERTEX_POINT ( 'NONE', #778 ) ;
#635 = CARTESIAN_POINT ( 'NONE',  ( -14.00000000000000000, 1.714505518806294244E-15, 7.100000000000000533 ) ) ;
#636 = DIRECTION ( 'NONE',  ( -0.000000000000000000, -0.000000000000000000, -1.000000000000000000 ) ) ;
#637 = DIRECTION ( 'NONE',  ( -0.8660254037844398178, -0.4999999999999977796, 0.000000000000000000 ) ) ;
#638 = MANIFOLD_SOLID_BREP ( '\X2\0421043a044004430433043b0435043d04380435\X0\1', #1230 ) ;
#639 = EDGE_CURVE ( 'NONE', #89, #301, #1221, .T. ) ;
#640 = CIRCLE ( 'NONE', #49, 24.50000000000000000 ) ;
#641 = DIRECTION ( 'NONE',  ( -0.000000000000000000, -0.000000000000000000, -1.000000000000000000 ) ) ;
#642 = CARTESIAN_POINT ( 'NONE',  ( 0.000000000000000000, 0.000000000000000000, 6.999999999999999112 ) ) ;
#643 = CARTESIAN_POINT ( 'NONE',  ( 0.000000000000000000, 0.000000000000000000, 0.9000000000000002442 ) ) ;
#644 = AXIS2_PLACEMENT_3D ( 'NONE', #336, #325, #320 ) ;
#645 = EDGE_CURVE ( 'NONE', #770, #172, #771, .T. ) ;
#646 = CARTESIAN_POINT ( 'NONE',  ( 14.35020597063541814, 9.299547763216198248, 0.9000000000000002442 ) ) ;
#647 = AXIS2_PLACEMENT_3D ( 'NONE', #1199, #1157, #746 ) ;
#648 = LINE ( 'NONE', #733, #571 ) ;
#649 = ORIENTED_EDGE ( 'NONE', *, *, #1111, .F. ) ;
#650 = LINE ( 'NONE', #538, #1040 ) ;
#651 = DIRECTION ( 'NONE',  ( 1.000000000000000000, 0.000000000000000000, -0.000000000000000000 ) ) ;
#652 = DIRECTION ( 'NONE',  ( -2.358318100220232193E-16, 1.000000000000000000, 0.000000000000000000 ) ) ;
#653 = ORIENTED_EDGE ( 'NONE', *, *, #834, .T. ) ;
#654 = ADVANCED_FACE ( 'NONE', ( #1084 ), #234, .F. ) ;
#655 = DIRECTION ( 'NONE',  ( 0.000000000000000000, 0.000000000000000000, -1.000000000000000000 ) ) ;
#656 = ORIENTED_EDGE ( 'NONE', *, *, #853, .T. ) ;
#657 = DESIGN_CONTEXT ( 'detailed design', #1323, 'design' ) ;
#658 = CARTESIAN_POINT ( 'NONE',  ( 24.50000000000000000, 0.000000000000000000, 7.100000000000000533 ) ) ;
#659 = LINE ( 'NONE', #564, #299 ) ;
#660 = ORIENTED_EDGE ( 'NONE', *, *, #742, .F. ) ;
#661 = FACE_OUTER_BOUND ( 'NONE', #1086, .T. ) ;
#662 = ORIENTED_EDGE ( 'NONE', *, *, #355, .T. ) ;
#663 = CARTESIAN_POINT ( 'NONE',  ( 0.000000000000000000, 0.000000000000000000, 4.000000000000000000 ) ) ;
#664 = CARTESIAN_POINT ( 'NONE',  ( -14.94977064743184236, -7.417134551689120059, 7.000000000000000000 ) ) ;
#665 = ORIENTED_EDGE ( 'NONE', *, *, #1334, .T. ) ;
#666 = CIRCLE ( 'NONE', #81, 17.10000000000000142 ) ;
#667 = EDGE_CURVE ( 'NONE', #1332, #301, #150, .T. ) ;
#668 = LINE ( 'NONE', #146, #697 ) ;
#669 = CARTESIAN_POINT ( 'NONE',  ( -13.89831226876598080, 9.238313885582384088, 4.000000000000000000 ) ) ;
#670 = VECTOR ( 'NONE', #129, 1000.000000000000000 ) ;
#671 = ORIENTED_EDGE ( 'NONE', *, *, #211, .T. ) ;
#672 = VERTEX_POINT ( 'NONE', #857 ) ;
#673 = DIRECTION ( 'NONE',  ( -1.000000000000000000, 0.000000000000000000, 0.000000000000000000 ) ) ;
#674 = LINE ( 'NONE', #1205, #107 ) ;
#675 = ORIENTED_EDGE ( 'NONE', *, *, #309, .T. ) ;
#676 = CARTESIAN_POINT ( 'NONE',  ( 0.000000000000000000, 0.000000000000000000, 7.100000000000000533 ) ) ;
#677 = DIRECTION ( 'NONE',  ( -0.8660254037844328234, 0.5000000000000099920, 0.000000000000000000 ) ) ;
#678 = EDGE_LOOP ( 'NONE', ( #34, #1022, #1093, #690 ) ) ;
#679 = EDGE_LOOP ( 'NONE', ( #433, #280, #44, #1339 ) ) ;
#680 = CARTESIAN_POINT ( 'NONE',  ( -1.051458378665225624, -17.06764293269386101, 4.000000000000000000 ) ) ;
#681 = DIRECTION ( 'NONE',  ( -0.000000000000000000, 0.000000000000000000, -1.000000000000000000 ) ) ;
#682 = VERTEX_POINT ( 'NONE', #29 ) ;
#683 = LINE ( 'NONE', #1097, #439 ) ;
#684 = CARTESIAN_POINT ( 'NONE',  ( 21.15133534208209198, 13.22618163661438473, 4.000000000000000000 ) ) ;
#685 = DIRECTION ( 'NONE',  ( -0.000000000000000000, 0.000000000000000000, 1.000000000000000000 ) ) ;
#686 = ADVANCED_FACE ( 'NONE', ( #878, #363 ), #1187, .T. ) ;
#687 = ORIENTED_EDGE ( 'NONE', *, *, #404, .T. ) ;
#688 = ORIENTED_EDGE ( 'NONE', *, *, #725, .T. ) ;
#689 = DIRECTION ( 'NONE',  ( 1.000000000000000000, 0.000000000000000000, 0.000000000000000000 ) ) ;
#690 = ORIENTED_EDGE ( 'NONE', *, *, #1023, .F. ) ;
#691 = CARTESIAN_POINT ( 'NONE',  ( -15.22874759196962380, 7.777869038501441068, 0.9000000000000002442 ) ) ;
#692 = CARTESIAN_POINT ( 'NONE',  ( -24.49999999999999645, 3.184081677783117796E-15, 0.000000000000000000 ) ) ;
#693 = CARTESIAN_POINT ( 'NONE',  ( -21.15133534208170119, -13.22618163661462987, 7.000000000000000000 ) ) ;
#694 = CARTESIAN_POINT ( 'NONE',  ( 0.8785416213347746472, -17.07741680171747944, 6.999999999999999112 ) ) ;
#695 = ORIENTED_EDGE ( 'NONE', *, *, #1345, .T. ) ;
#696 = VECTOR ( 'NONE', #919, 1000.000000000000000 ) ;
#697 = VECTOR ( 'NONE', #48, 1000.000000000000000 ) ;
#698 = ADVANCED_FACE ( 'NONE', ( #133 ), #160, .T. ) ;
#699 = ORIENTED_EDGE ( 'NONE', *, *, #158, .T. ) ;
#700 = DIRECTION ( 'NONE',  ( 0.000000000000000000, 0.000000000000000000, 1.000000000000000000 ) ) ;
#701 = ORIENTED_EDGE ( 'NONE', *, *, #667, .T. ) ;
#702 = DIRECTION ( 'NONE',  ( 1.000000000000000000, 0.000000000000000000, 0.000000000000000000 ) ) ;
#703 = CARTESIAN_POINT ( 'NONE',  ( -22.02987696341623547, 11.70450291189972170, 7.000000000000000000 ) ) ;
#704 = CIRCLE ( 'NONE', #106, 2.999999999999999112 ) ;
#705 = DIRECTION ( 'NONE',  ( -0.000000000000000000, -0.000000000000000000, -1.000000000000000000 ) ) ;
#706 = ORIENTED_EDGE ( 'NONE', *, *, #99, .F. ) ;
#707 = AXIS2_PLACEMENT_3D ( 'NONE', #944, #21, #766 ) ;
#708 = DATE_AND_TIME ( #818, #185 ) ;
#709 = ORIENTED_EDGE ( 'NONE', *, *, #75, .F. ) ;
#710 = EDGE_CURVE ( 'NONE', #108, #1239, #1074, .T. ) ;
#711 = LINE ( 'NONE', #1119, #626 ) ;
#712 = DIRECTION ( 'NONE',  ( 0.000000000000000000, 0.000000000000000000, 1.000000000000000000 ) ) ;
#713 = PLANE ( 'NONE',  #278 ) ;
#714 = ORIENTED_EDGE ( 'NONE', *, *, #667, .F. ) ;
#715 = AXIS2_PLACEMENT_3D ( 'NONE', #932, #1048, #110 ) ;
#716 = DATE_AND_TIME ( #308, #128 ) ;
#717 = ORIENTED_EDGE ( 'NONE', *, *, #1043, .F. ) ;
#718 = AXIS2_PLACEMENT_3D ( 'NONE', #1269, #573, #50 ) ;
#719 = ADVANCED_FACE ( 'NONE', ( #156 ), #1168, .T. ) ;
#720 = CARTESIAN_POINT ( 'NONE',  ( -20.67234446037513962, 13.14930319490722610, 6.999999999999999112 ) ) ;
#721 = VECTOR ( 'NONE', #139, 1000.000000000000000 ) ;
#722 = ORIENTED_EDGE ( 'NONE', *, *, #219, .F. ) ;
#723 = EDGE_LOOP ( 'NONE', ( #595, #1215, #57, #544 ) ) ;
#724 = PERSON_AND_ORGANIZATION ( #952, #347 ) ;
#725 = EDGE_CURVE ( 'NONE', #1072, #1102, #116, .T. ) ;
#726 = CARTESIAN_POINT ( 'NONE',  ( 1.051458378665685700, 24.47742705592100521, 4.000000000000000000 ) ) ;
#727 = AXIS2_PLACEMENT_3D ( 'NONE', #1149, #331, #747 ) ;
#728 = ORIENTED_EDGE ( 'NONE', *, *, #202, .T. ) ;
#729 = PERSON_AND_ORGANIZATION_ROLE ( 'design_supplier' ) ;
#730 = ORIENTED_EDGE ( 'NONE', *, *, #1008, .F. ) ;
#731 = EDGE_CURVE ( 'NONE', #108, #465, #1288, .T. ) ;
#732 = PERSON_AND_ORGANIZATION_ROLE ( 'classification_officer' ) ;
#733 = CARTESIAN_POINT ( 'NONE',  ( 0.8785416213347765346, -24.93068454851387727, 4.000000000000000000 ) ) ;
#734 = CIRCLE ( 'NONE', #1141, 24.50000000000000000 ) ;
#735 = EDGE_LOOP ( 'NONE', ( #19, #63, #799, #809 ) ) ;
#736 = EDGE_CURVE ( 'NONE', #976, #74, #448, .T. ) ;
#737 = DIRECTION ( 'NONE',  ( 0.000000000000000000, 0.000000000000000000, 1.000000000000000000 ) ) ;
#738 = AXIS2_PLACEMENT_3D ( 'NONE', #1000, #58, #580 ) ;
#739 = ORIENTED_EDGE ( 'NONE', *, *, #505, .F. ) ;
#740 = CARTESIAN_POINT ( 'NONE',  ( 0.000000000000000000, 0.000000000000000000, 4.000000000000000000 ) ) ;
#741 = DIRECTION ( 'NONE',  ( 0.000000000000000000, 0.000000000000000000, 1.000000000000000000 ) ) ;
#742 = EDGE_CURVE ( 'NONE', #672, #172, #554, .T. ) ;
#743 = VECTOR ( 'NONE', #220, 1000.000000000000000 ) ;
#744 = CARTESIAN_POINT ( 'NONE',  ( -24.50000000000000000, 3.000384657911015074E-15, 7.100000000000000533 ) ) ;
#745 = CIRCLE ( 'NONE', #841, 17.10000000000000142 ) ;
#746 = DIRECTION ( 'NONE',  ( 1.000000000000000000, 0.000000000000000000, 0.000000000000000000 ) ) ;
#747 = DIRECTION ( 'NONE',  ( 1.000000000000000000, 0.000000000000000000, 0.000000000000000000 ) ) ;
#748 = EDGE_CURVE ( 'NONE', #257, #794, #640, .T. ) ;
#749 = CARTESIAN_POINT ( 'NONE',  ( -15.22874759196962380, 7.777869038501442844, 4.000000000000000000 ) ) ;
#750 = DIRECTION ( 'NONE',  ( -1.000000000000000000, 1.224646799147353454E-16, 0.000000000000000000 ) ) ;
#751 = DIRECTION ( 'NONE',  ( -0.000000000000000000, -0.000000000000000000, -1.000000000000000000 ) ) ;
#752 = CIRCLE ( 'NONE', #800, 24.50000000000000000 ) ;
#753 = DIRECTION ( 'NONE',  ( 1.000000000000000000, 0.000000000000000000, 0.000000000000000000 ) ) ;
#754 = DIRECTION ( 'NONE',  ( 0.000000000000000000, 0.000000000000000000, 1.000000000000000000 ) ) ;
#755 = EDGE_CURVE ( 'NONE', #813, #461, #986, .T. ) ;
#756 = DIRECTION ( 'NONE',  ( -0.000000000000000000, -0.000000000000000000, -1.000000000000000000 ) ) ;
#757 = DIRECTION ( 'NONE',  ( -0.000000000000000000, -0.000000000000000000, -1.000000000000000000 ) ) ;
#758 = ORIENTED_EDGE ( 'NONE', *, *, #731, .T. ) ;
#759 = CARTESIAN_POINT ( 'NONE',  ( 0.000000000000000000, 0.000000000000000000, 0.000000000000000000 ) ) ;
#760 = CARTESIAN_POINT ( 'NONE',  ( 13.89831226876605008, -9.238313885582289942, 4.000000000000000000 ) ) ;
#761 = CARTESIAN_POINT ( 'NONE',  ( 15.22874759196968064, -7.777869038501338039, 4.000000000000000000 ) ) ;
#762 = ORIENTED_EDGE ( 'NONE', *, *, #344, .T. ) ;
#763 = EDGE_CURVE ( 'NONE', #976, #1273, #659, .T. ) ;
#764 = CARTESIAN_POINT ( 'NONE',  ( -14.94977064743184236, -7.417134551689120059, 7.000000000000000000 ) ) ;
#765 = ORIENTED_EDGE ( 'NONE', *, *, #1248, .F. ) ;
#766 = DIRECTION ( 'NONE',  ( 1.000000000000000000, 0.000000000000000000, 0.000000000000000000 ) ) ;
#767 = DIRECTION ( 'NONE',  ( 0.000000000000000000, -0.000000000000000000, 1.000000000000000000 ) ) ;
#768 = ORIENTED_EDGE ( 'NONE', *, *, #66, .T. ) ;
#769 = DIRECTION ( 'NONE',  ( 0.000000000000000000, 0.000000000000000000, 1.000000000000000000 ) ) ;
#770 = VERTEX_POINT ( 'NONE', #983 ) ;
#771 = LINE ( 'NONE', #764, #358 ) ;
#772 = LINE ( 'NONE', #1214, #508 ) ;
#773 = ORIENTED_EDGE ( 'NONE', *, *, #1111, .T. ) ;
#774 = DIRECTION ( 'NONE',  ( 0.8660254037844328234, -0.5000000000000099920, 0.000000000000000000 ) ) ;
#775 = CARTESIAN_POINT ( 'NONE',  ( 0.000000000000000000, 0.000000000000000000, 7.100000000000000533 ) ) ;
#776 = CARTESIAN_POINT ( 'NONE',  ( -14.94977064743184236, -7.417134551689120059, 4.000000000000000000 ) ) ;
#777 = ORIENTED_EDGE ( 'NONE', *, *, #315, .T. ) ;
#778 = CARTESIAN_POINT ( 'NONE',  ( 15.22874759196967709, -7.777869038501336263, 6.999999999999999112 ) ) ;
#779 = DIRECTION ( 'NONE',  ( 1.000000000000000000, 0.000000000000000000, -0.000000000000000000 ) ) ;
#780 = EDGE_LOOP ( 'NONE', ( #972, #93, #758, #1165 ) ) ;
#781 = AXIS2_PLACEMENT_3D ( 'NONE', #312, #741, #543 ) ;
#782 = CARTESIAN_POINT ( 'NONE',  ( -1.051458378665224513, -24.47742705592102652, 6.999999999999999112 ) ) ;
#783 = EDGE_CURVE ( 'NONE', #169, #196, #862, .T. ) ;
#784 = DIRECTION ( 'NONE',  ( -0.000000000000000000, 0.000000000000000000, 1.000000000000000000 ) ) ;
#785 = LINE ( 'NONE', #984, #721 ) ;
#786 = ORIENTED_EDGE ( 'NONE', *, *, #1268, .F. ) ;
#787 = DIRECTION ( 'NONE',  ( 0.000000000000000000, 0.000000000000000000, 1.000000000000000000 ) ) ;
#788 = VERTEX_POINT ( 'NONE', #845 ) ;
#789 = DIRECTION ( 'NONE',  ( 0.000000000000000000, 0.000000000000000000, 1.000000000000000000 ) ) ;
#790 = EDGE_CURVE ( 'NONE', #793, #1112, #248, .T. ) ;
#791 = FACE_OUTER_BOUND ( 'NONE', #194, .T. ) ;
#792 = ORIENTED_EDGE ( 'NONE', *, *, #219, .T. ) ;
#793 = VERTEX_POINT ( 'NONE', #147 ) ;
#794 = VERTEX_POINT ( 'NONE', #469 ) ;
#795 = CIRCLE ( 'NONE', #551, 24.50000000000000000 ) ;
#796 = CARTESIAN_POINT ( 'NONE',  ( -20.76470578488397933, -13.00296095768982774, 6.999999999999999112 ) ) ;
#797 = DIRECTION ( 'NONE',  ( 0.000000000000000000, 0.000000000000000000, 1.000000000000000000 ) ) ;
#798 = LINE ( 'NONE', #1127, #171 ) ;
#799 = ORIENTED_EDGE ( 'NONE', *, *, #645, .F. ) ;
#800 = AXIS2_PLACEMENT_3D ( 'NONE', #1216, #769, #903 ) ;
#801 = AXIS2_PLACEMENT_3D ( 'NONE', #562, #789, #173 ) ;
#802 = EDGE_CURVE ( 'NONE', #859, #1129, #975, .T. ) ;
#803 = DIRECTION ( 'NONE',  ( 0.000000000000000000, -0.000000000000000000, -1.000000000000000000 ) ) ;
#804 = EDGE_LOOP ( 'NONE', ( #319, #768 ) ) ;
#805 = LINE ( 'NONE', #592, #824 ) ;
#806 = DIRECTION ( 'NONE',  ( 0.8660254037844083985, 0.5000000000000525135, 0.000000000000000000 ) ) ;
#807 = LINE ( 'NONE', #493, #517 ) ;
#808 = ORIENTED_EDGE ( 'NONE', *, *, #1182, .T. ) ;
#809 = ORIENTED_EDGE ( 'NONE', *, *, #1242, .F. ) ;
#810 = VECTOR ( 'NONE', #956, 1000.000000000000000 ) ;
#811 = EDGE_CURVE ( 'NONE', #875, #261, #1069, .T. ) ;
#812 = DATE_AND_TIME ( #513, #263 ) ;
#813 = VERTEX_POINT ( 'NONE', #1161 ) ;
#814 = AXIS2_PLACEMENT_3D ( 'NONE', #642, #627, #537 ) ;
#815 = FACE_OUTER_BOUND ( 'NONE', #962, .T. ) ;
#816 = CARTESIAN_POINT ( 'NONE',  ( -17.10000000000000142, 2.094146026541973637E-15, 0.9000000000000002442 ) ) ;
#817 = EDGE_LOOP ( 'NONE', ( #1060, #306 ) ) ;
#818 = CALENDAR_DATE ( 2026, 28, 8 ) ;
#819 = DIRECTION ( 'NONE',  ( 1.000000000000000000, 0.000000000000000000, 0.000000000000000000 ) ) ;
#820 = CIRCLE ( 'NONE', #531, 7.875000000000000000 ) ;
#821 = CIRCLE ( 'NONE', #100, 24.50000000000000000 ) ;
#822 = PERSON_AND_ORGANIZATION ( #952, #347 ) ;
#823 = VECTOR ( 'NONE', #630, 1000.000000000000114 ) ;
#824 = VECTOR ( 'NONE', #290, 1000.000000000000000 ) ;
#825 = EDGE_CURVE ( 'NONE', #511, #455, #1184, .T. ) ;
#826 = ORIENTED_EDGE ( 'NONE', *, *, #1162, .T. ) ;
#827 = DIRECTION ( 'NONE',  ( 1.000000000000000000, 0.000000000000000000, 0.000000000000000000 ) ) ;
#828 = EDGE_CURVE ( 'NONE', #153, #1332, #1073, .T. ) ;
#829 = ORIENTED_EDGE ( 'NONE', *, *, #1080, .F. ) ;
#830 = CARTESIAN_POINT ( 'NONE',  ( 0.8785416213347764236, -24.48424319066412380, 0.9000000000000002442 ) ) ;
#831 = CIRCLE ( 'NONE', #434, 24.50000000000000000 ) ;
#832 = EDGE_LOOP ( 'NONE', ( #717, #687, #1013, #935 ) ) ;
#833 = DIRECTION ( 'NONE',  ( -0.000000000000000000, 0.000000000000000000, 1.000000000000000000 ) ) ;
#834 = EDGE_CURVE ( 'NONE', #1273, #149, #1297, .T. ) ;
#835 = CYLINDRICAL_SURFACE ( 'NONE', #945, 17.10000000000000142 ) ;
#836 = DIRECTION ( 'NONE',  ( 1.000000000000000000, 0.000000000000000000, 0.000000000000000000 ) ) ;
#837 = LINE ( 'NONE', #1057, #285 ) ;
#838 = EDGE_CURVE ( 'NONE', #1233, #1109, #734, .T. ) ;
#839 = CARTESIAN_POINT ( 'NONE',  ( 21.72380283904100295, 11.32812386101397095, 0.9000000000000002442 ) ) ;
#840 = CARTESIAN_POINT ( 'NONE',  ( 0.000000000000000000, 0.000000000000000000, 7.100000000000000533 ) ) ;
#841 = AXIS2_PLACEMENT_3D ( 'NONE', #1075, #1309, #379 ) ;
#842 = CARTESIAN_POINT ( 'NONE',  ( 0.8785416213347765346, -24.93068454851387727, 7.000000000000000000 ) ) ;
#843 = FACE_OUTER_BOUND ( 'NONE', #134, .T. ) ;
#844 = CARTESIAN_POINT ( 'NONE',  ( 15.30674155176765616, 7.623231799400397968, 0.9000000000000002442 ) ) ;
#845 = CARTESIAN_POINT ( 'NONE',  ( -21.64324740621832888, 11.48128223297483608, 6.999999999999999112 ) ) ;
#846 = PLANE ( 'NONE',  #858 ) ;
#847 = CIRCLE ( 'NONE', #1204, 17.10000000000000142 ) ;
#848 = DIRECTION ( 'NONE',  ( -1.310176722344573468E-16, 1.000000000000000000, 0.000000000000000000 ) ) ;
#849 = ORIENTED_EDGE ( 'NONE', *, *, #563, .T. ) ;
#850 = CIRCLE ( 'NONE', #56, 17.10000000000000142 ) ;
#851 = TOROIDAL_SURFACE ( 'NONE', #801, 24.49999999999999645, 3.000000000000000000 ) ;
#852 = LINE ( 'NONE', #1255, #214 ) ;
#853 = EDGE_CURVE ( 'NONE', #378, #813, #1030, .T. ) ;
#854 = DIRECTION ( 'NONE',  ( 0.8660254037844083985, 0.5000000000000525135, 0.000000000000000000 ) ) ;
#855 = DIRECTION ( 'NONE',  ( 0.000000000000000000, 0.000000000000000000, 1.000000000000000000 ) ) ;
#856 = ORIENTED_EDGE ( 'NONE', *, *, #414, .F. ) ;
#857 = CARTESIAN_POINT ( 'NONE',  ( -21.72380283904082887, -11.32812386101430491, 4.000000000000000000 ) ) ;
#858 = AXIS2_PLACEMENT_3D ( 'NONE', #1262, #226, #6 ) ;
#859 = VERTEX_POINT ( 'NONE', #130 ) ;
#860 = CARTESIAN_POINT ( 'NONE',  ( 14.94977064743179440, 7.417134551689224864, 7.000000000000000000 ) ) ;
#861 = AXIS2_PLACEMENT_3D ( 'NONE', #1188, #779, #681 ) ;
#862 = LINE ( 'NONE', #1081, #1340 ) ;
#863 = ORIENTED_EDGE ( 'NONE', *, *, #255, .F. ) ;
#864 = CC_DESIGN_PERSON_AND_ORGANIZATION_ASSIGNMENT ( #1034, #729, ( #1254 ) ) ;
#865 = LINE ( 'NONE', #895, #410 ) ;
#866 = ORIENTED_EDGE ( 'NONE', *, *, #599, .F. ) ;
#867 = CC_DESIGN_APPROVAL ( #447, ( #1292 ) ) ;
#868 = DIRECTION ( 'NONE',  ( -0.000000000000000000, -0.000000000000000000, -1.000000000000000000 ) ) ;
#869 = APPLICATION_PROTOCOL_DEFINITION ( 'international standard', 'config_control_design', 1994, #487 ) ;
#870 = ORIENTED_EDGE ( 'NONE', *, *, #523, .F. ) ;
#871 = CARTESIAN_POINT ( 'NONE',  ( -7.875000000000000000, 0.000000000000000000, 4.000000000000000000 ) ) ;
#872 = AXIS2_PLACEMENT_3D ( 'NONE', #525, #936, #3 ) ;
#873 = CARTESIAN_POINT ( 'NONE',  ( 0.000000000000000000, 0.000000000000000000, 4.000000000000000000 ) ) ;
#874 = CARTESIAN_POINT ( 'NONE',  ( 0.000000000000000000, 0.000000000000000000, 4.000000000000000000 ) ) ;
#875 = VERTEX_POINT ( 'NONE', #430 ) ;
#876 = AXIS2_PLACEMENT_3D ( 'NONE', #138, #966, #238 ) ;
#877 = ADVANCED_FACE ( 'NONE', ( #265 ), #957, .F. ) ;
#878 = FACE_BOUND ( 'NONE', #629, .T. ) ;
#879 = CARTESIAN_POINT ( 'NONE',  ( -0.8785416213343139047, 24.48424319066414157, 6.999999999999999112 ) ) ;
#880 = ORIENTED_EDGE ( 'NONE', *, *, #233, .T. ) ;
#881 = VECTOR ( 'NONE', #911, 1000.000000000000114 ) ;
#882 = FACE_OUTER_BOUND ( 'NONE', #1067, .T. ) ;
#883 = DIRECTION ( 'NONE',  ( -0.000000000000000000, 0.000000000000000000, 1.000000000000000000 ) ) ;
#884 = CARTESIAN_POINT ( 'NONE',  ( 22.02987696341632429, -11.70450291189956893, 7.000000000000000000 ) ) ;
#885 = ORIENTED_EDGE ( 'NONE', *, *, #411, .T. ) ;
#886 = EDGE_LOOP ( 'NONE', ( #586, #201, #390, #597 ) ) ;
#887 = EDGE_CURVE ( 'NONE', #394, #589, #666, .T. ) ;
#888 = DIRECTION ( 'NONE',  ( -0.000000000000000000, -0.000000000000000000, -1.000000000000000000 ) ) ;
#889 = CARTESIAN_POINT ( 'NONE',  ( -14.25528317310184434, 9.444411133293563410, 4.000000000000000000 ) ) ;
#890 = VERTEX_POINT ( 'NONE', #398 ) ;
#891 = ORIENTED_EDGE ( 'NONE', *, *, #309, .F. ) ;
#892 = DIRECTION ( 'NONE',  ( 0.8660254037844085095, 0.5000000000000522915, 0.000000000000000000 ) ) ;
#893 = ORIENTED_EDGE ( 'NONE', *, *, #620, .T. ) ;
#894 = CARTESIAN_POINT ( 'NONE',  ( 22.02987696341632429, -11.70450291189956893, 7.000000000000000000 ) ) ;
#895 = CARTESIAN_POINT ( 'NONE',  ( -1.051458378665224513, -24.47742705592102297, 0.9000000000000002442 ) ) ;
#896 = EDGE_CURVE ( 'NONE', #52, #74, #831, .T. ) ;
#897 = DIRECTION ( 'NONE',  ( 1.000000000000000000, 0.000000000000000000, 0.000000000000000000 ) ) ;
#898 = CARTESIAN_POINT ( 'NONE',  ( 0.000000000000000000, 0.000000000000000000, 0.000000000000000000 ) ) ;
#899 = ORIENTED_EDGE ( 'NONE', *, *, #404, .F. ) ;
#900 = EDGE_LOOP ( 'NONE', ( #1220, #197, #87, #242 ) ) ;
#901 = ORIENTED_EDGE ( 'NONE', *, *, #32, .F. ) ;
#902 = VECTOR ( 'NONE', #677, 1000.000000000000227 ) ;
#903 = DIRECTION ( 'NONE',  ( 1.000000000000000000, 0.000000000000000000, 0.000000000000000000 ) ) ;
#904 = PLANE ( 'NONE',  #247 ) ;
#905 = CARTESIAN_POINT ( 'NONE',  ( -24.50000000000000000, 3.000384657911015074E-15, 0.9000000000000002442 ) ) ;
#906 = ADVANCED_FACE ( 'NONE', ( #815 ), #1320, .F. ) ;
#907 = ORIENTED_EDGE ( 'NONE', *, *, #264, .F. ) ;
#908 = ORIENTED_EDGE ( 'NONE', *, *, #1304, .F. ) ;
#909 = PLANE ( 'NONE',  #27 ) ;
#910 = DIRECTION ( 'NONE',  ( 1.000000000000000000, -3.197442310920450836E-14, 0.000000000000000000 ) ) ;
#911 = DIRECTION ( 'NONE',  ( 0.8660254037844398178, 0.4999999999999978351, 0.000000000000000000 ) ) ;
#912 = VERTEX_POINT ( 'NONE', #492 ) ;
#913 = CC_DESIGN_PERSON_AND_ORGANIZATION_ASSIGNMENT ( #822, #732, ( #94 ) ) ;
#914 = EDGE_LOOP ( 'NONE', ( #762, #415, #1038, #1171 ) ) ;
#915 = AXIS2_PLACEMENT_3D ( 'NONE', #664, #988, #892 ) ;
#916 = APPROVAL_ROLE ( '' ) ;
#917 = VERTEX_POINT ( 'NONE', #609 ) ;
#918 = AXIS2_PLACEMENT_3D ( 'NONE', #55, #364, #161 ) ;
#919 = DIRECTION ( 'NONE',  ( 0.000000000000000000, 0.000000000000000000, 1.000000000000000000 ) ) ;
#920 = EDGE_LOOP ( 'NONE', ( #473, #1343, #675, #1336 ) ) ;
#921 = ORIENTED_EDGE ( 'NONE', *, *, #639, .T. ) ;
#922 = PERSON_AND_ORGANIZATION_ROLE ( 'design_owner' ) ;
#923 = ADVANCED_FACE ( 'NONE', ( #501 ), #904, .T. ) ;
#924 = VECTOR ( 'NONE', #754, 1000.000000000000000 ) ;
#925 = ORIENTED_EDGE ( 'NONE', *, *, #1248, .T. ) ;
#926 = AXIS2_PLACEMENT_3D ( 'NONE', #393, #1337, #819 ) ;
#927 = APPROVAL_DATE_TIME ( #193, #178 ) ;
#928 = EDGE_CURVE ( 'NONE', #912, #1266, #795, .T. ) ;
#929 = ADVANCED_FACE ( 'NONE', ( #165 ), #1107, .T. ) ;
#930 = ORIENTED_EDGE ( 'NONE', *, *, #755, .F. ) ;
#931 = COORDINATED_UNIVERSAL_TIME_OFFSET ( 7, 0, .AHEAD. ) ;
#932 = CARTESIAN_POINT ( 'NONE',  ( -21.15133534208170119, -13.22618163661462987, 7.000000000000000000 ) ) ;
#933 = APPROVAL_PERSON_ORGANIZATION ( #311, #447, #916 ) ;
#934 = EDGE_CURVE ( 'NONE', #192, #1306, #582, .T. ) ;
#935 = ORIENTED_EDGE ( 'NONE', *, *, #113, .T. ) ;
#936 = DIRECTION ( 'NONE',  ( 0.4999999999999978906, -0.8660254037844399289, 0.000000000000000000 ) ) ;
#937 = AXIS2_PLACEMENT_3D ( 'NONE', #1257, #427, #212 ) ;
#938 = CARTESIAN_POINT ( 'NONE',  ( 15.22874759196967354, -7.777869038501334487, 0.9000000000000002442 ) ) ;
#939 = DIRECTION ( 'NONE',  ( 0.000000000000000000, 1.000000000000000000, 0.000000000000000000 ) ) ;
#940 = ORIENTED_EDGE ( 'NONE', *, *, #535, .F. ) ;
#941 = ADVANCED_FACE ( 'NONE', ( #1314, #183 ), #175, .F. ) ;
#942 = LINE ( 'NONE', #1163, #823 ) ;
#943 = DIRECTION ( 'NONE',  ( 0.000000000000000000, 0.000000000000000000, 1.000000000000000000 ) ) ;
#944 = CARTESIAN_POINT ( 'NONE',  ( 0.000000000000000000, 0.000000000000000000, 6.999999999999999112 ) ) ;
#945 = AXIS2_PLACEMENT_3D ( 'NONE', #317, #532, #827 ) ;
#946 = LINE ( 'NONE', #530, #475 ) ;
#947 = CC_DESIGN_DATE_AND_TIME_ASSIGNMENT ( #199, #1335, ( #1292 ) ) ;
#948 = CARTESIAN_POINT ( 'NONE',  ( 0.000000000000000000, 0.000000000000000000, 4.000000000000000000 ) ) ;
#949 = DIRECTION ( 'NONE',  ( 0.000000000000000000, 0.000000000000000000, 1.000000000000000000 ) ) ;
#950 = DIRECTION ( 'NONE',  ( 0.000000000000000000, 0.000000000000000000, 1.000000000000000000 ) ) ;
#951 = LINE ( 'NONE', #842, #297 ) ;
#952 = PERSON ( 'UNSPECIFIED', 'UNSPECIFIED', 'UNSPECIFIED', ('UNSPECIFIED'), ('UNSPECIFIED'), ('UNSPECIFIED') ) ;
#953 = PLANE ( 'NONE',  #937 ) ;
#954 = ORIENTED_EDGE ( 'NONE', *, *, #887, .F. ) ;
#955 = EDGE_CURVE ( 'NONE', #611, #511, #847, .T. ) ;
#956 = DIRECTION ( 'NONE',  ( -0.000000000000000000, -0.000000000000000000, -1.000000000000000000 ) ) ;
#957 = PLANE ( 'NONE',  #960 ) ;
#958 = DIRECTION ( 'NONE',  ( 1.310176722344573468E-16, -1.000000000000000000, 0.000000000000000000 ) ) ;
#959 = ORIENTED_EDGE ( 'NONE', *, *, #1345, .F. ) ;
#960 = AXIS2_PLACEMENT_3D ( 'NONE', #438, #69, #593 ) ;
#961 = CARTESIAN_POINT ( 'NONE',  ( 0.8785416213347746472, -17.07741680171747589, 0.9000000000000002442 ) ) ;
#962 = EDGE_LOOP ( 'NONE', ( #829, #1100, #1245, #1186 ) ) ;
#963 = VECTOR ( 'NONE', #254, 1000.000000000000000 ) ;
#964 = ADVANCED_FACE ( 'NONE', ( #1121 ), #1329, .T. ) ;
#965 = LINE ( 'NONE', #844, #670 ) ;
#966 = DIRECTION ( 'NONE',  ( 0.000000000000000000, 0.000000000000000000, 1.000000000000000000 ) ) ;
#967 = PLANE ( 'NONE',  #118 ) ;
#968 = CARTESIAN_POINT ( 'NONE',  ( 1.051458378665685922, 17.06764293269383259, 4.000000000000000000 ) ) ;
#969 = ORIENTED_EDGE ( 'NONE', *, *, #542, .T. ) ;
#970 = DIRECTION ( 'NONE',  ( 1.000000000000000000, 1.310176722344573468E-16, -0.000000000000000000 ) ) ;
#971 =( NAMED_UNIT ( * ) PLANE_ANGLE_UNIT ( ) SI_UNIT ( $, .RADIAN. ) );
#972 = ORIENTED_EDGE ( 'NONE', *, *, #1326, .F. ) ;
#973 = CARTESIAN_POINT ( 'NONE',  ( 1.051458378665685922, 16.65544843727148105, 4.000000000000000000 ) ) ;
#974 = VECTOR ( 'NONE', #111, 1000.000000000000000 ) ;
#975 = LINE ( 'NONE', #1260, #330 ) ;
#976 = VERTEX_POINT ( 'NONE', #889 ) ;
#977 = ADVANCED_FACE ( 'NONE', ( #791 ), #1200, .F. ) ;
#978 = ORIENTED_EDGE ( 'NONE', *, *, #2, .F. ) ;
#979 = DIRECTION ( 'NONE',  ( 1.000000000000000000, 0.000000000000000000, 0.000000000000000000 ) ) ;
#980 = DIRECTION ( 'NONE',  ( -0.000000000000000000, 0.000000000000000000, 1.000000000000000000 ) ) ;
#981 = ORIENTED_EDGE ( 'NONE', *, *, #125, .T. ) ;
#982 = DIRECTION ( 'NONE',  ( 0.000000000000000000, 0.000000000000000000, 1.000000000000000000 ) ) ;
#983 = CARTESIAN_POINT ( 'NONE',  ( -15.30674155176769524, -7.623231799400318032, 6.999999999999999112 ) ) ;
#984 = CARTESIAN_POINT ( 'NONE',  ( -20.67234446037513962, 13.14930319490722432, 0.9000000000000002442 ) ) ;
#985 = ORIENTED_EDGE ( 'NONE', *, *, #828, .T. ) ;
#986 = CIRCLE ( 'NONE', #876, 17.10000000000000142 ) ;
#987 = ADVANCED_FACE ( 'NONE', ( #270, #572 ), #1087, .T. ) ;
#988 = DIRECTION ( 'NONE',  ( 0.5000000000000522915, -0.8660254037844085095, 0.000000000000000000 ) ) ;
#989 = ORIENTED_EDGE ( 'NONE', *, *, #1326, .T. ) ;
#990 = DIRECTION ( 'NONE',  ( -0.000000000000000000, -0.000000000000000000, -1.000000000000000000 ) ) ;
#991 = AXIS2_PLACEMENT_3D ( 'NONE', #83, #1106, #1009 ) ;
#992 = CARTESIAN_POINT ( 'NONE',  ( 0.000000000000000000, 0.000000000000000000, 4.000000000000000000 ) ) ;
#993 = ORIENTED_EDGE ( 'NONE', *, *, #934, .F. ) ;
#994 = ORIENTED_EDGE ( 'NONE', *, *, #105, .F. ) ;
#995 = EDGE_CURVE ( 'NONE', #912, #875, #1311, .T. ) ;
#996 = AXIS2_PLACEMENT_3D ( 'NONE', #17, #431, #1256 ) ;
#997 = CARTESIAN_POINT ( 'NONE',  ( -14.25528317310184434, 9.444411133293563410, 6.999999999999999112 ) ) ;
#998 = EDGE_LOOP ( 'NONE', ( #1241, #578, #1, #617 ) ) ;
#999 = EDGE_CURVE ( 'NONE', #30, #1325, #1208, .T. ) ;
#1000 = CARTESIAN_POINT ( 'NONE',  ( 0.000000000000000000, 0.000000000000000000, 7.100000000000000533 ) ) ;
#1001 = CARTESIAN_POINT ( 'NONE',  ( -27.49999999999999645, 0.000000000000000000, 4.000000000000000000 ) ) ;
#1002 = DIRECTION ( 'NONE',  ( 0.000000000000000000, 0.000000000000000000, 1.000000000000000000 ) ) ;
#1003 = CARTESIAN_POINT ( 'NONE',  ( -0.8785416213343139047, 24.48424319066414157, 4.000000000000000000 ) ) ;
#1004 = ORIENTED_EDGE ( 'NONE', *, *, #211, .F. ) ;
#1005 = VERTEX_POINT ( 'NONE', #381 ) ;
#1006 = DIRECTION ( 'NONE',  ( 1.000000000000000000, 0.000000000000000000, -0.000000000000000000 ) ) ;
#1007 = ORIENTED_EDGE ( 'NONE', *, *, #1224, .F. ) ;
#1008 = EDGE_CURVE ( 'NONE', #1109, #1233, #208, .T. ) ;
#1009 = DIRECTION ( 'NONE',  ( 1.000000000000000000, 0.000000000000000000, 0.000000000000000000 ) ) ;
#1010 = CARTESIAN_POINT ( 'NONE',  ( 0.000000000000000000, 0.000000000000000000, 4.000000000000000000 ) ) ;
#1011 = CARTESIAN_POINT ( 'NONE',  ( -0.8785416213343139047, 17.07741680171750431, 4.000000000000000000 ) ) ;
#1012 = ORIENTED_EDGE ( 'NONE', *, *, #1080, .T. ) ;
#1013 = ORIENTED_EDGE ( 'NONE', *, *, #286, .T. ) ;
#1014 = CARTESIAN_POINT ( 'NONE',  ( 0.000000000000000000, 0.000000000000000000, 0.000000000000000000 ) ) ;
#1015 = CC_DESIGN_PERSON_AND_ORGANIZATION_ASSIGNMENT ( #624, #88, ( #1292 ) ) ;
#1016 = DIRECTION ( 'NONE',  ( -0.000000000000000000, -0.000000000000000000, -1.000000000000000000 ) ) ;
#1017 = LINE ( 'NONE', #514, #518 ) ;
#1018 = ORIENTED_EDGE ( 'NONE', *, *, #1023, .T. ) ;
#1019 = ORIENTED_EDGE ( 'NONE', *, *, #1065, .F. ) ;
#1020 = CARTESIAN_POINT ( 'NONE',  ( -0.8785416213343139047, 24.93068454851389859, 4.000000000000000000 ) ) ;
#1021 = EDGE_LOOP ( 'NONE', ( #288, #402, #71, #114 ) ) ;
#1022 = ORIENTED_EDGE ( 'NONE', *, *, #811, .F. ) ;
#1023 = EDGE_CURVE ( 'NONE', #300, #169, #359, .T. ) ;
#1024 = COORDINATED_UNIVERSAL_TIME_OFFSET ( 7, 0, .AHEAD. ) ;
#1025 = CC_DESIGN_SECURITY_CLASSIFICATION ( #94, ( #1254 ) ) ;
#1026 = CARTESIAN_POINT ( 'NONE',  ( -17.10000000000000142, 2.094146026541973637E-15, 4.000000000000000000 ) ) ;
#1027 = EDGE_LOOP ( 'NONE', ( #1096, #730 ) ) ;
#1028 = EDGE_CURVE ( 'NONE', #788, #793, #262, .T. ) ;
#1029 = CALENDAR_DATE ( 2026, 28, 8 ) ;
#1030 = CIRCLE ( 'NONE', #206, 17.10000000000000142 ) ;
#1031 = ORIENTED_EDGE ( 'NONE', *, *, #366, .F. ) ;
#1032 = CIRCLE ( 'NONE', #991, 27.49999999999999645 ) ;
#1033 = AXIS2_PLACEMENT_3D ( 'NONE', #1287, #888, #1303 ) ;
#1034 = PERSON_AND_ORGANIZATION ( #952, #347 ) ;
#1035 = CARTESIAN_POINT ( 'NONE',  ( 15.30674155176765439, 7.623231799400397080, 6.999999999999999112 ) ) ;
#1036 = ADVANCED_FACE ( 'NONE', ( #882 ), #851, .T. ) ;
#1037 = CIRCLE ( 'NONE', #474, 24.49999999999999645 ) ;
#1038 = ORIENTED_EDGE ( 'NONE', *, *, #86, .F. ) ;
#1039 = FACE_OUTER_BOUND ( 'NONE', #1091, .T. ) ;
#1040 = VECTOR ( 'NONE', #1061, 1000.000000000000000 ) ;
#1041 = CARTESIAN_POINT ( 'NONE',  ( -15.22874759196962380, 7.777869038501442844, 6.999999999999999112 ) ) ;
#1042 = VECTOR ( 'NONE', #868, 1000.000000000000000 ) ;
#1043 = EDGE_CURVE ( 'NONE', #548, #1064, #279, .T. ) ;
#1044 = CARTESIAN_POINT ( 'NONE',  ( -15.30674155176769524, -7.623231799400316255, 0.9000000000000002442 ) ) ;
#1045 = VERTEX_POINT ( 'NONE', #367 ) ;
#1046 = DIRECTION ( 'NONE',  ( 1.000000000000000000, 0.000000000000000000, 0.000000000000000000 ) ) ;
#1047 = AXIS2_PLACEMENT_3D ( 'NONE', #419, #833, #1147 ) ;
#1048 = DIRECTION ( 'NONE',  ( -0.5000000000000525135, 0.8660254037844083985, 0.000000000000000000 ) ) ;
#1049 = VECTOR ( 'NONE', #349, 1000.000000000000227 ) ;
#1050 = DIRECTION ( 'NONE',  ( 0.000000000000000000, 0.000000000000000000, 1.000000000000000000 ) ) ;
#1051 = APPROVAL ( #103, 'UNSPECIFIED' ) ;
#1052 = AXIS2_PLACEMENT_3D ( 'NONE', #176, #1082, #1298 ) ;
#1053 = PLANE ( 'NONE',  #996 ) ;
#1054 = CARTESIAN_POINT ( 'NONE',  ( 15.30674155176765794, 7.623231799400398856, 4.000000000000000000 ) ) ;
#1055 = FACE_OUTER_BOUND ( 'NONE', #678, .T. ) ;
#1056 = CIRCLE ( 'NONE', #229, 17.10000000000000142 ) ;
#1057 = CARTESIAN_POINT ( 'NONE',  ( 22.02987696341632429, -11.70450291189956893, 4.000000000000000000 ) ) ;
#1058 = EDGE_CURVE ( 'NONE', #1072, #1117, #668, .T. ) ;
#1059 = FACE_OUTER_BOUND ( 'NONE', #70, .T. ) ;
#1060 = ORIENTED_EDGE ( 'NONE', *, *, #1258, .F. ) ;
#1061 = DIRECTION ( 'NONE',  ( 0.000000000000000000, 0.000000000000000000, 1.000000000000000000 ) ) ;
#1062 = DIRECTION ( 'NONE',  ( 1.000000000000000000, 0.000000000000000000, 0.000000000000000000 ) ) ;
#1063 = CARTESIAN_POINT ( 'NONE',  ( -1.051458378665225624, -16.65544843727146329, 4.000000000000000000 ) ) ;
#1064 = VERTEX_POINT ( 'NONE', #782 ) ;
#1065 = EDGE_CURVE ( 'NONE', #612, #576, #683, .T. ) ;
#1066 = CARTESIAN_POINT ( 'NONE',  ( 0.000000000000000000, 0.000000000000000000, 4.000000000000000000 ) ) ;
#1067 = EDGE_LOOP ( 'NONE', ( #407, #186, #621, #80 ) ) ;
#1068 = LINE ( 'NONE', #1277, #1148 ) ;
#1069 = LINE ( 'NONE', #684, #406 ) ;
#1070 = DIRECTION ( 'NONE',  ( 1.000000000000000000, 0.000000000000000000, 0.000000000000000000 ) ) ;
#1071 = CARTESIAN_POINT ( 'NONE',  ( 0.000000000000000000, 0.000000000000000000, 6.999999999999999112 ) ) ;
#1072 = VERTEX_POINT ( 'NONE', #871 ) ;
#1073 = CIRCLE ( 'NONE', #23, 27.49999999999999645 ) ;
#1074 = LINE ( 'NONE', #443, #528 ) ;
#1075 = CARTESIAN_POINT ( 'NONE',  ( 0.000000000000000000, 0.000000000000000000, 4.000000000000000000 ) ) ;
#1076 = ORIENTED_EDGE ( 'NONE', *, *, #811, .T. ) ;
#1077 = EDGE_CURVE ( 'NONE', #510, #1112, #1198, .T. ) ;
#1078 = AXIS2_PLACEMENT_3D ( 'NONE', #643, #1155, #31 ) ;
#1079 = DIRECTION ( 'NONE',  ( -0.000000000000000000, -0.000000000000000000, -1.000000000000000000 ) ) ;
#1080 = EDGE_CURVE ( 'NONE', #788, #510, #67, .T. ) ;
#1081 = CARTESIAN_POINT ( 'NONE',  ( 1.051458378665685922, 24.47742705592100521, 0.9000000000000002442 ) ) ;
#1082 = DIRECTION ( 'NONE',  ( 0.000000000000000000, 0.000000000000000000, 1.000000000000000000 ) ) ;
#1083 = ORIENTED_EDGE ( 'NONE', *, *, #1213, .T. ) ;
#1084 = FACE_OUTER_BOUND ( 'NONE', #561, .T. ) ;
#1085 = FACE_OUTER_BOUND ( 'NONE', #556, .T. ) ;
#1086 = EDGE_LOOP ( 'NONE', ( #908, #570, #284, #706, #863, #616, #969, #1295, #866, #940, #294, #722, #102, #504, #187, #660 ) ) ;
#1087 = PLANE ( 'NONE',  #1143 ) ;
#1088 = AXIS2_PLACEMENT_3D ( 'NONE', #46, #1285, #588 ) ;
#1089 = ADVANCED_FACE ( 'NONE', ( #1183 ), #389, .T. ) ;
#1090 = DIRECTION ( 'NONE',  ( 1.000000000000000000, 0.000000000000000000, 0.000000000000000000 ) ) ;
#1091 = EDGE_LOOP ( 'NONE', ( #132, #362, #1076, #529 ) ) ;
#1092 = CIRCLE ( 'NONE', #918, 17.10000000000000142 ) ;
#1093 = ORIENTED_EDGE ( 'NONE', *, *, #304, .T. ) ;
#1094 = DIRECTION ( 'NONE',  ( 1.000000000000000000, 0.000000000000000000, -0.000000000000000000 ) ) ;
#1095 = CARTESIAN_POINT ( 'NONE',  ( 0.000000000000000000, 0.000000000000000000, 4.000000000000000000 ) ) ;
#1096 = ORIENTED_EDGE ( 'NONE', *, *, #838, .F. ) ;
#1097 = CARTESIAN_POINT ( 'NONE',  ( -1.051458378665225624, -17.06764293269385746, 0.9000000000000002442 ) ) ;
#1098 = CARTESIAN_POINT ( 'NONE',  ( 0.000000000000000000, 0.000000000000000000, 7.100000000000000533 ) ) ;
#1099 = DIRECTION ( 'NONE',  ( 0.000000000000000000, 0.000000000000000000, 1.000000000000000000 ) ) ;
#1100 = ORIENTED_EDGE ( 'NONE', *, *, #1028, .T. ) ;
#1101 = AXIS2_PLACEMENT_3D ( 'NONE', #1278, #767, #651 ) ;
#1102 = VERTEX_POINT ( 'NONE', #328 ) ;
#1103 = VECTOR ( 'NONE', #1185, 1000.000000000000000 ) ;
#1104 = DIRECTION ( 'NONE',  ( -0.5000000000000038858, -0.8660254037844364872, 0.000000000000000000 ) ) ;
#1105 = CIRCLE ( 'NONE', #926, 27.49999999999999645 ) ;
#1106 = DIRECTION ( 'NONE',  ( 0.000000000000000000, 0.000000000000000000, 1.000000000000000000 ) ) ;
#1107 = CYLINDRICAL_SURFACE ( 'NONE', #274, 17.10000000000000142 ) ;
#1108 = PLANE ( 'NONE',  #581 ) ;
#1109 = VERTEX_POINT ( 'NONE', #744 ) ;
#1110 = EDGE_LOOP ( 'NONE', ( #623, #699, #959, #1302, #1206, #258, #954, #387, #665, #671, #267, #1276, #478, #1142, #765, #269 ) ) ;
#1111 = EDGE_CURVE ( 'NONE', #788, #149, #1318, .T. ) ;
#1112 = VERTEX_POINT ( 'NONE', #749 ) ;
#1113 = CARTESIAN_POINT ( 'NONE',  ( 1.051458378665685922, 24.47742705592100876, 6.999999999999999112 ) ) ;
#1114 = DIRECTION ( 'NONE',  ( 1.000000000000000000, 1.598721155460225418E-14, 0.000000000000000000 ) ) ;
#1115 = AXIS2_PLACEMENT_3D ( 'NONE', #472, #980, #260 ) ;
#1116 = DIRECTION ( 'NONE',  ( 1.000000000000000000, 1.332267629550187849E-14, 0.000000000000000000 ) ) ;
#1117 = VERTEX_POINT ( 'NONE', #1250 ) ;
#1118 = EDGE_LOOP ( 'NONE', ( #1181, #346, #826, #371 ) ) ;
#1119 = CARTESIAN_POINT ( 'NONE',  ( 1.051458378665685922, 17.06764293269382904, 0.9000000000000002442 ) ) ;
#1120 = VECTOR ( 'NONE', #958, 1000.000000000000000 ) ;
#1121 = FACE_OUTER_BOUND ( 'NONE', #365, .T. ) ;
#1122 = DIRECTION ( 'NONE',  ( 1.000000000000000000, 0.000000000000000000, 0.000000000000000000 ) ) ;
#1123 = ORIENTED_EDGE ( 'NONE', *, *, #1028, .F. ) ;
#1124 = AXIS2_PLACEMENT_3D ( 'NONE', #663, #259, #1094 ) ;
#1125 = ORIENTED_EDGE ( 'NONE', *, *, #748, .T. ) ;
#1126 = ADVANCED_FACE ( 'NONE', ( #10 ), #348, .F. ) ;
#1127 = CARTESIAN_POINT ( 'NONE',  ( -14.00000000000000000, 1.714505518806294244E-15, 0.9000000000000002442 ) ) ;
#1128 = EDGE_LOOP ( 'NONE', ( #1018, #1212, #480, #1004 ) ) ;
#1129 = VERTEX_POINT ( 'NONE', #224 ) ;
#1130 = CARTESIAN_POINT ( 'NONE',  ( 0.000000000000000000, 0.000000000000000000, 0.000000000000000000 ) ) ;
#1131 = VECTOR ( 'NONE', #1249, 1000.000000000000000 ) ;
#1132 = CARTESIAN_POINT ( 'NONE',  ( -21.72380283904082887, -11.32812386101430491, 6.999999999999999112 ) ) ;
#1133 = EDGE_CURVE ( 'NONE', #39, #196, #429, .T. ) ;
#1134 = ORIENTED_EDGE ( 'NONE', *, *, #66, .F. ) ;
#1135 = DATE_TIME_ROLE ( 'classification_date' ) ;
#1136 =( GEOMETRIC_REPRESENTATION_CONTEXT ( 3 ) GLOBAL_UNCERTAINTY_ASSIGNED_CONTEXT ( ( #445 ) ) GLOBAL_UNIT_ASSIGNED_CONTEXT ( ( #268, #971, #488 ) ) REPRESENTATION_CONTEXT ( 'NONE', 'WORKASPACE' ) );
#1137 = PRODUCT_RELATED_PRODUCT_CATEGORY ( 'detail', '', ( #442 ) ) ;
#1138 = ORIENTED_EDGE ( 'NONE', *, *, #783, .F. ) ;
#1139 = ADVANCED_FACE ( 'NONE', ( #1055 ), #1259, .T. ) ;
#1140 = DIRECTION ( 'NONE',  ( -2.358318100220232193E-16, 1.000000000000000000, 0.000000000000000000 ) ) ;
#1141 = AXIS2_PLACEMENT_3D ( 'NONE', #1098, #784, #1090 ) ;
#1142 = ORIENTED_EDGE ( 'NONE', *, *, #763, .T. ) ;
#1143 = AXIS2_PLACEMENT_3D ( 'NONE', #676, #1296, #163 ) ;
#1144 = EDGE_CURVE ( 'NONE', #461, #589, #965, .T. ) ;
#1145 = CARTESIAN_POINT ( 'NONE',  ( 0.000000000000000000, 0.000000000000000000, 7.000000000000000000 ) ) ;
#1146 = ORIENTED_EDGE ( 'NONE', *, *, #181, .T. ) ;
#1147 = DIRECTION ( 'NONE',  ( 1.000000000000000000, 0.000000000000000000, 0.000000000000000000 ) ) ;
#1148 = VECTOR ( 'NONE', #323, 1000.000000000000000 ) ;
#1149 = CARTESIAN_POINT ( 'NONE',  ( 0.000000000000000000, 0.000000000000000000, 6.999999999999999112 ) ) ;
#1150 = CIRCLE ( 'NONE', #814, 24.50000000000000000 ) ;
#1151 = CARTESIAN_POINT ( 'NONE',  ( 0.000000000000000000, 0.000000000000000000, 3.000000000000000000 ) ) ;
#1152 = CARTESIAN_POINT ( 'NONE',  ( 0.000000000000000000, 0.000000000000000000, 4.000000000000000000 ) ) ;
#1153 = DIRECTION ( 'NONE',  ( 0.000000000000000000, 0.000000000000000000, 1.000000000000000000 ) ) ;
#1154 = VECTOR ( 'NONE', #539, 1000.000000000000227 ) ;
#1155 = DIRECTION ( 'NONE',  ( 0.000000000000000000, 0.000000000000000000, 1.000000000000000000 ) ) ;
#1156 = ADVANCED_FACE ( 'NONE', ( #533 ), #230, .F. ) ;
#1157 = DIRECTION ( 'NONE',  ( 0.000000000000000000, 0.000000000000000000, 1.000000000000000000 ) ) ;
#1158 = CARTESIAN_POINT ( 'NONE',  ( -1.051458378665224513, -24.47742705592102652, 4.000000000000000000 ) ) ;
#1159 = CARTESIAN_POINT ( 'NONE',  ( 1.051458378665685922, 16.65544843727148105, 7.000000000000000000 ) ) ;
#1160 = CIRCLE ( 'NONE', #591, 17.10000000000000142 ) ;
#1161 = CARTESIAN_POINT ( 'NONE',  ( 17.10000000000000142, 0.000000000000000000, 4.000000000000000000 ) ) ;
#1162 = EDGE_CURVE ( 'NONE', #343, #97, #451, .T. ) ;
#1163 = CARTESIAN_POINT ( 'NONE',  ( 14.94977064743179440, 7.417134551689224864, 4.000000000000000000 ) ) ;
#1164 = DIRECTION ( 'NONE',  ( -1.000000000000000000, 0.000000000000000000, 0.000000000000000000 ) ) ;
#1165 = ORIENTED_EDGE ( 'NONE', *, *, #411, .F. ) ;
#1166 = LINE ( 'NONE', #545, #810 ) ;
#1167 = CC_DESIGN_APPROVAL ( #178, ( #94 ) ) ;
#1168 = PLANE ( 'NONE',  #1101 ) ;
#1169 = DIRECTION ( 'NONE',  ( 1.000000000000000000, 0.000000000000000000, 0.000000000000000000 ) ) ;
#1170 = DIRECTION ( 'NONE',  ( -0.000000000000000000, -0.000000000000000000, -1.000000000000000000 ) ) ;
#1171 = ORIENTED_EDGE ( 'NONE', *, *, #1144, .F. ) ;
#1172 = EDGE_CURVE ( 'NONE', #511, #859, #333, .T. ) ;
#1173 = CARTESIAN_POINT ( 'NONE',  ( 0.000000000000000000, 0.000000000000000000, 0.9000000000000002442 ) ) ;
#1174 = EDGE_LOOP ( 'NONE', ( #82, #177 ) ) ;
#1175 = CARTESIAN_POINT ( 'NONE',  ( -14.35020597063546965, -9.299547763216128970, 4.000000000000000000 ) ) ;
#1176 = CARTESIAN_POINT ( 'NONE',  ( -21.72380283904082887, -11.32812386101430135, 0.9000000000000002442 ) ) ;
#1177 = CARTESIAN_POINT ( 'NONE',  ( 1.051458378665685922, 17.06764293269383259, 6.999999999999999112 ) ) ;
#1178 = EDGE_LOOP ( 'NONE', ( #396, #65 ) ) ;
#1179 = DIRECTION ( 'NONE',  ( -0.000000000000000000, -0.000000000000000000, -1.000000000000000000 ) ) ;
#1180 = PLANE ( 'NONE',  #1088 ) ;
#1181 = ORIENTED_EDGE ( 'NONE', *, *, #512, .F. ) ;
#1182 = EDGE_CURVE ( 'NONE', #813, #1045, #650, .T. ) ;
#1183 = FACE_OUTER_BOUND ( 'NONE', #373, .T. ) ;
#1184 = LINE ( 'NONE', #760, #579 ) ;
#1185 = DIRECTION ( 'NONE',  ( -0.000000000000000000, -0.000000000000000000, -1.000000000000000000 ) ) ;
#1186 = ORIENTED_EDGE ( 'NONE', *, *, #1077, .F. ) ;
#1187 = PLANE ( 'NONE',  #1124 ) ;
#1188 = CARTESIAN_POINT ( 'NONE',  ( -0.8785416213343139047, 24.93068454851389859, 7.000000000000000000 ) ) ;
#1189 = EDGE_LOOP ( 'NONE', ( #596, #701, #728, #235 ) ) ;
#1190 = CC_DESIGN_PERSON_AND_ORGANIZATION_ASSIGNMENT ( #724, #922, ( #442 ) ) ;
#1191 = CARTESIAN_POINT ( 'NONE',  ( 0.000000000000000000, 0.000000000000000000, 4.000000000000000000 ) ) ;
#1192 = DIRECTION ( 'NONE',  ( 1.000000000000000000, 0.000000000000000000, 0.000000000000000000 ) ) ;
#1193 = FACE_OUTER_BOUND ( 'NONE', #886, .T. ) ;
#1194 = AXIS2_PLACEMENT_3D ( 'NONE', #1095, #569, #560 ) ;
#1195 = EDGE_LOOP ( 'NONE', ( #885, #792, #520, #1019 ) ) ;
#1196 = CARTESIAN_POINT ( 'NONE',  ( -14.35020597063546965, -9.299547763216128970, 6.999999999999999112 ) ) ;
#1197 = ORIENTED_EDGE ( 'NONE', *, *, #955, .T. ) ;
#1198 = LINE ( 'NONE', #691, #1246 ) ;
#1199 = CARTESIAN_POINT ( 'NONE',  ( 0.000000000000000000, 0.000000000000000000, 4.000000000000000000 ) ) ;
#1200 = PLANE ( 'NONE',  #1244 ) ;
#1201 = FACE_OUTER_BOUND ( 'NONE', #441, .T. ) ;
#1202 = EDGE_CURVE ( 'NONE', #1005, #145, #1166, .T. ) ;
#1203 = ORIENTED_EDGE ( 'NONE', *, *, #92, .F. ) ;
#1204 = AXIS2_PLACEMENT_3D ( 'NONE', #1010, #712, #78 ) ;
#1205 = CARTESIAN_POINT ( 'NONE',  ( -0.8785416213343139047, 24.93068454851389859, 7.000000000000000000 ) ) ;
#1206 = ORIENTED_EDGE ( 'NONE', *, *, #755, .T. ) ;
#1207 = AXIS2_PLACEMENT_3D ( 'NONE', #281, #35, #1209 ) ;
#1208 = CIRCLE ( 'NONE', #1264, 14.00000000000000000 ) ;
#1209 = DIRECTION ( 'NONE',  ( 1.000000000000000000, -2.842170943040400743E-14, 0.000000000000000000 ) ) ;
#1210 = DIRECTION ( 'NONE',  ( 0.000000000000000000, 0.000000000000000000, 1.000000000000000000 ) ) ;
#1211 = CARTESIAN_POINT ( 'NONE',  ( 0.000000000000000000, 0.000000000000000000, 6.999999999999999112 ) ) ;
#1212 = ORIENTED_EDGE ( 'NONE', *, *, #783, .T. ) ;
#1213 = EDGE_CURVE ( 'NONE', #634, #859, #522, .T. ) ;
#1214 = CARTESIAN_POINT ( 'NONE',  ( 21.15133534208209198, 13.22618163661438473, 7.000000000000000000 ) ) ;
#1215 = ORIENTED_EDGE ( 'NONE', *, *, #736, .F. ) ;
#1216 = CARTESIAN_POINT ( 'NONE',  ( 0.000000000000000000, 0.000000000000000000, 4.000000000000000000 ) ) ;
#1217 = CARTESIAN_POINT ( 'NONE',  ( 0.000000000000000000, 0.000000000000000000, 4.000000000000000000 ) ) ;
#1218 = CIRCLE ( 'NONE', #1115, 14.00000000000000000 ) ;
#1219 = LINE ( 'NONE', #816, #696 ) ;
#1220 = ORIENTED_EDGE ( 'NONE', *, *, #736, .T. ) ;
#1221 = CIRCLE ( 'NONE', #41, 3.000000000000000000 ) ;
#1222 = COORDINATED_UNIVERSAL_TIME_OFFSET ( 7, 0, .AHEAD. ) ;
#1223 = VERTEX_POINT ( 'NONE', #436 ) ;
#1224 = EDGE_CURVE ( 'NONE', #1279, #52, #852, .T. ) ;
#1225 = CARTESIAN_POINT ( 'NONE',  ( 0.000000000000000000, 0.000000000000000000, 4.000000000000000000 ) ) ;
#1226 = LINE ( 'NONE', #90, #881 ) ;
#1227 = ORIENTED_EDGE ( 'NONE', *, *, #710, .T. ) ;
#1228 = ORIENTED_EDGE ( 'NONE', *, *, #22, .T. ) ;
#1229 = VECTOR ( 'NONE', #463, 1000.000000000000000 ) ;
#1230 = CLOSED_SHELL ( 'NONE', ( #1036, #1126, #435, #698, #929, #243, #553, #341, #625, #491, #923, #1253, #20, #1139, #686, #941, #964, #654, #987, #168, #213, #1282, #450, #1270, #418, #1156, #77, #977, #321, #519, #877, #615, #354, #482, #1313, #719, #906, #188, #7, #1089 ) ) ;
#1231 = EDGE_CURVE ( 'NONE', #1117, #890, #397, .T. ) ;
#1232 = DIRECTION ( 'NONE',  ( 1.000000000000000000, 0.000000000000000000, 0.000000000000000000 ) ) ;
#1233 = VERTEX_POINT ( 'NONE', #658 ) ;
#1234 = CIRCLE ( 'NONE', #59, 24.50000000000000000 ) ;
#1235 = COORDINATED_UNIVERSAL_TIME_OFFSET ( 7, 0, .AHEAD. ) ;
#1236 = CIRCLE ( 'NONE', #413, 24.49999999999999645 ) ;
#1237 = CC_DESIGN_DATE_AND_TIME_ASSIGNMENT ( #716, #1135, ( #94 ) ) ;
#1238 = EDGE_CURVE ( 'NONE', #1223, #250, #1068, .T. ) ;
#1239 = VERTEX_POINT ( 'NONE', #1175 ) ;
#1240 = DIRECTION ( 'NONE',  ( 1.000000000000000000, 0.000000000000000000, -0.000000000000000000 ) ) ;
#1241 = ORIENTED_EDGE ( 'NONE', *, *, #955, .F. ) ;
#1242 = EDGE_CURVE ( 'NONE', #682, #770, #246, .T. ) ;
#1243 = CARTESIAN_POINT ( 'NONE',  ( 0.000000000000000000, 0.000000000000000000, 4.000000000000000000 ) ) ;
#1244 = AXIS2_PLACEMENT_3D ( 'NONE', #894, #1104, #40 ) ;
#1245 = ORIENTED_EDGE ( 'NONE', *, *, #790, .T. ) ;
#1246 = VECTOR ( 'NONE', #590, 1000.000000000000000 ) ;
#1247 = DIRECTION ( 'NONE',  ( 1.000000000000000000, 0.000000000000000000, 0.000000000000000000 ) ) ;
#1248 = EDGE_CURVE ( 'NONE', #510, #1273, #1275, .T. ) ;
#1249 = DIRECTION ( 'NONE',  ( 0.000000000000000000, 0.000000000000000000, 1.000000000000000000 ) ) ;
#1250 = CARTESIAN_POINT ( 'NONE',  ( -7.875000000000000000, 0.000000000000000000, 0.000000000000000000 ) ) ;
#1251 = DIRECTION ( 'NONE',  ( -0.8660254037844363761, 0.5000000000000038858, 0.000000000000000000 ) ) ;
#1252 = FACE_OUTER_BOUND ( 'NONE', #1128, .T. ) ;
#1253 = ADVANCED_FACE ( 'NONE', ( #1301 ), #170, .T. ) ;
#1254 = PRODUCT_DEFINITION_FORMATION_WITH_SPECIFIED_SOURCE ( 'ANY', '', #442, .NOT_KNOWN. ) ;
#1255 = CARTESIAN_POINT ( 'NONE',  ( -0.8785416213343139047, 24.48424319066413801, 0.9000000000000002442 ) ) ;
#1256 = DIRECTION ( 'NONE',  ( -0.8660254037844363761, 0.5000000000000039968, 0.000000000000000000 ) ) ;
#1257 = CARTESIAN_POINT ( 'NONE',  ( 1.051458378665685922, 16.65544843727148105, 7.000000000000000000 ) ) ;
#1258 = EDGE_CURVE ( 'NONE', #97, #343, #1218, .T. ) ;
#1259 = PLANE ( 'NONE',  #498 ) ;
#1260 = CARTESIAN_POINT ( 'NONE',  ( 13.89831226876605008, -9.238313885582289942, 7.000000000000000000 ) ) ;
#1261 = CIRCLE ( 'NONE', #1052, 17.10000000000000142 ) ;
#1262 = CARTESIAN_POINT ( 'NONE',  ( 0.000000000000000000, 0.000000000000000000, 7.000000000000000000 ) ) ;
#1263 = VECTOR ( 'NONE', #298, 1000.000000000000000 ) ;
#1264 = AXIS2_PLACEMENT_3D ( 'NONE', #1191, #982, #467 ) ;
#1265 = DIRECTION ( 'NONE',  ( -0.000000000000000000, -0.000000000000000000, -1.000000000000000000 ) ) ;
#1266 = VERTEX_POINT ( 'NONE', #1294 ) ;
#1267 = DIRECTION ( 'NONE',  ( -0.000000000000000000, -0.000000000000000000, -1.000000000000000000 ) ) ;
#1268 = EDGE_CURVE ( 'NONE', #1279, #1005, #674, .T. ) ;
#1269 = CARTESIAN_POINT ( 'NONE',  ( 0.000000000000000000, 0.000000000000000000, 4.000000000000000000 ) ) ;
#1270 = ADVANCED_FACE ( 'NONE', ( #64 ), #1180, .T. ) ;
#1271 = AXIS2_PLACEMENT_3D ( 'NONE', #1152, #855, #25 ) ;
#1272 = LINE ( 'NONE', #646, #62 ) ;
#1273 = VERTEX_POINT ( 'NONE', #997 ) ;
#1274 = DIRECTION ( 'NONE',  ( 0.000000000000000000, 0.000000000000000000, 1.000000000000000000 ) ) ;
#1275 = CIRCLE ( 'NONE', #324, 17.10000000000000142 ) ;
#1276 = ORIENTED_EDGE ( 'NONE', *, *, #1202, .T. ) ;
#1277 = CARTESIAN_POINT ( 'NONE',  ( 21.64324740621839993, -11.48128223297467976, 0.9000000000000002442 ) ) ;
#1278 = CARTESIAN_POINT ( 'NONE',  ( 0.000000000000000000, 0.000000000000000000, 7.000000000000000000 ) ) ;
#1279 = VERTEX_POINT ( 'NONE', #879 ) ;
#1280 = DIRECTION ( 'NONE',  ( 0.000000000000000000, 0.000000000000000000, 1.000000000000000000 ) ) ;
#1281 = ORIENTED_EDGE ( 'NONE', *, *, #523, .T. ) ;
#1282 = ADVANCED_FACE ( 'NONE', ( #1085 ), #252, .F. ) ;
#1283 = VECTOR ( 'NONE', #751, 1000.000000000000000 ) ;
#1284 = DIRECTION ( 'NONE',  ( 1.000000000000000000, 0.000000000000000000, 0.000000000000000000 ) ) ;
#1285 = DIRECTION ( 'NONE',  ( 0.000000000000000000, 0.000000000000000000, 1.000000000000000000 ) ) ;
#1286 = EDGE_LOOP ( 'NONE', ( #314, #444, #1083, #276 ) ) ;
#1287 = CARTESIAN_POINT ( 'NONE',  ( 0.000000000000000000, 0.000000000000000000, 6.999999999999999112 ) ) ;
#1288 = CIRCLE ( 'NONE', #718, 24.50000000000000000 ) ;
#1289 = DIRECTION ( 'NONE',  ( 0.8660254037844363761, -0.5000000000000041078, 0.000000000000000000 ) ) ;
#1290 = DIRECTION ( 'NONE',  ( -0.8660254037844363761, 0.5000000000000038858, 0.000000000000000000 ) ) ;
#1291 = ORIENTED_EDGE ( 'NONE', *, *, #1231, .F. ) ;
#1292 = PRODUCT_DEFINITION ( 'UNKNOWN', '', #1254, #657 ) ;
#1293 = FACE_OUTER_BOUND ( 'NONE', #159, .T. ) ;
#1294 = CARTESIAN_POINT ( 'NONE',  ( 21.72380283904100295, 11.32812386101397095, 6.999999999999999112 ) ) ;
#1295 = ORIENTED_EDGE ( 'NONE', *, *, #277, .F. ) ;
#1296 = DIRECTION ( 'NONE',  ( -0.000000000000000000, 0.000000000000000000, 1.000000000000000000 ) ) ;
#1297 = LINE ( 'NONE', #256, #902 ) ;
#1298 = DIRECTION ( 'NONE',  ( 1.000000000000000000, 0.000000000000000000, 0.000000000000000000 ) ) ;
#1299 = ORIENTED_EDGE ( 'NONE', *, *, #462, .F. ) ;
#1300 = AXIS2_PLACEMENT_3D ( 'NONE', #1145, #943, #1240 ) ;
#1301 = FACE_OUTER_BOUND ( 'NONE', #998, .T. ) ;
#1302 = ORIENTED_EDGE ( 'NONE', *, *, #1182, .F. ) ;
#1303 = DIRECTION ( 'NONE',  ( 1.000000000000000000, 0.000000000000000000, 0.000000000000000000 ) ) ;
#1304 = EDGE_CURVE ( 'NONE', #141, #672, #566, .T. ) ;
#1305 = CARTESIAN_POINT ( 'NONE',  ( 0.000000000000000000, 0.000000000000000000, 6.999999999999999112 ) ) ;
#1306 = VERTEX_POINT ( 'NONE', #1196 ) ;
#1307 = CIRCLE ( 'NONE', #1194, 17.10000000000000142 ) ;
#1308 = ORIENTED_EDGE ( 'NONE', *, *, #853, .F. ) ;
#1309 = DIRECTION ( 'NONE',  ( 0.000000000000000000, 0.000000000000000000, 1.000000000000000000 ) ) ;
#1310 = ORIENTED_EDGE ( 'NONE', *, *, #1242, .T. ) ;
#1311 = LINE ( 'NONE', #154, #101 ) ;
#1312 = DIRECTION ( 'NONE',  ( 0.000000000000000000, 0.000000000000000000, 1.000000000000000000 ) ) ;
#1313 = ADVANCED_FACE ( 'NONE', ( #479 ), #179, .F. ) ;
#1314 = FACE_OUTER_BOUND ( 'NONE', #1174, .T. ) ;
#1315 = DIRECTION ( 'NONE',  ( 1.000000000000000000, 0.000000000000000000, -0.000000000000000000 ) ) ;
#1316 = ORIENTED_EDGE ( 'NONE', *, *, #414, .T. ) ;
#1317 = ORIENTED_EDGE ( 'NONE', *, *, #428, .F. ) ;
#1318 = CIRCLE ( 'NONE', #318, 24.50000000000000000 ) ;
#1319 = CARTESIAN_POINT ( 'NONE',  ( 14.35020597063542347, 9.299547763216201801, 4.000000000000000000 ) ) ;
#1320 = PLANE ( 'NONE',  #494 ) ;
#1321 = DIRECTION ( 'NONE',  ( 1.310176722344573468E-16, -1.000000000000000000, 0.000000000000000000 ) ) ;
#1322 = EDGE_CURVE ( 'NONE', #912, #394, #772, .T. ) ;
#1323 = APPLICATION_CONTEXT ( 'configuration controlled 3d designs of mechanical parts and assemblies' ) ;
#1324 = ORIENTED_EDGE ( 'NONE', *, *, #838, .T. ) ;
#1325 = VERTEX_POINT ( 'NONE', #144 ) ;
#1326 = EDGE_CURVE ( 'NONE', #1239, #612, #745, .T. ) ;
#1327 = CALENDAR_DATE ( 2026, 28, 8 ) ;
#1328 = ORIENTED_EDGE ( 'NONE', *, *, #462, .T. ) ;
#1329 = CYLINDRICAL_SURFACE ( 'NONE', #385, 27.49999999999999645 ) ;
#1330 = AXIS2_PLACEMENT_3D ( 'NONE', #372, #787, #152 ) ;
#1331 = DIRECTION ( 'NONE',  ( 0.000000000000000000, 0.000000000000000000, 1.000000000000000000 ) ) ;
#1332 = VERTEX_POINT ( 'NONE', #73 ) ;
#1333 = ORIENTED_EDGE ( 'NONE', *, *, #99, .T. ) ;
#1334 = EDGE_CURVE ( 'NONE', #261, #300, #1307, .T. ) ;
#1335 = DATE_TIME_ROLE ( 'creation_date' ) ;
#1336 = ORIENTED_EDGE ( 'NONE', *, *, #645, .T. ) ;
#1337 = DIRECTION ( 'NONE',  ( -0.000000000000000000, 0.000000000000000000, 1.000000000000000000 ) ) ;
#1338 = ORIENTED_EDGE ( 'NONE', *, *, #355, .F. ) ;
#1339 = ORIENTED_EDGE ( 'NONE', *, *, #1133, .T. ) ;
#1340 = VECTOR ( 'NONE', #950, 1000.000000000000000 ) ;
#1341 = COORDINATED_UNIVERSAL_TIME_OFFSET ( 7, 0, .AHEAD. ) ;
#1342 = VECTOR ( 'NONE', #76, 1000.000000000000000 ) ;
#1343 = ORIENTED_EDGE ( 'NONE', *, *, #934, .T. ) ;
#1344 = PERSON_AND_ORGANIZATION ( #952, #347 ) ;
#1345 = EDGE_CURVE ( 'NONE', #1045, #524, #1092, .T. ) ;
#1346 = ORIENTED_EDGE ( 'NONE', *, *, #748, .F. ) ;
#1347 = DIRECTION ( 'NONE',  ( 1.000000000000000000, 0.000000000000000000, 0.000000000000000000 ) ) ;
ENDSEC;
END-ISO-10303-21;
