ISO-10303-21;
HEADER;
/* Generated by software containing ST-Developer
 * from STEP Tools, Inc. (www.steptools.com) 
 */
/* OPTION: using custom renumber hook */

FILE_DESCRIPTION(
/* description */ ('STEP AP242 Edition 2',
'CAx-IF Rec.Pracs.---Representation and Presentation of Product Manufa
cturing Information (PMI)---4.0---2014-10-13',
'CAx-IF Rec.Pracs.---3D Tessellated Geometry---0.4---2014-09-14','2;1',
'CAx-IF Rec.Pracs.---User Defined Attributes---1.5---2016-08-15'),
/* implementation_level */ '2;1');

FILE_NAME(
/* name */ 'bd0d1190-edd2-4fbc-a423-27c53d4d25d3',
/* time_stamp */ '2026-09-25T11:21:42Z',
/* author */ (''),
/* organization */ (''),
/* preprocessor_version */ 'ST-DEVELOPER v20',
/* originating_system */ 'ONSHAPE BY PTC INC, 1.221',
/* authorisation */ '  ');

FILE_SCHEMA (('AP242_MANAGED_MODEL_BASED_3D_ENGINEERING_MIM_LF { 1 0 10303 442 3 1 4 }'));
ENDSEC;

DATA;
#10=SHAPE_REPRESENTATION_RELATIONSHIP('','',#735,#11);
#11=ADVANCED_BREP_SHAPE_REPRESENTATION('',(#733),#1315);
#12=CONICAL_SURFACE('',#818,0.0054,0.785398163397446);
#13=B_SPLINE_CURVE_WITH_KNOTS('',3,(#1058,#1059,#1060,#1061,#1062,#1063,
#1064),.UNSPECIFIED.,.F.,.F.,(4,1,1,1,4),(1.9716147242562E-7,0.00312806046472912,
0.00625592376798582,0.00938378707124251,0.0125116503744992),
 .UNSPECIFIED.);
#14=B_SPLINE_CURVE_WITH_KNOTS('',3,(#1065,#1066,#1067,#1068,#1069,#1070,
#1071),.UNSPECIFIED.,.F.,.F.,(4,1,1,1,4),(0.0119532033574144,0.0150823585418944,
0.0182115137263744,0.0213406689108544,0.0244698240953344),.UNSPECIFIED.);
#15=B_SPLINE_CURVE_WITH_KNOTS('',3,(#1097,#1098,#1099,#1100,#1101,#1102,
#1103),.UNSPECIFIED.,.F.,.F.,(4,1,1,1,4),(1.9716147242562E-7,0.00312806046472912,
0.00625592376798582,0.00938378707124252,0.0125116503744992),
 .UNSPECIFIED.);
#16=B_SPLINE_CURVE_WITH_KNOTS('',3,(#1104,#1105,#1106,#1107,#1108,#1109,
#1110),.UNSPECIFIED.,.F.,.F.,(4,1,1,1,4),(0.0400973238062901,0.043222204690731,
0.0463470855751719,0.0494719664596127,0.0525968473440536),.UNSPECIFIED.);
#17=B_SPLINE_CURVE_WITH_KNOTS('',3,(#1136,#1137,#1138,#1139,#1140,#1141,
#1142),.UNSPECIFIED.,.F.,.F.,(4,1,1,1,4),(0.0474892693607331,0.0506142941549574,
0.0537393189491817,0.056864343743406,0.0599893685376304),.UNSPECIFIED.);
#18=B_SPLINE_CURVE_WITH_KNOTS('',3,(#1143,#1144,#1145,#1146,#1147,#1148,
#1149),.UNSPECIFIED.,.F.,.F.,(4,1,1,1,4),(0.0119532033574116,0.0150823585418916,
0.0182115137263716,0.0213406689108515,0.0244698240953315),.UNSPECIFIED.);
#19=B_SPLINE_CURVE_WITH_KNOTS('',3,(#1175,#1176,#1177,#1178,#1179,#1180,
#1181),.UNSPECIFIED.,.F.,.F.,(4,1,1,1,4),(1.97161472426475E-7,0.00312806046472912,
0.00625592376798582,0.00938378707124251,0.0125116503744992),
 .UNSPECIFIED.);
#20=B_SPLINE_CURVE_WITH_KNOTS('',3,(#1182,#1183,#1184,#1185,#1186,#1187,
#1188),.UNSPECIFIED.,.F.,.F.,(4,1,1,1,4),(0.0119532033574046,0.0150823585418845,
0.0182115137263645,0.0213406689108444,0.0244698240953244),.UNSPECIFIED.);
#21=B_SPLINE_CURVE_WITH_KNOTS('',3,(#1214,#1215,#1216,#1217,#1218,#1219,
#1220),.UNSPECIFIED.,.F.,.F.,(4,1,1,1,4),(1.97161472424765E-7,0.00312806046472912,
0.00625592376798582,0.00938378707124251,0.0125116503744992),
 .UNSPECIFIED.);
#22=B_SPLINE_CURVE_WITH_KNOTS('',3,(#1221,#1222,#1223,#1224,#1225),
 .UNSPECIFIED.,.F.,.F.,(4,1,4),(0.00994546859934374,0.0161983473895836,
0.0224512261798234),.UNSPECIFIED.);
#23=B_SPLINE_CURVE_WITH_KNOTS('',3,(#1278,#1279,#1280,#1281,#1282,#1283,
#1284),.UNSPECIFIED.,.F.,.F.,(4,1,1,1,4),(0.0119532033574201,0.0150823585419001,
0.0182115137263801,0.0213406689108601,0.0244698240953401),.UNSPECIFIED.);
#24=B_SPLINE_CURVE_WITH_KNOTS('',3,(#1285,#1286,#1287,#1288,#1289,#1290,
#1291),.UNSPECIFIED.,.F.,.F.,(4,1,1,1,4),(0.0275913491596481,0.0307197461527334,
0.0338481431458188,0.0369765401389041,0.0401049371319895),.UNSPECIFIED.);
#25=TOROIDAL_SURFACE('',#746,0.017,0.008);
#26=TOROIDAL_SURFACE('',#755,0.017,0.008);
#27=TOROIDAL_SURFACE('',#764,0.017,0.008);
#28=TOROIDAL_SURFACE('',#773,0.017,0.008);
#29=TOROIDAL_SURFACE('',#782,0.017,0.008);
#30=TOROIDAL_SURFACE('',#794,0.017,0.01);
#31=TOROIDAL_SURFACE('',#800,0.017,0.008);
#32=PLANE('',#743);
#33=PLANE('',#752);
#34=PLANE('',#761);
#35=PLANE('',#770);
#36=PLANE('',#779);
#37=PLANE('',#788);
#38=PLANE('',#791);
#39=PLANE('',#797);
#40=PLANE('',#802);
#41=PLANE('',#803);
#42=PLANE('',#804);
#43=PLANE('',#805);
#44=PLANE('',#806);
#45=PLANE('',#807);
#46=PLANE('',#808);
#47=PLANE('',#809);
#48=PLANE('',#810);
#49=PLANE('',#811);
#50=PLANE('',#812);
#51=PLANE('',#813);
#52=PLANE('',#814);
#53=LINE('',#1040,#101);
#54=LINE('',#1045,#102);
#55=LINE('',#1052,#103);
#56=LINE('',#1056,#104);
#57=LINE('',#1076,#105);
#58=LINE('',#1077,#106);
#59=LINE('',#1079,#107);
#60=LINE('',#1084,#108);
#61=LINE('',#1091,#109);
#62=LINE('',#1095,#110);
#63=LINE('',#1115,#111);
#64=LINE('',#1116,#112);
#65=LINE('',#1118,#113);
#66=LINE('',#1123,#114);
#67=LINE('',#1130,#115);
#68=LINE('',#1134,#116);
#69=LINE('',#1154,#117);
#70=LINE('',#1155,#118);
#71=LINE('',#1157,#119);
#72=LINE('',#1162,#120);
#73=LINE('',#1169,#121);
#74=LINE('',#1173,#122);
#75=LINE('',#1193,#123);
#76=LINE('',#1194,#124);
#77=LINE('',#1196,#125);
#78=LINE('',#1201,#126);
#79=LINE('',#1208,#127);
#80=LINE('',#1212,#128);
#81=LINE('',#1230,#129);
#82=LINE('',#1231,#130);
#83=LINE('',#1243,#131);
#84=LINE('',#1248,#132);
#85=LINE('',#1251,#133);
#86=LINE('',#1252,#134);
#87=LINE('',#1253,#135);
#88=LINE('',#1254,#136);
#89=LINE('',#1255,#137);
#90=LINE('',#1256,#138);
#91=LINE('',#1257,#139);
#92=LINE('',#1258,#140);
#93=LINE('',#1259,#141);
#94=LINE('',#1260,#142);
#95=LINE('',#1263,#143);
#96=LINE('',#1267,#144);
#97=LINE('',#1272,#145);
#98=LINE('',#1276,#146);
#99=LINE('',#1293,#147);
#100=LINE('',#1294,#148);
#101=VECTOR('',#829,1.);
#102=VECTOR('',#832,1.);
#103=VECTOR('',#839,1.);
#104=VECTOR('',#842,1.);
#105=VECTOR('',#849,1.);
#106=VECTOR('',#850,1.);
#107=VECTOR('',#853,1.);
#108=VECTOR('',#856,1.);
#109=VECTOR('',#863,1.);
#110=VECTOR('',#866,1.);
#111=VECTOR('',#873,1.);
#112=VECTOR('',#874,1.);
#113=VECTOR('',#877,1.);
#114=VECTOR('',#880,1.);
#115=VECTOR('',#887,1.);
#116=VECTOR('',#890,1.);
#117=VECTOR('',#897,1.);
#118=VECTOR('',#898,1.);
#119=VECTOR('',#901,1.);
#120=VECTOR('',#904,1.);
#121=VECTOR('',#911,1.);
#122=VECTOR('',#914,1.);
#123=VECTOR('',#921,1.);
#124=VECTOR('',#922,1.);
#125=VECTOR('',#925,1.);
#126=VECTOR('',#928,1.);
#127=VECTOR('',#935,1.);
#128=VECTOR('',#938,1.);
#129=VECTOR('',#945,1.);
#130=VECTOR('',#946,1.);
#131=VECTOR('',#961,1.);
#132=VECTOR('',#964,1.);
#133=VECTOR('',#967,1.);
#134=VECTOR('',#968,1.);
#135=VECTOR('',#969,1.);
#136=VECTOR('',#970,1.);
#137=VECTOR('',#971,1.);
#138=VECTOR('',#972,1.);
#139=VECTOR('',#973,1.);
#140=VECTOR('',#974,1.);
#141=VECTOR('',#975,1.);
#142=VECTOR('',#976,1.);
#143=VECTOR('',#981,1.);
#144=VECTOR('',#984,1.);
#145=VECTOR('',#989,1.);
#146=VECTOR('',#992,1.);
#147=VECTOR('',#997,1.);
#148=VECTOR('',#998,1.);
#149=ORIENTED_EDGE('',*,*,#345,.T.);
#150=ORIENTED_EDGE('',*,*,#346,.T.);
#151=ORIENTED_EDGE('',*,*,#347,.T.);
#152=ORIENTED_EDGE('',*,*,#348,.F.);
#153=ORIENTED_EDGE('',*,*,#349,.T.);
#154=ORIENTED_EDGE('',*,*,#350,.F.);
#155=ORIENTED_EDGE('',*,*,#351,.F.);
#156=ORIENTED_EDGE('',*,*,#352,.F.);
#157=ORIENTED_EDGE('',*,*,#353,.F.);
#158=ORIENTED_EDGE('',*,*,#354,.F.);
#159=ORIENTED_EDGE('',*,*,#353,.T.);
#160=ORIENTED_EDGE('',*,*,#355,.F.);
#161=ORIENTED_EDGE('',*,*,#350,.T.);
#162=ORIENTED_EDGE('',*,*,#356,.F.);
#163=ORIENTED_EDGE('',*,*,#357,.F.);
#164=ORIENTED_EDGE('',*,*,#358,.F.);
#165=ORIENTED_EDGE('',*,*,#351,.T.);
#166=ORIENTED_EDGE('',*,*,#359,.F.);
#167=ORIENTED_EDGE('',*,*,#360,.T.);
#168=ORIENTED_EDGE('',*,*,#361,.F.);
#169=ORIENTED_EDGE('',*,*,#362,.T.);
#170=ORIENTED_EDGE('',*,*,#363,.F.);
#171=ORIENTED_EDGE('',*,*,#364,.F.);
#172=ORIENTED_EDGE('',*,*,#365,.F.);
#173=ORIENTED_EDGE('',*,*,#366,.F.);
#174=ORIENTED_EDGE('',*,*,#367,.F.);
#175=ORIENTED_EDGE('',*,*,#366,.T.);
#176=ORIENTED_EDGE('',*,*,#368,.F.);
#177=ORIENTED_EDGE('',*,*,#363,.T.);
#178=ORIENTED_EDGE('',*,*,#369,.F.);
#179=ORIENTED_EDGE('',*,*,#370,.F.);
#180=ORIENTED_EDGE('',*,*,#371,.F.);
#181=ORIENTED_EDGE('',*,*,#364,.T.);
#182=ORIENTED_EDGE('',*,*,#372,.F.);
#183=ORIENTED_EDGE('',*,*,#373,.T.);
#184=ORIENTED_EDGE('',*,*,#374,.F.);
#185=ORIENTED_EDGE('',*,*,#375,.T.);
#186=ORIENTED_EDGE('',*,*,#376,.F.);
#187=ORIENTED_EDGE('',*,*,#377,.F.);
#188=ORIENTED_EDGE('',*,*,#378,.F.);
#189=ORIENTED_EDGE('',*,*,#379,.F.);
#190=ORIENTED_EDGE('',*,*,#380,.F.);
#191=ORIENTED_EDGE('',*,*,#379,.T.);
#192=ORIENTED_EDGE('',*,*,#381,.F.);
#193=ORIENTED_EDGE('',*,*,#376,.T.);
#194=ORIENTED_EDGE('',*,*,#382,.F.);
#195=ORIENTED_EDGE('',*,*,#383,.F.);
#196=ORIENTED_EDGE('',*,*,#384,.F.);
#197=ORIENTED_EDGE('',*,*,#377,.T.);
#198=ORIENTED_EDGE('',*,*,#385,.F.);
#199=ORIENTED_EDGE('',*,*,#386,.T.);
#200=ORIENTED_EDGE('',*,*,#387,.F.);
#201=ORIENTED_EDGE('',*,*,#388,.T.);
#202=ORIENTED_EDGE('',*,*,#389,.F.);
#203=ORIENTED_EDGE('',*,*,#390,.F.);
#204=ORIENTED_EDGE('',*,*,#391,.F.);
#205=ORIENTED_EDGE('',*,*,#392,.F.);
#206=ORIENTED_EDGE('',*,*,#393,.F.);
#207=ORIENTED_EDGE('',*,*,#392,.T.);
#208=ORIENTED_EDGE('',*,*,#394,.F.);
#209=ORIENTED_EDGE('',*,*,#389,.T.);
#210=ORIENTED_EDGE('',*,*,#395,.F.);
#211=ORIENTED_EDGE('',*,*,#396,.F.);
#212=ORIENTED_EDGE('',*,*,#397,.F.);
#213=ORIENTED_EDGE('',*,*,#390,.T.);
#214=ORIENTED_EDGE('',*,*,#398,.F.);
#215=ORIENTED_EDGE('',*,*,#399,.T.);
#216=ORIENTED_EDGE('',*,*,#400,.F.);
#217=ORIENTED_EDGE('',*,*,#401,.T.);
#218=ORIENTED_EDGE('',*,*,#402,.F.);
#219=ORIENTED_EDGE('',*,*,#403,.F.);
#220=ORIENTED_EDGE('',*,*,#404,.F.);
#221=ORIENTED_EDGE('',*,*,#405,.F.);
#222=ORIENTED_EDGE('',*,*,#406,.F.);
#223=ORIENTED_EDGE('',*,*,#405,.T.);
#224=ORIENTED_EDGE('',*,*,#407,.F.);
#225=ORIENTED_EDGE('',*,*,#402,.T.);
#226=ORIENTED_EDGE('',*,*,#408,.F.);
#227=ORIENTED_EDGE('',*,*,#409,.F.);
#228=ORIENTED_EDGE('',*,*,#410,.F.);
#229=ORIENTED_EDGE('',*,*,#403,.T.);
#230=ORIENTED_EDGE('',*,*,#411,.F.);
#231=ORIENTED_EDGE('',*,*,#412,.T.);
#232=ORIENTED_EDGE('',*,*,#413,.T.);
#233=ORIENTED_EDGE('',*,*,#414,.F.);
#234=ORIENTED_EDGE('',*,*,#415,.T.);
#235=ORIENTED_EDGE('',*,*,#416,.T.);
#236=ORIENTED_EDGE('',*,*,#417,.T.);
#237=ORIENTED_EDGE('',*,*,#418,.T.);
#238=ORIENTED_EDGE('',*,*,#419,.T.);
#239=ORIENTED_EDGE('',*,*,#420,.T.);
#240=ORIENTED_EDGE('',*,*,#348,.T.);
#241=ORIENTED_EDGE('',*,*,#421,.T.);
#242=ORIENTED_EDGE('',*,*,#357,.T.);
#243=ORIENTED_EDGE('',*,*,#422,.T.);
#244=ORIENTED_EDGE('',*,*,#361,.T.);
#245=ORIENTED_EDGE('',*,*,#423,.T.);
#246=ORIENTED_EDGE('',*,*,#370,.T.);
#247=ORIENTED_EDGE('',*,*,#424,.T.);
#248=ORIENTED_EDGE('',*,*,#374,.T.);
#249=ORIENTED_EDGE('',*,*,#425,.T.);
#250=ORIENTED_EDGE('',*,*,#383,.T.);
#251=ORIENTED_EDGE('',*,*,#426,.T.);
#252=ORIENTED_EDGE('',*,*,#387,.T.);
#253=ORIENTED_EDGE('',*,*,#427,.T.);
#254=ORIENTED_EDGE('',*,*,#396,.T.);
#255=ORIENTED_EDGE('',*,*,#400,.T.);
#256=ORIENTED_EDGE('',*,*,#428,.T.);
#257=ORIENTED_EDGE('',*,*,#409,.T.);
#258=ORIENTED_EDGE('',*,*,#429,.T.);
#259=ORIENTED_EDGE('',*,*,#413,.F.);
#260=ORIENTED_EDGE('',*,*,#346,.F.);
#261=ORIENTED_EDGE('',*,*,#412,.F.);
#262=ORIENTED_EDGE('',*,*,#415,.F.);
#263=ORIENTED_EDGE('',*,*,#430,.T.);
#264=ORIENTED_EDGE('',*,*,#431,.F.);
#265=ORIENTED_EDGE('',*,*,#432,.T.);
#266=ORIENTED_EDGE('',*,*,#417,.F.);
#267=ORIENTED_EDGE('',*,*,#433,.F.);
#268=ORIENTED_EDGE('',*,*,#434,.F.);
#269=ORIENTED_EDGE('',*,*,#435,.F.);
#270=ORIENTED_EDGE('',*,*,#436,.F.);
#271=ORIENTED_EDGE('',*,*,#431,.T.);
#272=ORIENTED_EDGE('',*,*,#437,.F.);
#273=ORIENTED_EDGE('',*,*,#433,.T.);
#274=ORIENTED_EDGE('',*,*,#438,.F.);
#275=ORIENTED_EDGE('',*,*,#435,.T.);
#276=ORIENTED_EDGE('',*,*,#439,.F.);
#277=ORIENTED_EDGE('',*,*,#419,.F.);
#278=ORIENTED_EDGE('',*,*,#440,.F.);
#279=ORIENTED_EDGE('',*,*,#429,.F.);
#280=ORIENTED_EDGE('',*,*,#411,.T.);
#281=ORIENTED_EDGE('',*,*,#406,.T.);
#282=ORIENTED_EDGE('',*,*,#408,.T.);
#283=ORIENTED_EDGE('',*,*,#401,.F.);
#284=ORIENTED_EDGE('',*,*,#436,.T.);
#285=ORIENTED_EDGE('',*,*,#440,.T.);
#286=ORIENTED_EDGE('',*,*,#418,.F.);
#287=ORIENTED_EDGE('',*,*,#432,.F.);
#288=ORIENTED_EDGE('',*,*,#438,.T.);
#289=ORIENTED_EDGE('',*,*,#426,.F.);
#290=ORIENTED_EDGE('',*,*,#398,.T.);
#291=ORIENTED_EDGE('',*,*,#393,.T.);
#292=ORIENTED_EDGE('',*,*,#395,.T.);
#293=ORIENTED_EDGE('',*,*,#388,.F.);
#294=ORIENTED_EDGE('',*,*,#404,.T.);
#295=ORIENTED_EDGE('',*,*,#410,.T.);
#296=ORIENTED_EDGE('',*,*,#428,.F.);
#297=ORIENTED_EDGE('',*,*,#399,.F.);
#298=ORIENTED_EDGE('',*,*,#407,.T.);
#299=ORIENTED_EDGE('',*,*,#424,.F.);
#300=ORIENTED_EDGE('',*,*,#385,.T.);
#301=ORIENTED_EDGE('',*,*,#380,.T.);
#302=ORIENTED_EDGE('',*,*,#382,.T.);
#303=ORIENTED_EDGE('',*,*,#375,.F.);
#304=ORIENTED_EDGE('',*,*,#391,.T.);
#305=ORIENTED_EDGE('',*,*,#397,.T.);
#306=ORIENTED_EDGE('',*,*,#427,.F.);
#307=ORIENTED_EDGE('',*,*,#386,.F.);
#308=ORIENTED_EDGE('',*,*,#394,.T.);
#309=ORIENTED_EDGE('',*,*,#422,.F.);
#310=ORIENTED_EDGE('',*,*,#372,.T.);
#311=ORIENTED_EDGE('',*,*,#367,.T.);
#312=ORIENTED_EDGE('',*,*,#369,.T.);
#313=ORIENTED_EDGE('',*,*,#362,.F.);
#314=ORIENTED_EDGE('',*,*,#378,.T.);
#315=ORIENTED_EDGE('',*,*,#384,.T.);
#316=ORIENTED_EDGE('',*,*,#425,.F.);
#317=ORIENTED_EDGE('',*,*,#373,.F.);
#318=ORIENTED_EDGE('',*,*,#381,.T.);
#319=ORIENTED_EDGE('',*,*,#420,.F.);
#320=ORIENTED_EDGE('',*,*,#359,.T.);
#321=ORIENTED_EDGE('',*,*,#354,.T.);
#322=ORIENTED_EDGE('',*,*,#356,.T.);
#323=ORIENTED_EDGE('',*,*,#349,.F.);
#324=ORIENTED_EDGE('',*,*,#365,.T.);
#325=ORIENTED_EDGE('',*,*,#371,.T.);
#326=ORIENTED_EDGE('',*,*,#423,.F.);
#327=ORIENTED_EDGE('',*,*,#360,.F.);
#328=ORIENTED_EDGE('',*,*,#368,.T.);
#329=ORIENTED_EDGE('',*,*,#416,.F.);
#330=ORIENTED_EDGE('',*,*,#439,.T.);
#331=ORIENTED_EDGE('',*,*,#434,.T.);
#332=ORIENTED_EDGE('',*,*,#437,.T.);
#333=ORIENTED_EDGE('',*,*,#430,.F.);
#334=ORIENTED_EDGE('',*,*,#352,.T.);
#335=ORIENTED_EDGE('',*,*,#358,.T.);
#336=ORIENTED_EDGE('',*,*,#421,.F.);
#337=ORIENTED_EDGE('',*,*,#347,.F.);
#338=ORIENTED_EDGE('',*,*,#355,.T.);
#339=ORIENTED_EDGE('',*,*,#441,.T.);
#340=ORIENTED_EDGE('',*,*,#442,.T.);
#341=ORIENTED_EDGE('',*,*,#442,.F.);
#342=ORIENTED_EDGE('',*,*,#414,.T.);
#343=ORIENTED_EDGE('',*,*,#345,.F.);
#344=ORIENTED_EDGE('',*,*,#441,.F.);
#345=EDGE_CURVE('',#443,#443,#511,.T.);
#346=EDGE_CURVE('',#444,#444,#512,.T.);
#347=EDGE_CURVE('',#445,#446,#53,.T.);
#348=EDGE_CURVE('',#447,#446,#513,.T.);
#349=EDGE_CURVE('',#447,#448,#54,.F.);
#350=EDGE_CURVE('',#445,#448,#514,.T.);
#351=EDGE_CURVE('',#449,#450,#515,.F.);
#352=EDGE_CURVE('',#451,#449,#55,.T.);
#353=EDGE_CURVE('',#452,#451,#516,.T.);
#354=EDGE_CURVE('',#450,#452,#56,.T.);
#355=EDGE_CURVE('',#445,#451,#13,.T.);
#356=EDGE_CURVE('',#452,#448,#14,.T.);
#357=EDGE_CURVE('',#453,#454,#517,.T.);
#358=EDGE_CURVE('',#449,#453,#57,.F.);
#359=EDGE_CURVE('',#454,#450,#58,.T.);
#360=EDGE_CURVE('',#455,#456,#59,.T.);
#361=EDGE_CURVE('',#457,#456,#518,.T.);
#362=EDGE_CURVE('',#457,#458,#60,.F.);
#363=EDGE_CURVE('',#455,#458,#519,.T.);
#364=EDGE_CURVE('',#459,#460,#520,.F.);
#365=EDGE_CURVE('',#461,#459,#61,.T.);
#366=EDGE_CURVE('',#462,#461,#521,.T.);
#367=EDGE_CURVE('',#460,#462,#62,.T.);
#368=EDGE_CURVE('',#455,#461,#15,.T.);
#369=EDGE_CURVE('',#462,#458,#16,.T.);
#370=EDGE_CURVE('',#463,#464,#522,.T.);
#371=EDGE_CURVE('',#459,#463,#63,.F.);
#372=EDGE_CURVE('',#464,#460,#64,.T.);
#373=EDGE_CURVE('',#465,#466,#65,.T.);
#374=EDGE_CURVE('',#467,#466,#523,.T.);
#375=EDGE_CURVE('',#467,#468,#66,.F.);
#376=EDGE_CURVE('',#465,#468,#524,.T.);
#377=EDGE_CURVE('',#469,#470,#525,.F.);
#378=EDGE_CURVE('',#471,#469,#67,.T.);
#379=EDGE_CURVE('',#472,#471,#526,.T.);
#380=EDGE_CURVE('',#470,#472,#68,.T.);
#381=EDGE_CURVE('',#465,#471,#17,.T.);
#382=EDGE_CURVE('',#472,#468,#18,.T.);
#383=EDGE_CURVE('',#473,#474,#527,.T.);
#384=EDGE_CURVE('',#469,#473,#69,.F.);
#385=EDGE_CURVE('',#474,#470,#70,.T.);
#386=EDGE_CURVE('',#475,#476,#71,.T.);
#387=EDGE_CURVE('',#477,#476,#528,.T.);
#388=EDGE_CURVE('',#477,#478,#72,.F.);
#389=EDGE_CURVE('',#475,#478,#529,.T.);
#390=EDGE_CURVE('',#479,#480,#530,.F.);
#391=EDGE_CURVE('',#481,#479,#73,.T.);
#392=EDGE_CURVE('',#482,#481,#531,.T.);
#393=EDGE_CURVE('',#480,#482,#74,.T.);
#394=EDGE_CURVE('',#475,#481,#19,.T.);
#395=EDGE_CURVE('',#482,#478,#20,.T.);
#396=EDGE_CURVE('',#483,#484,#532,.T.);
#397=EDGE_CURVE('',#479,#483,#75,.F.);
#398=EDGE_CURVE('',#484,#480,#76,.T.);
#399=EDGE_CURVE('',#485,#486,#77,.T.);
#400=EDGE_CURVE('',#487,#486,#533,.T.);
#401=EDGE_CURVE('',#487,#488,#78,.F.);
#402=EDGE_CURVE('',#485,#488,#534,.T.);
#403=EDGE_CURVE('',#489,#490,#535,.F.);
#404=EDGE_CURVE('',#491,#489,#79,.T.);
#405=EDGE_CURVE('',#492,#491,#536,.T.);
#406=EDGE_CURVE('',#490,#492,#80,.T.);
#407=EDGE_CURVE('',#485,#491,#21,.T.);
#408=EDGE_CURVE('',#492,#488,#22,.T.);
#409=EDGE_CURVE('',#493,#494,#537,.T.);
#410=EDGE_CURVE('',#489,#493,#81,.F.);
#411=EDGE_CURVE('',#494,#490,#82,.T.);
#412=EDGE_CURVE('',#495,#495,#538,.F.);
#413=EDGE_CURVE('',#496,#496,#539,.T.);
#414=EDGE_CURVE('',#497,#497,#540,.T.);
#415=EDGE_CURVE('',#498,#498,#541,.T.);
#416=EDGE_CURVE('',#499,#500,#83,.T.);
#417=EDGE_CURVE('',#500,#501,#542,.T.);
#418=EDGE_CURVE('',#501,#502,#84,.T.);
#419=EDGE_CURVE('',#502,#499,#543,.T.);
#420=EDGE_CURVE('',#454,#447,#85,.T.);
#421=EDGE_CURVE('',#446,#453,#86,.T.);
#422=EDGE_CURVE('',#464,#457,#87,.T.);
#423=EDGE_CURVE('',#456,#463,#88,.T.);
#424=EDGE_CURVE('',#474,#467,#89,.T.);
#425=EDGE_CURVE('',#466,#473,#90,.T.);
#426=EDGE_CURVE('',#484,#477,#91,.T.);
#427=EDGE_CURVE('',#476,#483,#92,.T.);
#428=EDGE_CURVE('',#486,#493,#93,.T.);
#429=EDGE_CURVE('',#494,#487,#94,.T.);
#430=EDGE_CURVE('',#500,#503,#95,.F.);
#431=EDGE_CURVE('',#504,#503,#544,.T.);
#432=EDGE_CURVE('',#504,#501,#96,.T.);
#433=EDGE_CURVE('',#505,#506,#545,.T.);
#434=EDGE_CURVE('',#507,#505,#97,.T.);
#435=EDGE_CURVE('',#508,#507,#546,.F.);
#436=EDGE_CURVE('',#506,#508,#98,.T.);
#437=EDGE_CURVE('',#505,#503,#23,.T.);
#438=EDGE_CURVE('',#504,#506,#24,.T.);
#439=EDGE_CURVE('',#499,#507,#99,.T.);
#440=EDGE_CURVE('',#508,#502,#100,.F.);
#441=EDGE_CURVE('',#509,#509,#547,.F.);
#442=EDGE_CURVE('',#510,#510,#548,.T.);
#443=VERTEX_POINT('',#1036);
#444=VERTEX_POINT('',#1038);
#445=VERTEX_POINT('',#1041);
#446=VERTEX_POINT('',#1042);
#447=VERTEX_POINT('',#1044);
#448=VERTEX_POINT('',#1046);
#449=VERTEX_POINT('',#1050);
#450=VERTEX_POINT('',#1051);
#451=VERTEX_POINT('',#1053);
#452=VERTEX_POINT('',#1055);
#453=VERTEX_POINT('',#1074);
#454=VERTEX_POINT('',#1075);
#455=VERTEX_POINT('',#1080);
#456=VERTEX_POINT('',#1081);
#457=VERTEX_POINT('',#1083);
#458=VERTEX_POINT('',#1085);
#459=VERTEX_POINT('',#1089);
#460=VERTEX_POINT('',#1090);
#461=VERTEX_POINT('',#1092);
#462=VERTEX_POINT('',#1094);
#463=VERTEX_POINT('',#1113);
#464=VERTEX_POINT('',#1114);
#465=VERTEX_POINT('',#1119);
#466=VERTEX_POINT('',#1120);
#467=VERTEX_POINT('',#1122);
#468=VERTEX_POINT('',#1124);
#469=VERTEX_POINT('',#1128);
#470=VERTEX_POINT('',#1129);
#471=VERTEX_POINT('',#1131);
#472=VERTEX_POINT('',#1133);
#473=VERTEX_POINT('',#1152);
#474=VERTEX_POINT('',#1153);
#475=VERTEX_POINT('',#1158);
#476=VERTEX_POINT('',#1159);
#477=VERTEX_POINT('',#1161);
#478=VERTEX_POINT('',#1163);
#479=VERTEX_POINT('',#1167);
#480=VERTEX_POINT('',#1168);
#481=VERTEX_POINT('',#1170);
#482=VERTEX_POINT('',#1172);
#483=VERTEX_POINT('',#1191);
#484=VERTEX_POINT('',#1192);
#485=VERTEX_POINT('',#1197);
#486=VERTEX_POINT('',#1198);
#487=VERTEX_POINT('',#1200);
#488=VERTEX_POINT('',#1202);
#489=VERTEX_POINT('',#1206);
#490=VERTEX_POINT('',#1207);
#491=VERTEX_POINT('',#1209);
#492=VERTEX_POINT('',#1211);
#493=VERTEX_POINT('',#1228);
#494=VERTEX_POINT('',#1229);
#495=VERTEX_POINT('',#1234);
#496=VERTEX_POINT('',#1236);
#497=VERTEX_POINT('',#1239);
#498=VERTEX_POINT('',#1241);
#499=VERTEX_POINT('',#1244);
#500=VERTEX_POINT('',#1245);
#501=VERTEX_POINT('',#1247);
#502=VERTEX_POINT('',#1249);
#503=VERTEX_POINT('',#1264);
#504=VERTEX_POINT('',#1266);
#505=VERTEX_POINT('',#1270);
#506=VERTEX_POINT('',#1271);
#507=VERTEX_POINT('',#1273);
#508=VERTEX_POINT('',#1275);
#509=VERTEX_POINT('',#1309);
#510=VERTEX_POINT('',#1311);
#511=CIRCLE('',#738,0.0024);
#512=CIRCLE('',#739,0.0024);
#513=CIRCLE('',#741,0.025);
#514=CIRCLE('',#742,0.025);
#515=CIRCLE('',#744,0.0095);
#516=CIRCLE('',#745,0.017);
#517=CIRCLE('',#748,0.0095);
#518=CIRCLE('',#750,0.025);
#519=CIRCLE('',#751,0.025);
#520=CIRCLE('',#753,0.0095);
#521=CIRCLE('',#754,0.017);
#522=CIRCLE('',#757,0.0095);
#523=CIRCLE('',#759,0.025);
#524=CIRCLE('',#760,0.025);
#525=CIRCLE('',#762,0.0095);
#526=CIRCLE('',#763,0.017);
#527=CIRCLE('',#766,0.0095);
#528=CIRCLE('',#768,0.025);
#529=CIRCLE('',#769,0.025);
#530=CIRCLE('',#771,0.0095);
#531=CIRCLE('',#772,0.017);
#532=CIRCLE('',#775,0.0095);
#533=CIRCLE('',#777,0.025);
#534=CIRCLE('',#778,0.025);
#535=CIRCLE('',#780,0.0095);
#536=CIRCLE('',#781,0.017);
#537=CIRCLE('',#784,0.0095);
#538=CIRCLE('',#786,0.027);
#539=CIRCLE('',#787,0.027);
#540=CIRCLE('',#789,0.0075);
#541=CIRCLE('',#790,0.017);
#542=CIRCLE('',#792,0.025);
#543=CIRCLE('',#793,0.0095);
#544=CIRCLE('',#796,0.025);
#545=CIRCLE('',#798,0.017);
#546=CIRCLE('',#799,0.0095);
#547=CIRCLE('',#815,0.0054);
#548=CIRCLE('',#816,0.0075);
#549=EDGE_LOOP('',(#149));
#550=EDGE_LOOP('',(#150));
#551=EDGE_LOOP('',(#151,#152,#153,#154));
#552=EDGE_LOOP('',(#155,#156,#157,#158));
#553=EDGE_LOOP('',(#159,#160,#161,#162));
#554=EDGE_LOOP('',(#163,#164,#165,#166));
#555=EDGE_LOOP('',(#167,#168,#169,#170));
#556=EDGE_LOOP('',(#171,#172,#173,#174));
#557=EDGE_LOOP('',(#175,#176,#177,#178));
#558=EDGE_LOOP('',(#179,#180,#181,#182));
#559=EDGE_LOOP('',(#183,#184,#185,#186));
#560=EDGE_LOOP('',(#187,#188,#189,#190));
#561=EDGE_LOOP('',(#191,#192,#193,#194));
#562=EDGE_LOOP('',(#195,#196,#197,#198));
#563=EDGE_LOOP('',(#199,#200,#201,#202));
#564=EDGE_LOOP('',(#203,#204,#205,#206));
#565=EDGE_LOOP('',(#207,#208,#209,#210));
#566=EDGE_LOOP('',(#211,#212,#213,#214));
#567=EDGE_LOOP('',(#215,#216,#217,#218));
#568=EDGE_LOOP('',(#219,#220,#221,#222));
#569=EDGE_LOOP('',(#223,#224,#225,#226));
#570=EDGE_LOOP('',(#227,#228,#229,#230));
#571=EDGE_LOOP('',(#231));
#572=EDGE_LOOP('',(#232));
#573=EDGE_LOOP('',(#233));
#574=EDGE_LOOP('',(#234));
#575=EDGE_LOOP('',(#235,#236,#237,#238));
#576=EDGE_LOOP('',(#239,#240,#241,#242));
#577=EDGE_LOOP('',(#243,#244,#245,#246));
#578=EDGE_LOOP('',(#247,#248,#249,#250));
#579=EDGE_LOOP('',(#251,#252,#253,#254));
#580=EDGE_LOOP('',(#255,#256,#257,#258));
#581=EDGE_LOOP('',(#259));
#582=EDGE_LOOP('',(#260));
#583=EDGE_LOOP('',(#261));
#584=EDGE_LOOP('',(#262));
#585=EDGE_LOOP('',(#263,#264,#265,#266));
#586=EDGE_LOOP('',(#267,#268,#269,#270));
#587=EDGE_LOOP('',(#271,#272,#273,#274));
#588=EDGE_LOOP('',(#275,#276,#277,#278));
#589=EDGE_LOOP('',(#279,#280,#281,#282,#283));
#590=EDGE_LOOP('',(#284,#285,#286,#287,#288));
#591=EDGE_LOOP('',(#289,#290,#291,#292,#293));
#592=EDGE_LOOP('',(#294,#295,#296,#297,#298));
#593=EDGE_LOOP('',(#299,#300,#301,#302,#303));
#594=EDGE_LOOP('',(#304,#305,#306,#307,#308));
#595=EDGE_LOOP('',(#309,#310,#311,#312,#313));
#596=EDGE_LOOP('',(#314,#315,#316,#317,#318));
#597=EDGE_LOOP('',(#319,#320,#321,#322,#323));
#598=EDGE_LOOP('',(#324,#325,#326,#327,#328));
#599=EDGE_LOOP('',(#329,#330,#331,#332,#333));
#600=EDGE_LOOP('',(#334,#335,#336,#337,#338));
#601=EDGE_LOOP('',(#339));
#602=EDGE_LOOP('',(#340));
#603=EDGE_LOOP('',(#341));
#604=EDGE_LOOP('',(#342));
#605=EDGE_LOOP('',(#343));
#606=EDGE_LOOP('',(#344));
#607=FACE_BOUND('',#549,.T.);
#608=FACE_BOUND('',#550,.T.);
#609=FACE_BOUND('',#551,.T.);
#610=FACE_BOUND('',#552,.T.);
#611=FACE_BOUND('',#553,.T.);
#612=FACE_BOUND('',#554,.T.);
#613=FACE_BOUND('',#555,.T.);
#614=FACE_BOUND('',#556,.T.);
#615=FACE_BOUND('',#557,.T.);
#616=FACE_BOUND('',#558,.T.);
#617=FACE_BOUND('',#559,.T.);
#618=FACE_BOUND('',#560,.T.);
#619=FACE_BOUND('',#561,.T.);
#620=FACE_BOUND('',#562,.T.);
#621=FACE_BOUND('',#563,.T.);
#622=FACE_BOUND('',#564,.T.);
#623=FACE_BOUND('',#565,.T.);
#624=FACE_BOUND('',#566,.T.);
#625=FACE_BOUND('',#567,.T.);
#626=FACE_BOUND('',#568,.T.);
#627=FACE_BOUND('',#569,.T.);
#628=FACE_BOUND('',#570,.T.);
#629=FACE_BOUND('',#571,.T.);
#630=FACE_BOUND('',#572,.T.);
#631=FACE_BOUND('',#573,.T.);
#632=FACE_BOUND('',#574,.T.);
#633=FACE_BOUND('',#575,.T.);
#634=FACE_BOUND('',#576,.T.);
#635=FACE_BOUND('',#577,.T.);
#636=FACE_BOUND('',#578,.T.);
#637=FACE_BOUND('',#579,.T.);
#638=FACE_BOUND('',#580,.T.);
#639=FACE_BOUND('',#581,.T.);
#640=FACE_BOUND('',#582,.T.);
#641=FACE_BOUND('',#583,.T.);
#642=FACE_BOUND('',#584,.T.);
#643=FACE_BOUND('',#585,.T.);
#644=FACE_BOUND('',#586,.T.);
#645=FACE_BOUND('',#587,.T.);
#646=FACE_BOUND('',#588,.T.);
#647=FACE_BOUND('',#589,.T.);
#648=FACE_BOUND('',#590,.T.);
#649=FACE_BOUND('',#591,.T.);
#650=FACE_BOUND('',#592,.T.);
#651=FACE_BOUND('',#593,.T.);
#652=FACE_BOUND('',#594,.T.);
#653=FACE_BOUND('',#595,.T.);
#654=FACE_BOUND('',#596,.T.);
#655=FACE_BOUND('',#597,.T.);
#656=FACE_BOUND('',#598,.T.);
#657=FACE_BOUND('',#599,.T.);
#658=FACE_BOUND('',#600,.T.);
#659=FACE_BOUND('',#601,.T.);
#660=FACE_BOUND('',#602,.T.);
#661=FACE_BOUND('',#603,.T.);
#662=FACE_BOUND('',#604,.T.);
#663=FACE_BOUND('',#605,.T.);
#664=FACE_BOUND('',#606,.T.);
#665=CYLINDRICAL_SURFACE('',#737,0.0024);
#666=CYLINDRICAL_SURFACE('',#740,0.025);
#667=CYLINDRICAL_SURFACE('',#747,0.0095);
#668=CYLINDRICAL_SURFACE('',#749,0.025);
#669=CYLINDRICAL_SURFACE('',#756,0.0095);
#670=CYLINDRICAL_SURFACE('',#758,0.025);
#671=CYLINDRICAL_SURFACE('',#765,0.0095);
#672=CYLINDRICAL_SURFACE('',#767,0.025);
#673=CYLINDRICAL_SURFACE('',#774,0.0095);
#674=CYLINDRICAL_SURFACE('',#776,0.025);
#675=CYLINDRICAL_SURFACE('',#783,0.0095);
#676=CYLINDRICAL_SURFACE('',#785,0.027);
#677=CYLINDRICAL_SURFACE('',#795,0.025);
#678=CYLINDRICAL_SURFACE('',#801,0.0095);
#679=CYLINDRICAL_SURFACE('',#817,0.0075);
#680=ADVANCED_FACE('',(#607,#608),#665,.F.);
#681=ADVANCED_FACE('',(#609),#666,.F.);
#682=ADVANCED_FACE('',(#610),#32,.F.);
#683=ADVANCED_FACE('',(#611),#25,.F.);
#684=ADVANCED_FACE('',(#612),#667,.T.);
#685=ADVANCED_FACE('',(#613),#668,.F.);
#686=ADVANCED_FACE('',(#614),#33,.F.);
#687=ADVANCED_FACE('',(#615),#26,.F.);
#688=ADVANCED_FACE('',(#616),#669,.T.);
#689=ADVANCED_FACE('',(#617),#670,.F.);
#690=ADVANCED_FACE('',(#618),#34,.F.);
#691=ADVANCED_FACE('',(#619),#27,.F.);
#692=ADVANCED_FACE('',(#620),#671,.T.);
#693=ADVANCED_FACE('',(#621),#672,.F.);
#694=ADVANCED_FACE('',(#622),#35,.F.);
#695=ADVANCED_FACE('',(#623),#28,.F.);
#696=ADVANCED_FACE('',(#624),#673,.T.);
#697=ADVANCED_FACE('',(#625),#674,.F.);
#698=ADVANCED_FACE('',(#626),#36,.F.);
#699=ADVANCED_FACE('',(#627),#29,.F.);
#700=ADVANCED_FACE('',(#628),#675,.T.);
#701=ADVANCED_FACE('',(#629,#630),#676,.T.);
#702=ADVANCED_FACE('',(#631,#632),#37,.T.);
#703=ADVANCED_FACE('',(#633,#634,#635,#636,#637,#638,#639,#640),#38,.F.);
#704=ADVANCED_FACE('',(#641,#642),#30,.T.);
#705=ADVANCED_FACE('',(#643),#677,.F.);
#706=ADVANCED_FACE('',(#644),#39,.F.);
#707=ADVANCED_FACE('',(#645),#31,.F.);
#708=ADVANCED_FACE('',(#646),#678,.T.);
#709=ADVANCED_FACE('',(#647),#40,.T.);
#710=ADVANCED_FACE('',(#648),#41,.T.);
#711=ADVANCED_FACE('',(#649),#42,.T.);
#712=ADVANCED_FACE('',(#650),#43,.T.);
#713=ADVANCED_FACE('',(#651),#44,.T.);
#714=ADVANCED_FACE('',(#652),#45,.T.);
#715=ADVANCED_FACE('',(#653),#46,.T.);
#716=ADVANCED_FACE('',(#654),#47,.T.);
#717=ADVANCED_FACE('',(#655),#48,.T.);
#718=ADVANCED_FACE('',(#656),#49,.T.);
#719=ADVANCED_FACE('',(#657),#50,.T.);
#720=ADVANCED_FACE('',(#658),#51,.T.);
#721=ADVANCED_FACE('',(#659,#660),#52,.T.);
#722=ADVANCED_FACE('',(#661,#662),#679,.F.);
#723=ADVANCED_FACE('',(#663,#664),#12,.F.);
#724=CLOSED_SHELL('',(#680,#681,#682,#683,#684,#685,#686,#687,#688,#689,
#690,#691,#692,#693,#694,#695,#696,#697,#698,#699,#700,#701,#702,#703,#704,
#705,#706,#707,#708,#709,#710,#711,#712,#713,#714,#715,#716,#717,#718,#719,
#720,#721,#722,#723));
#725=STYLED_ITEM('',(#726),#733);
#726=PRESENTATION_STYLE_ASSIGNMENT((#727));
#727=SURFACE_STYLE_USAGE(.BOTH.,#728);
#728=SURFACE_SIDE_STYLE('',(#729));
#729=SURFACE_STYLE_FILL_AREA(#730);
#730=FILL_AREA_STYLE('',(#731));
#731=FILL_AREA_STYLE_COLOUR('',#732);
#732=COLOUR_RGB('',0.792156862745098,0.819607843137255,0.933333333333333);
#733=MANIFOLD_SOLID_BREP('Part 1',#724);
#734=SHAPE_DEFINITION_REPRESENTATION(#1320,#735);
#735=SHAPE_REPRESENTATION('Part 1',(#736),#1315);
#736=AXIS2_PLACEMENT_3D('',#1033,#819,#820);
#737=AXIS2_PLACEMENT_3D('',#1034,#821,#822);
#738=AXIS2_PLACEMENT_3D('',#1035,#823,#824);
#739=AXIS2_PLACEMENT_3D('',#1037,#825,#826);
#740=AXIS2_PLACEMENT_3D('',#1039,#827,#828);
#741=AXIS2_PLACEMENT_3D('',#1043,#830,#831);
#742=AXIS2_PLACEMENT_3D('',#1047,#833,#834);
#743=AXIS2_PLACEMENT_3D('',#1048,#835,#836);
#744=AXIS2_PLACEMENT_3D('',#1049,#837,#838);
#745=AXIS2_PLACEMENT_3D('',#1054,#840,#841);
#746=AXIS2_PLACEMENT_3D('',#1057,#843,#844);
#747=AXIS2_PLACEMENT_3D('',#1072,#845,#846);
#748=AXIS2_PLACEMENT_3D('',#1073,#847,#848);
#749=AXIS2_PLACEMENT_3D('',#1078,#851,#852);
#750=AXIS2_PLACEMENT_3D('',#1082,#854,#855);
#751=AXIS2_PLACEMENT_3D('',#1086,#857,#858);
#752=AXIS2_PLACEMENT_3D('',#1087,#859,#860);
#753=AXIS2_PLACEMENT_3D('',#1088,#861,#862);
#754=AXIS2_PLACEMENT_3D('',#1093,#864,#865);
#755=AXIS2_PLACEMENT_3D('',#1096,#867,#868);
#756=AXIS2_PLACEMENT_3D('',#1111,#869,#870);
#757=AXIS2_PLACEMENT_3D('',#1112,#871,#872);
#758=AXIS2_PLACEMENT_3D('',#1117,#875,#876);
#759=AXIS2_PLACEMENT_3D('',#1121,#878,#879);
#760=AXIS2_PLACEMENT_3D('',#1125,#881,#882);
#761=AXIS2_PLACEMENT_3D('',#1126,#883,#884);
#762=AXIS2_PLACEMENT_3D('',#1127,#885,#886);
#763=AXIS2_PLACEMENT_3D('',#1132,#888,#889);
#764=AXIS2_PLACEMENT_3D('',#1135,#891,#892);
#765=AXIS2_PLACEMENT_3D('',#1150,#893,#894);
#766=AXIS2_PLACEMENT_3D('',#1151,#895,#896);
#767=AXIS2_PLACEMENT_3D('',#1156,#899,#900);
#768=AXIS2_PLACEMENT_3D('',#1160,#902,#903);
#769=AXIS2_PLACEMENT_3D('',#1164,#905,#906);
#770=AXIS2_PLACEMENT_3D('',#1165,#907,#908);
#771=AXIS2_PLACEMENT_3D('',#1166,#909,#910);
#772=AXIS2_PLACEMENT_3D('',#1171,#912,#913);
#773=AXIS2_PLACEMENT_3D('',#1174,#915,#916);
#774=AXIS2_PLACEMENT_3D('',#1189,#917,#918);
#775=AXIS2_PLACEMENT_3D('',#1190,#919,#920);
#776=AXIS2_PLACEMENT_3D('',#1195,#923,#924);
#777=AXIS2_PLACEMENT_3D('',#1199,#926,#927);
#778=AXIS2_PLACEMENT_3D('',#1203,#929,#930);
#779=AXIS2_PLACEMENT_3D('',#1204,#931,#932);
#780=AXIS2_PLACEMENT_3D('',#1205,#933,#934);
#781=AXIS2_PLACEMENT_3D('',#1210,#936,#937);
#782=AXIS2_PLACEMENT_3D('',#1213,#939,#940);
#783=AXIS2_PLACEMENT_3D('',#1226,#941,#942);
#784=AXIS2_PLACEMENT_3D('',#1227,#943,#944);
#785=AXIS2_PLACEMENT_3D('',#1232,#947,#948);
#786=AXIS2_PLACEMENT_3D('',#1233,#949,#950);
#787=AXIS2_PLACEMENT_3D('',#1235,#951,#952);
#788=AXIS2_PLACEMENT_3D('',#1237,#953,#954);
#789=AXIS2_PLACEMENT_3D('',#1238,#955,#956);
#790=AXIS2_PLACEMENT_3D('',#1240,#957,#958);
#791=AXIS2_PLACEMENT_3D('',#1242,#959,#960);
#792=AXIS2_PLACEMENT_3D('',#1246,#962,#963);
#793=AXIS2_PLACEMENT_3D('',#1250,#965,#966);
#794=AXIS2_PLACEMENT_3D('',#1261,#977,#978);
#795=AXIS2_PLACEMENT_3D('',#1262,#979,#980);
#796=AXIS2_PLACEMENT_3D('',#1265,#982,#983);
#797=AXIS2_PLACEMENT_3D('',#1268,#985,#986);
#798=AXIS2_PLACEMENT_3D('',#1269,#987,#988);
#799=AXIS2_PLACEMENT_3D('',#1274,#990,#991);
#800=AXIS2_PLACEMENT_3D('',#1277,#993,#994);
#801=AXIS2_PLACEMENT_3D('',#1292,#995,#996);
#802=AXIS2_PLACEMENT_3D('',#1295,#999,#1000);
#803=AXIS2_PLACEMENT_3D('',#1296,#1001,#1002);
#804=AXIS2_PLACEMENT_3D('',#1297,#1003,#1004);
#805=AXIS2_PLACEMENT_3D('',#1298,#1005,#1006);
#806=AXIS2_PLACEMENT_3D('',#1299,#1007,#1008);
#807=AXIS2_PLACEMENT_3D('',#1300,#1009,#1010);
#808=AXIS2_PLACEMENT_3D('',#1301,#1011,#1012);
#809=AXIS2_PLACEMENT_3D('',#1302,#1013,#1014);
#810=AXIS2_PLACEMENT_3D('',#1303,#1015,#1016);
#811=AXIS2_PLACEMENT_3D('',#1304,#1017,#1018);
#812=AXIS2_PLACEMENT_3D('',#1305,#1019,#1020);
#813=AXIS2_PLACEMENT_3D('',#1306,#1021,#1022);
#814=AXIS2_PLACEMENT_3D('',#1307,#1023,#1024);
#815=AXIS2_PLACEMENT_3D('',#1308,#1025,#1026);
#816=AXIS2_PLACEMENT_3D('',#1310,#1027,#1028);
#817=AXIS2_PLACEMENT_3D('',#1312,#1029,#1030);
#818=AXIS2_PLACEMENT_3D('',#1313,#1031,#1032);
#819=DIRECTION('',(0.,0.,1.));
#820=DIRECTION('',(1.,0.,0.));
#821=DIRECTION('',(0.,0.,-1.));
#822=DIRECTION('',(-1.,0.,0.));
#823=DIRECTION('',(0.,0.,1.));
#824=DIRECTION('',(1.,0.,0.));
#825=DIRECTION('',(0.,0.,-1.));
#826=DIRECTION('',(-1.,0.,0.));
#827=DIRECTION('',(0.,0.,-1.));
#828=DIRECTION('',(-1.,0.,0.));
#829=DIRECTION('',(0.,0.,-1.));
#830=DIRECTION('',(0.,0.,1.));
#831=DIRECTION('',(1.,0.,0.));
#832=DIRECTION('',(0.,0.,-1.));
#833=DIRECTION('',(0.,0.,-1.));
#834=DIRECTION('',(-1.,0.,0.));
#835=DIRECTION('',(0.,0.,1.));
#836=DIRECTION('',(1.,0.,0.));
#837=DIRECTION('',(0.,0.,1.));
#838=DIRECTION('',(1.,0.,0.));
#839=DIRECTION('',(-0.866025403784439,-0.5,0.));
#840=DIRECTION('',(0.,0.,1.));
#841=DIRECTION('',(1.,0.,0.));
#842=DIRECTION('',(0.866025403784438,-0.5,0.));
#843=DIRECTION('',(0.,0.,1.));
#844=DIRECTION('',(1.,0.,0.));
#845=DIRECTION('',(0.,0.,1.));
#846=DIRECTION('',(1.,0.,0.));
#847=DIRECTION('',(0.,0.,-1.));
#848=DIRECTION('',(-1.,0.,0.));
#849=DIRECTION('',(0.,0.,1.));
#850=DIRECTION('',(0.,0.,1.));
#851=DIRECTION('',(0.,0.,-1.));
#852=DIRECTION('',(-1.,0.,0.));
#853=DIRECTION('',(0.,0.,-1.));
#854=DIRECTION('',(0.,0.,1.));
#855=DIRECTION('',(1.,0.,0.));
#856=DIRECTION('',(0.,0.,-1.));
#857=DIRECTION('',(0.,0.,-1.));
#858=DIRECTION('',(-1.,0.,0.));
#859=DIRECTION('',(0.,0.,1.));
#860=DIRECTION('',(1.,0.,0.));
#861=DIRECTION('',(0.,0.,1.));
#862=DIRECTION('',(1.,0.,0.));
#863=DIRECTION('',(-0.866025403784438,0.5,0.));
#864=DIRECTION('',(0.,0.,1.));
#865=DIRECTION('',(1.,0.,0.));
#866=DIRECTION('',(-2.86994692716751E-16,-1.,0.));
#867=DIRECTION('',(0.,0.,1.));
#868=DIRECTION('',(1.,0.,0.));
#869=DIRECTION('',(0.,0.,1.));
#870=DIRECTION('',(1.,0.,0.));
#871=DIRECTION('',(0.,0.,-1.));
#872=DIRECTION('',(-1.,0.,0.));
#873=DIRECTION('',(0.,0.,1.));
#874=DIRECTION('',(0.,0.,1.));
#875=DIRECTION('',(0.,0.,-1.));
#876=DIRECTION('',(-1.,0.,0.));
#877=DIRECTION('',(0.,0.,-1.));
#878=DIRECTION('',(0.,0.,1.));
#879=DIRECTION('',(1.,0.,0.));
#880=DIRECTION('',(0.,0.,-1.));
#881=DIRECTION('',(0.,0.,-1.));
#882=DIRECTION('',(-1.,0.,0.));
#883=DIRECTION('',(0.,0.,1.));
#884=DIRECTION('',(1.,0.,0.));
#885=DIRECTION('',(0.,0.,1.));
#886=DIRECTION('',(1.,0.,0.));
#887=DIRECTION('',(1.3393085660115E-16,1.,0.));
#888=DIRECTION('',(0.,0.,1.));
#889=DIRECTION('',(1.,0.,0.));
#890=DIRECTION('',(-0.866025403784439,-0.5,0.));
#891=DIRECTION('',(0.,0.,1.));
#892=DIRECTION('',(1.,0.,0.));
#893=DIRECTION('',(0.,0.,1.));
#894=DIRECTION('',(1.,0.,0.));
#895=DIRECTION('',(0.,0.,-1.));
#896=DIRECTION('',(-1.,0.,0.));
#897=DIRECTION('',(0.,0.,1.));
#898=DIRECTION('',(0.,0.,1.));
#899=DIRECTION('',(0.,0.,-1.));
#900=DIRECTION('',(-1.,0.,0.));
#901=DIRECTION('',(0.,0.,-1.));
#902=DIRECTION('',(0.,0.,1.));
#903=DIRECTION('',(1.,0.,0.));
#904=DIRECTION('',(0.,0.,-1.));
#905=DIRECTION('',(0.,0.,-1.));
#906=DIRECTION('',(-1.,0.,0.));
#907=DIRECTION('',(0.,0.,1.));
#908=DIRECTION('',(1.,0.,0.));
#909=DIRECTION('',(0.,0.,1.));
#910=DIRECTION('',(1.,0.,0.));
#911=DIRECTION('',(0.866025403784439,0.5,0.));
#912=DIRECTION('',(0.,0.,1.));
#913=DIRECTION('',(1.,0.,0.));
#914=DIRECTION('',(-0.866025403784439,0.5,0.));
#915=DIRECTION('',(0.,0.,1.));
#916=DIRECTION('',(1.,0.,0.));
#917=DIRECTION('',(0.,0.,1.));
#918=DIRECTION('',(1.,0.,0.));
#919=DIRECTION('',(0.,0.,-1.));
#920=DIRECTION('',(-1.,0.,0.));
#921=DIRECTION('',(0.,0.,1.));
#922=DIRECTION('',(0.,0.,1.));
#923=DIRECTION('',(0.,0.,-1.));
#924=DIRECTION('',(-1.,0.,0.));
#925=DIRECTION('',(0.,0.,-1.));
#926=DIRECTION('',(0.,0.,1.));
#927=DIRECTION('',(1.,0.,0.));
#928=DIRECTION('',(0.,0.,-1.));
#929=DIRECTION('',(0.,0.,-1.));
#930=DIRECTION('',(-1.,0.,0.));
#931=DIRECTION('',(0.,0.,1.));
#932=DIRECTION('',(1.,0.,0.));
#933=DIRECTION('',(0.,0.,1.));
#934=DIRECTION('',(1.,0.,0.));
#935=DIRECTION('',(0.866025403784439,-0.5,0.));
#936=DIRECTION('',(0.,0.,1.));
#937=DIRECTION('',(1.,0.,0.));
#938=DIRECTION('',(1.5944149595375E-16,1.,0.));
#939=DIRECTION('',(0.,0.,1.));
#940=DIRECTION('',(1.,0.,0.));
#941=DIRECTION('',(0.,0.,1.));
#942=DIRECTION('',(1.,0.,0.));
#943=DIRECTION('',(0.,0.,-1.));
#944=DIRECTION('',(-1.,0.,0.));
#945=DIRECTION('',(0.,0.,1.));
#946=DIRECTION('',(0.,0.,1.));
#947=DIRECTION('',(0.,0.,-1.));
#948=DIRECTION('',(-1.,0.,0.));
#949=DIRECTION('',(0.,0.,1.));
#950=DIRECTION('',(1.,0.,0.));
#951=DIRECTION('',(0.,0.,1.));
#952=DIRECTION('',(1.,0.,0.));
#953=DIRECTION('',(0.,0.,1.));
#954=DIRECTION('',(1.,0.,0.));
#955=DIRECTION('',(0.,0.,1.));
#956=DIRECTION('',(1.,0.,0.));
#957=DIRECTION('',(0.,0.,1.));
#958=DIRECTION('',(1.,0.,0.));
#959=DIRECTION('',(0.,0.,1.));
#960=DIRECTION('',(1.,0.,0.));
#961=DIRECTION('',(0.866025403784439,0.5,0.));
#962=DIRECTION('',(0.,0.,1.));
#963=DIRECTION('',(1.,0.,0.));
#964=DIRECTION('',(-6.37765983815003E-18,-1.,0.));
#965=DIRECTION('',(0.,0.,-1.));
#966=DIRECTION('',(-1.,0.,0.));
#967=DIRECTION('',(0.866025403784438,-0.5,0.));
#968=DIRECTION('',(-0.866025403784439,-0.5,0.));
#969=DIRECTION('',(-2.86994692716751E-16,-1.,0.));
#970=DIRECTION('',(-0.866025403784439,0.5,0.));
#971=DIRECTION('',(-0.866025403784439,-0.5,0.));
#972=DIRECTION('',(1.3393085660115E-16,1.,0.));
#973=DIRECTION('',(-0.866025403784438,0.5,0.));
#974=DIRECTION('',(0.866025403784439,0.5,0.));
#975=DIRECTION('',(0.866025403784439,-0.5,0.));
#976=DIRECTION('',(1.5944149595375E-16,1.,0.));
#977=DIRECTION('',(0.,0.,1.));
#978=DIRECTION('',(1.,0.,0.));
#979=DIRECTION('',(0.,0.,-1.));
#980=DIRECTION('',(-1.,0.,0.));
#981=DIRECTION('',(0.,0.,-1.));
#982=DIRECTION('',(0.,0.,-1.));
#983=DIRECTION('',(-1.,0.,0.));
#984=DIRECTION('',(0.,0.,-1.));
#985=DIRECTION('',(0.,0.,1.));
#986=DIRECTION('',(1.,0.,0.));
#987=DIRECTION('',(0.,0.,1.));
#988=DIRECTION('',(1.,0.,0.));
#989=DIRECTION('',(0.866025403784439,0.5,0.));
#990=DIRECTION('',(0.,0.,1.));
#991=DIRECTION('',(1.,0.,0.));
#992=DIRECTION('',(-6.37765983815003E-18,-1.,0.));
#993=DIRECTION('',(0.,0.,1.));
#994=DIRECTION('',(1.,0.,0.));
#995=DIRECTION('',(0.,0.,1.));
#996=DIRECTION('',(1.,0.,0.));
#997=DIRECTION('',(0.,0.,1.));
#998=DIRECTION('',(0.,0.,1.));
#999=DIRECTION('',(-1.,1.5944149595375E-16,0.));
#1000=DIRECTION('',(-1.5944149595375E-16,-1.,0.));
#1001=DIRECTION('',(1.,-6.37765983815002E-18,0.));
#1002=DIRECTION('',(6.37765983815003E-18,1.,0.));
#1003=DIRECTION('',(-0.5,-0.866025403784438,0.));
#1004=DIRECTION('',(0.866025403784439,-0.5,0.));
#1005=DIRECTION('',(0.5,0.866025403784439,0.));
#1006=DIRECTION('',(-0.866025403784439,0.5,0.));
#1007=DIRECTION('',(0.5,-0.866025403784439,0.));
#1008=DIRECTION('',(0.866025403784439,0.5,0.));
#1009=DIRECTION('',(-0.5,0.866025403784439,0.));
#1010=DIRECTION('',(-0.866025403784439,-0.5,0.));
#1011=DIRECTION('',(1.,-2.86994692716751E-16,0.));
#1012=DIRECTION('',(2.86994692716751E-16,1.,0.));
#1013=DIRECTION('',(-1.,1.3393085660115E-16,0.));
#1014=DIRECTION('',(-1.3393085660115E-16,-1.,0.));
#1015=DIRECTION('',(0.5,0.866025403784438,0.));
#1016=DIRECTION('',(-0.866025403784438,0.5,0.));
#1017=DIRECTION('',(-0.5,-0.866025403784438,0.));
#1018=DIRECTION('',(0.866025403784438,-0.5,0.));
#1019=DIRECTION('',(-0.5,0.866025403784439,0.));
#1020=DIRECTION('',(-0.866025403784439,-0.5,0.));
#1021=DIRECTION('',(0.5,-0.866025403784439,0.));
#1022=DIRECTION('',(0.866025403784439,0.5,0.));
#1023=DIRECTION('',(0.,0.,1.));
#1024=DIRECTION('',(1.,0.,0.));
#1025=DIRECTION('',(0.,0.,1.));
#1026=DIRECTION('',(1.,0.,0.));
#1027=DIRECTION('',(0.,0.,1.));
#1028=DIRECTION('',(1.,0.,0.));
#1029=DIRECTION('',(0.,0.,1.));
#1030=DIRECTION('',(1.,0.,0.));
#1031=DIRECTION('',(0.,0.,1.));
#1032=DIRECTION('',(1.,0.,0.));
#1033=CARTESIAN_POINT('',(0.,0.,0.));
#1034=CARTESIAN_POINT('',(0.,0.,0.015));
#1035=CARTESIAN_POINT('',(0.,0.,0.0074));
#1036=CARTESIAN_POINT('',(0.0024,0.,0.0074));
#1037=CARTESIAN_POINT('',(0.,0.,0.));
#1038=CARTESIAN_POINT('',(-0.0024,0.,0.));
#1039=CARTESIAN_POINT('',(0.,0.,0.015));
#1040=CARTESIAN_POINT('',(0.02194439881355,0.0119767842391798,0.015));
#1041=CARTESIAN_POINT('',(0.02194439881355,0.0119767842391798,0.005));
#1042=CARTESIAN_POINT('',(0.02194439881355,0.0119767842391798,0.));
#1043=CARTESIAN_POINT('',(0.,0.,0.));
#1044=CARTESIAN_POINT('',(0.0219443988135497,-0.0119767842391805,0.));
#1045=CARTESIAN_POINT('',(0.0219443988135497,-0.0119767842391805,0.015));
#1046=CARTESIAN_POINT('',(0.0219443988135497,-0.0119767842391805,0.005));
#1047=CARTESIAN_POINT('',(0.,0.,0.005));
#1048=CARTESIAN_POINT('',(0.,0.,0.013));
#1049=CARTESIAN_POINT('',(0.,0.,0.013));
#1050=CARTESIAN_POINT('',(0.00851081603739855,0.00422090160718769,0.013));
#1051=CARTESIAN_POINT('',(0.00851081603739824,-0.00422090160718832,0.013));
#1052=CARTESIAN_POINT('',(0.00809422863405974,0.00398038475772902,0.013));
#1053=CARTESIAN_POINT('',(0.0150132593261997,0.0079750889903673,0.013));
#1054=CARTESIAN_POINT('',(0.,0.,0.013));
#1055=CARTESIAN_POINT('',(0.0150132593261993,-0.00797508899036794,0.013));
#1056=CARTESIAN_POINT('',(0.0228166604983948,-0.0124803847577296,0.013));
#1057=CARTESIAN_POINT('',(0.,0.,0.005));
#1058=CARTESIAN_POINT('',(0.02194439881355,0.0119767842391798,0.005));
#1059=CARTESIAN_POINT('',(0.02194439881355,0.0119767842391798,0.00605762943269573));
#1060=CARTESIAN_POINT('',(0.0215824485512509,0.0117678121578082,0.00814098704041318));
#1061=CARTESIAN_POINT('',(0.0200390998159511,0.0108767593500294,0.0108081847613647));
#1062=CARTESIAN_POINT('',(0.017734101105018,0.00954596772379042,0.012583817673507));
#1063=CARTESIAN_POINT('',(0.015917470094096,0.00849713532061639,0.013));
#1064=CARTESIAN_POINT('',(0.0150132593261997,0.00797508899036731,0.013));
#1065=CARTESIAN_POINT('',(0.0150132593261994,-0.00797508899036794,0.013));
#1066=CARTESIAN_POINT('',(0.0159166787327559,-0.00849667842793449,0.013));
#1067=CARTESIAN_POINT('',(0.0177354701182976,-0.00954675812397677,0.0125833102760359));
#1068=CARTESIAN_POINT('',(0.0200409067151859,-0.0108778025637898,0.0108073751842898));
#1069=CARTESIAN_POINT('',(0.0215853734260707,-0.0117695008350736,0.00813144120543489));
#1070=CARTESIAN_POINT('',(0.0219443988135496,-0.0119767842391805,0.00605806985756736));
#1071=CARTESIAN_POINT('',(0.0219443988135496,-0.0119767842391805,0.00499999999999999));
#1072=CARTESIAN_POINT('',(0.,0.,0.));
#1073=CARTESIAN_POINT('',(0.,0.,0.));
#1074=CARTESIAN_POINT('',(0.00851081603739855,0.00422090160718769,0.));
#1075=CARTESIAN_POINT('',(0.00851081603739824,-0.00422090160718832,0.));
#1076=CARTESIAN_POINT('',(0.00851081603739855,0.00422090160718769,0.));
#1077=CARTESIAN_POINT('',(0.00851081603739824,-0.00422090160718832,0.));
#1078=CARTESIAN_POINT('',(0.,0.,0.015));
#1079=CARTESIAN_POINT('',(0.0213443988135496,-0.0130160147237218,0.015));
#1080=CARTESIAN_POINT('',(0.0213443988135496,-0.0130160147237218,0.005));
#1081=CARTESIAN_POINT('',(0.0213443988135496,-0.0130160147237218,0.));
#1082=CARTESIAN_POINT('',(0.,0.,0.));
#1083=CARTESIAN_POINT('',(0.000599999999999251,-0.0249927989629013,0.));
#1084=CARTESIAN_POINT('',(0.000599999999999251,-0.0249927989629013,0.015));
#1085=CARTESIAN_POINT('',(0.000599999999999251,-0.0249927989629013,0.005));
#1086=CARTESIAN_POINT('',(0.,0.,0.005));
#1087=CARTESIAN_POINT('',(0.,0.,0.013));
#1088=CARTESIAN_POINT('',(0.,0.,0.013));
#1089=CARTESIAN_POINT('',(0.00791081603739817,-0.00526013209172962,0.013));
#1090=CARTESIAN_POINT('',(0.000599999999999256,-0.00948103369891706,0.013));
#1091=CARTESIAN_POINT('',(0.00749422863405936,-0.00501961524227095,0.013));
#1092=CARTESIAN_POINT('',(0.0144132593261993,-0.00901431947490925,0.013));
#1093=CARTESIAN_POINT('',(0.,0.,0.013));
#1094=CARTESIAN_POINT('',(0.000599999999999254,-0.0169894084652763,0.013));
#1095=CARTESIAN_POINT('',(0.000599999999999251,-0.026,0.013));
#1096=CARTESIAN_POINT('',(0.,0.,0.005));
#1097=CARTESIAN_POINT('',(0.0213443988135496,-0.0130160147237218,0.005));
#1098=CARTESIAN_POINT('',(0.0213443988135496,-0.0130160147237218,0.00605762943269573));
#1099=CARTESIAN_POINT('',(0.0209824485512505,-0.0128070426423502,0.00814098704041318));
#1100=CARTESIAN_POINT('',(0.0194390998159507,-0.0119159898345713,0.0108081847613647));
#1101=CARTESIAN_POINT('',(0.0171341011050176,-0.0105851982083324,0.012583817673507));
#1102=CARTESIAN_POINT('',(0.0153174700940956,-0.00953636580515833,0.013));
#1103=CARTESIAN_POINT('',(0.0144132593261993,-0.00901431947490924,0.013));
#1104=CARTESIAN_POINT('',(0.000599999999999254,-0.0169894084652763,0.013));
#1105=CARTESIAN_POINT('',(0.000599999999999253,-0.0180417063202811,0.013));
#1106=CARTESIAN_POINT('',(0.000599999999999253,-0.0201304495720987,0.0125827121467579));
#1107=CARTESIAN_POINT('',(0.000599999999999252,-0.0227942972198176,0.010807357634922));
#1108=CARTESIAN_POINT('',(0.000599999999999251,-0.0245761433478204,0.00813864431204367));
#1109=CARTESIAN_POINT('',(0.000599999999999251,-0.0249927989629013,0.00605390748024633));
#1110=CARTESIAN_POINT('',(0.000599999999999251,-0.0249927989629013,0.005));
#1111=CARTESIAN_POINT('',(0.,0.,0.));
#1112=CARTESIAN_POINT('',(0.,0.,0.));
#1113=CARTESIAN_POINT('',(0.00791081603739817,-0.00526013209172962,0.));
#1114=CARTESIAN_POINT('',(0.000599999999999256,-0.00948103369891706,0.));
#1115=CARTESIAN_POINT('',(0.00791081603739817,-0.00526013209172962,0.));
#1116=CARTESIAN_POINT('',(0.000599999999999256,-0.00948103369891706,0.));
#1117=CARTESIAN_POINT('',(0.,0.,0.015));
#1118=CARTESIAN_POINT('',(-0.000600000000000748,-0.0249927989629013,0.015));
#1119=CARTESIAN_POINT('',(-0.000600000000000748,-0.0249927989629013,0.005));
#1120=CARTESIAN_POINT('',(-0.000600000000000748,-0.0249927989629013,0.));
#1121=CARTESIAN_POINT('',(0.,0.,0.));
#1122=CARTESIAN_POINT('',(-0.0213443988135502,-0.0130160147237208,0.));
#1123=CARTESIAN_POINT('',(-0.0213443988135502,-0.0130160147237208,0.015));
#1124=CARTESIAN_POINT('',(-0.0213443988135502,-0.0130160147237208,0.005));
#1125=CARTESIAN_POINT('',(0.,0.,0.005));
#1126=CARTESIAN_POINT('',(0.,0.,0.013));
#1127=CARTESIAN_POINT('',(0.,0.,0.013));
#1128=CARTESIAN_POINT('',(-0.000600000000000746,-0.00948103369891696,0.013));
#1129=CARTESIAN_POINT('',(-0.0079108160373988,-0.00526013209172869,0.013));
#1130=CARTESIAN_POINT('',(-0.000600000000000746,-0.009,0.013));
#1131=CARTESIAN_POINT('',(-0.000600000000000747,-0.0169894084652762,0.013));
#1132=CARTESIAN_POINT('',(0.,0.,0.013));
#1133=CARTESIAN_POINT('',(-0.0144132593261999,-0.00901431947490829,0.013));
#1134=CARTESIAN_POINT('',(-0.022216660498396,-0.0135196152422703,0.013));
#1135=CARTESIAN_POINT('',(0.,0.,0.005));
#1136=CARTESIAN_POINT('',(-0.000600000000000748,-0.0249927989629013,0.005));
#1137=CARTESIAN_POINT('',(-0.000600000000000748,-0.0249927989629013,0.00604340958507809));
#1138=CARTESIAN_POINT('',(-0.000600000000000748,-0.0245700692670304,0.00816120376945837));
#1139=CARTESIAN_POINT('',(-0.000600000000000748,-0.0227887625741056,0.0108086610203789));
#1140=CARTESIAN_POINT('',(-0.000600000000000748,-0.0201281615842572,0.012585384400621));
#1141=CARTESIAN_POINT('',(-0.000600000000000747,-0.0180335602582785,0.013));
#1142=CARTESIAN_POINT('',(-0.000600000000000747,-0.0169894084652762,0.013));
#1143=CARTESIAN_POINT('',(-0.0144132593261999,-0.00901431947490828,0.013));
#1144=CARTESIAN_POINT('',(-0.0153166787327565,-0.00953590891247484,0.013));
#1145=CARTESIAN_POINT('',(-0.0171354701182982,-0.0105859886085171,0.0125833102760359));
#1146=CARTESIAN_POINT('',(-0.0194409067151864,-0.0119170330483302,0.0108073751842898));
#1147=CARTESIAN_POINT('',(-0.0209853734260712,-0.0128087313196139,0.00813144120543498));
#1148=CARTESIAN_POINT('',(-0.0213443988135502,-0.0130160147237208,0.00605806985756737));
#1149=CARTESIAN_POINT('',(-0.0213443988135502,-0.0130160147237208,0.005));
#1150=CARTESIAN_POINT('',(0.,0.,0.));
#1151=CARTESIAN_POINT('',(0.,0.,0.));
#1152=CARTESIAN_POINT('',(-0.000600000000000746,-0.00948103369891696,0.));
#1153=CARTESIAN_POINT('',(-0.0079108160373988,-0.00526013209172869,0.));
#1154=CARTESIAN_POINT('',(-0.000600000000000746,-0.00948103369891696,0.));
#1155=CARTESIAN_POINT('',(-0.0079108160373988,-0.00526013209172869,0.));
#1156=CARTESIAN_POINT('',(0.,0.,0.015));
#1157=CARTESIAN_POINT('',(-0.0219443988135502,-0.0119767842391795,0.015));
#1158=CARTESIAN_POINT('',(-0.0219443988135502,-0.0119767842391795,0.005));
#1159=CARTESIAN_POINT('',(-0.0219443988135502,-0.0119767842391795,0.));
#1160=CARTESIAN_POINT('',(0.,0.,0.));
#1161=CARTESIAN_POINT('',(-0.0219443988135498,0.0119767842391802,0.));
#1162=CARTESIAN_POINT('',(-0.0219443988135498,0.0119767842391802,0.015));
#1163=CARTESIAN_POINT('',(-0.0219443988135498,0.0119767842391802,0.005));
#1164=CARTESIAN_POINT('',(0.,0.,0.005));
#1165=CARTESIAN_POINT('',(0.,0.,0.013));
#1166=CARTESIAN_POINT('',(0.,0.,0.013));
#1167=CARTESIAN_POINT('',(-0.00851081603739874,-0.00422090160718732,0.013));
#1168=CARTESIAN_POINT('',(-0.00851081603739839,0.00422090160718803,0.013));
#1169=CARTESIAN_POINT('',(-0.00809422863406049,-0.00398038475772897,0.013));
#1170=CARTESIAN_POINT('',(-0.0150132593261999,-0.00797508899036695,0.013));
#1171=CARTESIAN_POINT('',(0.,0.,0.013));
#1172=CARTESIAN_POINT('',(-0.0150132593261995,0.00797508899036764,0.013));
#1173=CARTESIAN_POINT('',(-0.0228166604983955,0.0124803847577297,0.013));
#1174=CARTESIAN_POINT('',(0.,0.,0.005));
#1175=CARTESIAN_POINT('',(-0.0219443988135502,-0.0119767842391795,0.005));
#1176=CARTESIAN_POINT('',(-0.0219443988135502,-0.0119767842391795,0.00605762943269573));
#1177=CARTESIAN_POINT('',(-0.0215824485512511,-0.0117678121578078,0.00814098704041318));
#1178=CARTESIAN_POINT('',(-0.0200390998159513,-0.010876759350029,0.0108081847613647));
#1179=CARTESIAN_POINT('',(-0.0177341011050182,-0.00954596772379005,0.012583817673507));
#1180=CARTESIAN_POINT('',(-0.0159174700940962,-0.00849713532061603,0.013));
#1181=CARTESIAN_POINT('',(-0.0150132593261999,-0.00797508899036695,0.013));
#1182=CARTESIAN_POINT('',(-0.0150132593261995,0.00797508899036763,0.013));
#1183=CARTESIAN_POINT('',(-0.0159166787327561,0.00849667842793419,0.013));
#1184=CARTESIAN_POINT('',(-0.0177354701182977,0.00954675812397643,0.0125833102760359));
#1185=CARTESIAN_POINT('',(-0.020040906715186,0.0108778025637895,0.0108073751842899));
#1186=CARTESIAN_POINT('',(-0.0215853734260707,0.0117695008350732,0.0081314412054353));
#1187=CARTESIAN_POINT('',(-0.0219443988135498,0.0119767842391802,0.00605806985756736));
#1188=CARTESIAN_POINT('',(-0.0219443988135498,0.0119767842391802,0.005));
#1189=CARTESIAN_POINT('',(0.,0.,0.));
#1190=CARTESIAN_POINT('',(0.,0.,0.));
#1191=CARTESIAN_POINT('',(-0.00851081603739873,-0.00422090160718732,0.));
#1192=CARTESIAN_POINT('',(-0.00851081603739838,0.00422090160718803,0.));
#1193=CARTESIAN_POINT('',(-0.00851081603739873,-0.00422090160718732,0.));
#1194=CARTESIAN_POINT('',(-0.00851081603739838,0.00422090160718803,0.));
#1195=CARTESIAN_POINT('',(0.,0.,0.015));
#1196=CARTESIAN_POINT('',(-0.0213443988135498,0.0130160147237215,0.015));
#1197=CARTESIAN_POINT('',(-0.0213443988135498,0.0130160147237215,0.005));
#1198=CARTESIAN_POINT('',(-0.0213443988135498,0.0130160147237215,0.));
#1199=CARTESIAN_POINT('',(0.,0.,0.));
#1200=CARTESIAN_POINT('',(-0.0006,0.0249927989629013,0.));
#1201=CARTESIAN_POINT('',(-0.0006,0.0249927989629013,0.015));
#1202=CARTESIAN_POINT('',(-0.0006,0.0249927989629013,0.005));
#1203=CARTESIAN_POINT('',(0.,0.,0.005));
#1204=CARTESIAN_POINT('',(0.,0.,0.013));
#1205=CARTESIAN_POINT('',(0.,0.,0.013));
#1206=CARTESIAN_POINT('',(-0.00791081603739836,0.00526013209172934,0.013));
#1207=CARTESIAN_POINT('',(-0.0006,0.00948103369891701,0.013));
#1208=CARTESIAN_POINT('',(-0.00749422863406011,0.005019615242271,0.013));
#1209=CARTESIAN_POINT('',(-0.0144132593261995,0.00901431947490896,0.013));
#1210=CARTESIAN_POINT('',(0.,0.,0.013));
#1211=CARTESIAN_POINT('',(-0.0006,0.0169894084652763,0.013));
#1212=CARTESIAN_POINT('',(-0.0006,0.026,0.013));
#1213=CARTESIAN_POINT('',(0.,0.,0.005));
#1214=CARTESIAN_POINT('',(-0.0213443988135498,0.0130160147237215,0.005));
#1215=CARTESIAN_POINT('',(-0.0213443988135498,0.0130160147237215,0.00605762943269573));
#1216=CARTESIAN_POINT('',(-0.0209824485512507,0.0128070426423499,0.00814098704041318));
#1217=CARTESIAN_POINT('',(-0.0194390998159509,0.0119159898345711,0.0108081847613647));
#1218=CARTESIAN_POINT('',(-0.0171341011050178,0.0105851982083321,0.012583817673507));
#1219=CARTESIAN_POINT('',(-0.0153174700940958,0.00953636580515804,0.013));
#1220=CARTESIAN_POINT('',(-0.0144132593261995,0.00901431947490896,0.013));
#1221=CARTESIAN_POINT('',(-0.000600000000000001,0.0169894084652763,0.013));
#1222=CARTESIAN_POINT('',(-0.000600000000000001,0.0190783475117574,0.013));
#1223=CARTESIAN_POINT('',(-0.0006,0.0232618371659558,0.0112706595620167));
#1224=CARTESIAN_POINT('',(-0.0006,0.0249927989629013,0.00708690971506295));
#1225=CARTESIAN_POINT('',(-0.0006,0.0249927989629013,0.005));
#1226=CARTESIAN_POINT('',(0.,0.,0.));
#1227=CARTESIAN_POINT('',(0.,0.,0.));
#1228=CARTESIAN_POINT('',(-0.00791081603739836,0.00526013209172934,0.));
#1229=CARTESIAN_POINT('',(-0.0006,0.00948103369891701,0.));
#1230=CARTESIAN_POINT('',(-0.00791081603739836,0.00526013209172934,0.));
#1231=CARTESIAN_POINT('',(-0.0006,0.00948103369891701,0.));
#1232=CARTESIAN_POINT('',(0.,0.,0.015));
#1233=CARTESIAN_POINT('',(0.,0.,0.005));
#1234=CARTESIAN_POINT('',(0.027,0.,0.005));
#1235=CARTESIAN_POINT('',(0.,0.,0.));
#1236=CARTESIAN_POINT('',(0.027,0.,0.));
#1237=CARTESIAN_POINT('',(0.,0.,0.015));
#1238=CARTESIAN_POINT('',(0.,0.,0.015));
#1239=CARTESIAN_POINT('',(0.0075,0.,0.015));
#1240=CARTESIAN_POINT('',(0.,0.,0.015));
#1241=CARTESIAN_POINT('',(0.017,0.,0.015));
#1242=CARTESIAN_POINT('',(0.,0.,0.));
#1243=CARTESIAN_POINT('',(0.0222166604983952,0.0135196152422703,0.));
#1244=CARTESIAN_POINT('',(0.00791081603739857,0.00526013209172903,0.));
#1245=CARTESIAN_POINT('',(0.02134439881355,0.0130160147237212,0.));
#1246=CARTESIAN_POINT('',(0.,0.,0.));
#1247=CARTESIAN_POINT('',(0.0006,0.0249927989629013,0.));
#1248=CARTESIAN_POINT('',(0.0006,0.009,0.));
#1249=CARTESIAN_POINT('',(0.0006,0.00948103369891701,0.));
#1250=CARTESIAN_POINT('',(0.,0.,0.));
#1251=CARTESIAN_POINT('',(0.0228166604983948,-0.0124803847577296,0.));
#1252=CARTESIAN_POINT('',(0.00809422863405974,0.00398038475772902,0.));
#1253=CARTESIAN_POINT('',(0.000599999999999251,-0.026,0.));
#1254=CARTESIAN_POINT('',(0.00749422863405936,-0.00501961524227095,0.));
#1255=CARTESIAN_POINT('',(-0.022216660498396,-0.0135196152422703,0.));
#1256=CARTESIAN_POINT('',(-0.000600000000000746,-0.009,0.));
#1257=CARTESIAN_POINT('',(-0.0228166604983955,0.0124803847577297,0.));
#1258=CARTESIAN_POINT('',(-0.00809422863406049,-0.00398038475772897,0.));
#1259=CARTESIAN_POINT('',(-0.00749422863406011,0.005019615242271,0.));
#1260=CARTESIAN_POINT('',(-0.0006,0.026,0.));
#1261=CARTESIAN_POINT('',(0.,0.,0.005));
#1262=CARTESIAN_POINT('',(0.,0.,0.015));
#1263=CARTESIAN_POINT('',(0.02134439881355,0.0130160147237212,0.015));
#1264=CARTESIAN_POINT('',(0.02134439881355,0.0130160147237212,0.005));
#1265=CARTESIAN_POINT('',(0.,0.,0.005));
#1266=CARTESIAN_POINT('',(0.0006,0.0249927989629013,0.005));
#1267=CARTESIAN_POINT('',(0.0006,0.0249927989629013,0.015));
#1268=CARTESIAN_POINT('',(0.,0.,0.013));
#1269=CARTESIAN_POINT('',(0.,0.,0.013));
#1270=CARTESIAN_POINT('',(0.0144132593261997,0.00901431947490864,0.013));
#1271=CARTESIAN_POINT('',(0.0006,0.0169894084652763,0.013));
#1272=CARTESIAN_POINT('',(0.0222166604983952,0.0135196152422703,0.013));
#1273=CARTESIAN_POINT('',(0.00791081603739857,0.00526013209172903,0.013));
#1274=CARTESIAN_POINT('',(0.,0.,0.013));
#1275=CARTESIAN_POINT('',(0.0006,0.00948103369891701,0.013));
#1276=CARTESIAN_POINT('',(0.0006,0.009,0.013));
#1277=CARTESIAN_POINT('',(0.,0.,0.005));
#1278=CARTESIAN_POINT('',(0.0144132593261997,0.00901431947490863,0.013));
#1279=CARTESIAN_POINT('',(0.0153166787327563,0.00953590891247518,0.013));
#1280=CARTESIAN_POINT('',(0.017135470118298,0.0105859886085175,0.0125833102760358));
#1281=CARTESIAN_POINT('',(0.0194409067151863,0.0119170330483306,0.0108073751842898));
#1282=CARTESIAN_POINT('',(0.0209853734260711,0.0128087313196143,0.00813144120543465));
#1283=CARTESIAN_POINT('',(0.02134439881355,0.0130160147237212,0.00605806985756738));
#1284=CARTESIAN_POINT('',(0.02134439881355,0.0130160147237212,0.00499999999999999));
#1285=CARTESIAN_POINT('',(0.0006,0.0249927989629013,0.005));
#1286=CARTESIAN_POINT('',(0.0006,0.0249927989629013,0.00604586448141795));
#1287=CARTESIAN_POINT('',(0.0006,0.024575776673356,0.00814202451727565));
#1288=CARTESIAN_POINT('',(0.0006,0.0227973387694609,0.0108033487450351));
#1289=CARTESIAN_POINT('',(0.0006,0.0201310429881536,0.012582981439757));
#1290=CARTESIAN_POINT('',(0.0006,0.0180432307462731,0.013));
#1291=CARTESIAN_POINT('',(0.0006,0.0169894084652763,0.013));
#1292=CARTESIAN_POINT('',(0.,0.,0.));
#1293=CARTESIAN_POINT('',(0.00791081603739857,0.00526013209172903,0.));
#1294=CARTESIAN_POINT('',(0.0006,0.00948103369891701,0.));
#1295=CARTESIAN_POINT('',(-0.0006,0.026,0.015002));
#1296=CARTESIAN_POINT('',(0.0006,0.009,0.015002));
#1297=CARTESIAN_POINT('',(-0.0228166604983955,0.0124803847577297,0.015002));
#1298=CARTESIAN_POINT('',(-0.00749422863406011,0.005019615242271,0.015002));
#1299=CARTESIAN_POINT('',(-0.022216660498396,-0.0135196152422703,0.015002));
#1300=CARTESIAN_POINT('',(-0.00809422863406049,-0.00398038475772897,0.015002));
#1301=CARTESIAN_POINT('',(0.000599999999999251,-0.026,0.015002));
#1302=CARTESIAN_POINT('',(-0.000600000000000746,-0.009,0.015002));
#1303=CARTESIAN_POINT('',(0.0228166604983948,-0.0124803847577296,0.015002));
#1304=CARTESIAN_POINT('',(0.00749422863405936,-0.00501961524227095,0.015002));
#1305=CARTESIAN_POINT('',(0.0222166604983952,0.0135196152422703,0.015002));
#1306=CARTESIAN_POINT('',(0.00809422863405974,0.00398038475772902,0.015002));
#1307=CARTESIAN_POINT('',(0.,0.,0.0104));
#1308=CARTESIAN_POINT('',(0.,0.,0.0104));
#1309=CARTESIAN_POINT('',(0.0054,0.,0.0104));
#1310=CARTESIAN_POINT('',(0.,0.,0.0104));
#1311=CARTESIAN_POINT('',(0.0075,0.,0.0104));
#1312=CARTESIAN_POINT('',(0.,0.,0.0104));
#1313=CARTESIAN_POINT('',(0.,0.,0.0104));
#1314=MECHANICAL_DESIGN_GEOMETRIC_PRESENTATION_REPRESENTATION('',(#725),
#1315);
#1315=(
GEOMETRIC_REPRESENTATION_CONTEXT(3)
GLOBAL_UNCERTAINTY_ASSIGNED_CONTEXT((#1316))
GLOBAL_UNIT_ASSIGNED_CONTEXT((#1319,#1318,#1317))
REPRESENTATION_CONTEXT('Part 1','TOP_LEVEL_ASSEMBLY_PART')
);
#1316=UNCERTAINTY_MEASURE_WITH_UNIT(LENGTH_MEASURE(2.E-5),#1319,
'DISTANCE_ACCURACY_VALUE','Maximum Tolerance applied to model');
#1317=(
NAMED_UNIT(*)
SI_UNIT($,.STERADIAN.)
SOLID_ANGLE_UNIT()
);
#1318=(
NAMED_UNIT(*)
PLANE_ANGLE_UNIT()
SI_UNIT($,.RADIAN.)
);
#1319=(
LENGTH_UNIT()
NAMED_UNIT(*)
SI_UNIT($,.METRE.)
);
#1320=PRODUCT_DEFINITION_SHAPE('','',#1321);
#1321=PRODUCT_DEFINITION('','',#1323,#1322);
#1322=PRODUCT_DEFINITION_CONTEXT('',#1329,'design');
#1323=PRODUCT_DEFINITION_FORMATION_WITH_SPECIFIED_SOURCE('','',#1325,
 .NOT_KNOWN.);
#1324=PRODUCT_RELATED_PRODUCT_CATEGORY('','',(#1325));
#1325=PRODUCT('Part 1','Part 1','Part 1',(#1327));
#1326=PRODUCT_CATEGORY('','');
#1327=PRODUCT_CONTEXT('',#1329,'mechanical');
#1328=APPLICATION_PROTOCOL_DEFINITION('international standard',
'ap242_managed_model_based_3d_engineering',2020,#1329);
#1329=APPLICATION_CONTEXT('managed model based 3d engineering');
ENDSEC;
END-ISO-10303-21;
